<svg width="1440" height="620" viewBox="0 0 1440 620" fill="none" xmlns="http://www.w3.org/2000/svg">
<path d="M1322.5 2.93634C1319.37 2.38993 1329.88 -1.43939 1338.65 0.6297C1339.47 0.81279 1340.12 0.992168 1340.55 1.13458C1351.66 4.66909 1360.73 13.6903 1364.85 20.7313C1369.23 27.9327 1370.61 33.5388 1372.17 37.3123C1372.64 38.4569 1373.05 39.5479 1373.44 40.5926C1377.37 52.4748 1377.93 57.8414 1379.31 63.2664C1380.51 68.4567 1381.58 72.6979 1382.45 76.6268C1383.13 83.4553 1382.67 90.7262 1381.12 97.5145C1378.82 106.477 1376.05 113.674 1373.16 119.745C1382.1 113.102 1390.94 106.719 1399.36 101.111C1401.39 99.7531 1403.24 98.5492 1405.2 97.2899C1415.55 90.6893 1419.81 92.9809 1426.96 88.1317C1432.07 84.658 1434.93 81.6568 1437.45 78.6277C1438.33 77.5672 1439.15 76.5051 1440 75.4324V196.936C1439.83 196.844 1439.68 196.746 1439.53 196.639C1428.28 204.864 1417.85 212.523 1408 219.795C1413.45 218.51 1420.07 210.052 1423.08 216.93C1427.18 226.331 1411.4 227.729 1418.82 236.001C1416.88 235.623 1415.45 235.042 1413.38 234.426C1407.6 250.296 1400.16 245.114 1395.62 247.909C1395.3 248.112 1394.94 248.359 1394.57 248.641C1400.97 271.954 1396.56 280.222 1395.66 289.053C1395.46 290.058 1395.27 291.051 1395.08 292.032C1400.25 288.283 1401.86 289.267 1403.19 298.764C1413 277.404 1423.44 278.89 1435.21 258.286C1423.83 255.69 1421.01 263.996 1409.89 282.609C1407.28 281.856 1404.99 280.717 1402.34 279.972C1424.03 260.222 1415.15 271.313 1420.63 255.122C1421.95 251.18 1435.66 234.813 1425.63 236.278C1423.27 236.626 1415.6 247.397 1414.35 244.58C1414.1 244.058 1422.58 230.329 1423.98 229.594C1436.78 222.768 1432.57 236.746 1440 228.14V379.43C1436.76 380.975 1433.5 382.861 1430.43 385.595C1428.28 387.516 1429.8 390.352 1426.12 393.906C1422.42 397.45 1404.73 410.106 1416.29 407.6C1403.49 413.234 1403.7 417.095 1393.21 427.857C1391.21 429.913 1386.71 430.501 1382.75 433.666C1381.46 434.701 1380.24 435.986 1379.18 437.674C1377.69 440.052 1381.28 443.214 1378.51 446.272C1372.26 453.204 1362.62 456.442 1354.56 465.263C1339.38 481.791 1327.1 502.126 1310.32 519.932C1309.23 521.078 1308.21 521.741 1307.26 522.113C1304.21 523.345 1301.61 522.12 1296.58 527.623C1295.66 528.678 1290.64 540.332 1285.15 545.14C1283.03 547.06 1273.87 553.96 1266.37 558.578C1263.15 560.544 1260.25 562.316 1258.97 563.17C1252.37 567.511 1253.38 572.584 1246.19 575.083C1244.16 575.74 1242.14 576.202 1240.25 576.457C1231.6 575.791 1238.21 569.345 1225.57 580.852C1222.23 578.808 1218.14 578.364 1212.85 577.05C1210.17 576.357 1207.09 575.486 1203.45 573.399C1199.87 571.46 1195.38 567.07 1194.42 562.788C1193.55 562.069 1192.72 561.197 1192 560.223C1184.53 557.481 1187.33 550.515 1182.89 538.645C1181.98 535.096 1179.69 531.351 1181.02 522.763C1181.46 510.776 1180.56 504.677 1190.66 509.062C1191.28 506.393 1194.16 500.212 1197.03 494.965C1196.8 491.741 1196.61 488.556 1196.29 485.251C1195.74 479.521 1196.72 475.691 1197.51 472.593C1201.07 461.513 1198.23 459.618 1203.34 450.468C1204.61 448.305 1205.82 446.931 1206.97 445.806C1211.28 441.28 1214.26 439.027 1220.15 426.761C1215.15 428.079 1218.57 423.281 1223.11 418.982C1230 412.463 1240.64 404.141 1246.93 397.891C1247.75 397.088 1248.49 396.327 1249.14 395.628C1250.44 394.247 1256.88 378.738 1263.02 373.12C1268.45 368.171 1278.01 362.332 1284.69 353.468C1285.6 352.259 1286.44 351.01 1287.23 349.684C1290.27 344.507 1288.88 338.741 1292.56 333.739C1295.13 330.231 1301.7 328.696 1305.07 324.42C1305.92 323.336 1306.82 321.782 1307.65 320.07C1310.55 314.413 1309.01 312.637 1309.42 311.626C1309.73 310.715 1310.11 310.069 1310.42 309.922C1310.75 309.752 1311.04 309.992 1311.33 310.289C1311.9 310.85 1312.41 311.786 1313.17 309.844C1313.48 309.029 1313.81 308.123 1314.15 307.158C1316.44 300.554 1318.91 292.796 1321.06 285.17C1306.73 296.15 1291.72 307.721 1274.95 320.683C1273.22 322.036 1268.48 325.854 1262.62 330.434C1254.15 337.018 1243.37 345.35 1235.64 349.939C1230.98 354.069 1227.86 357.766 1234.79 356.225C1221.25 362.211 1221.41 366.309 1209.73 377.638C1207.87 379.425 1204.3 380.11 1200.61 382.128C1198.71 383.933 1196.46 385.996 1193.8 388.389C1192.96 390.608 1195.2 393.524 1193.18 396.231C1193.02 396.449 1192.82 396.666 1192.6 396.88C1185.17 404.041 1174.63 406.8 1164.95 415.296C1148.14 430.042 1132.39 447.961 1114.63 462.671C1113.46 463.645 1112.34 464.556 1111.17 465.485C1102.51 473.919 1093.87 482.445 1085.24 491.04C1061.94 513.591 1048.93 530.352 1015.68 561.177C1010.58 565.358 1005.41 569.535 999.134 574.158C995.955 576.477 992.565 578.912 987.746 581.871C985.246 583.38 982.518 584.997 978.14 587.044C973.476 588.886 968.639 592.156 953.172 593.418C949.64 593.577 945.521 593.775 939.862 593.609C933.838 593.074 927.891 594.072 911.512 587.936C908.717 586.707 902.87 584.405 895.326 578.042C887.735 571.781 881.525 561.923 879.061 555.373C874.139 541.941 874.999 537.642 874.584 533.88C873.471 525.25 876.063 498.248 882.922 484.885C878.504 488.077 874.211 491.002 870.536 493.186C862.842 497.786 857.649 499.363 859.26 493.766C859.51 492.907 862.431 489.47 864.736 486.024C867.661 481.653 869.595 477.255 863.769 478.082C863.977 479.654 864.033 481.368 863.087 482.489C863.062 482.518 863.037 482.549 863.012 482.578C860.568 485.446 857.713 488.007 854.643 490.415C853.737 491.707 852.983 492.689 852.817 492.98C838.138 518.37 852.425 510.166 818.385 537.852C816.504 539.37 814.609 540.892 812.697 542.425C808.252 557.954 802.276 571.886 776.802 569.356C768.771 574.691 759.907 579.938 750.241 584.464C731.54 592.979 715.384 600.484 686.834 605.46C679.995 606.43 673.047 606.955 665.154 606.73C661.172 606.6 656.995 606.31 651.854 605.489C646.27 604.257 641.954 604.628 627.644 597.408C620.87 593.568 615.523 589.138 611.286 584.567C609.814 586.016 608.262 587.51 606.589 589.068C601.875 592.818 599.188 597.892 581.339 606.33C578.946 607.321 575.912 608.678 570.563 610.388C565.355 612.095 557.119 613.776 550.013 613.907C546.491 613.972 542.917 614.15 536.609 613.994C533.332 613.852 529.431 613.804 522.456 612.462C516.003 611.094 503.04 607.901 490.82 595.715C489.281 594.037 487.901 592.441 486.657 590.917C480.667 594.549 474.413 597.656 467.733 600.224C463.457 601.862 459.023 603.261 454.528 604.309C452.287 604.829 449.977 605.312 447.812 605.567C446.732 605.691 445.662 605.787 444.832 605.625C444.434 605.523 444.064 605.4 444.062 604.854C444.075 604.56 444.179 604.175 444.634 603.293C444.852 602.86 445.196 602.249 445.622 601.446C446.016 600.702 446.554 599.601 446.572 599.37L451.048 579.959C449.064 583.075 446.894 586.178 444.525 589.267C441.992 592.567 428.52 591.701 424.605 590.061C427.211 588.152 430.335 586.342 433.287 584.33C427.306 583.884 423.999 583.611 422.267 583.062C423.115 582.604 424.144 582.018 425.242 581.294C429.615 578.365 421.64 576.116 422.273 572.691C423.041 568.289 429.895 550.583 435.059 560.926C434.565 558.76 433.954 556.813 433.451 554.712C437.858 549.333 441.947 543.806 445.902 538.11C449.001 533.629 451.999 529.059 454.984 524.396C455.926 522.904 454.543 520.856 454.716 519.128C453.948 519.143 453.147 519.148 452.307 519.14C449.9 519.101 447.202 518.986 443.465 518.422C441.774 518.09 440.011 517.853 437.77 517.297C436.956 517.631 436.005 518.062 434.935 518.804C434.361 519.206 437.073 521.665 436.898 521.936C432.332 529.126 432.889 519.991 432.624 519.723C428.143 515.382 423.211 522.898 421.432 523.542C413.261 526.545 405.948 529.225 398.98 532.034C386.483 541.312 373.091 549.946 358.295 557.56C343.67 564.766 328.245 571.815 305.812 574.682C295.018 575.796 279.885 576.003 264.952 568.347C249.783 560.773 241.331 546.142 239.135 536.185C239.031 535.691 238.96 535.218 238.913 534.77C230.223 534.78 219.344 533.224 203.901 527.645C199.514 525.447 193.807 522.843 186.69 518.678C170.151 531.54 149.149 546.948 126.484 562.963C108.402 575.712 92.7023 587.039 70.8291 601.874C53.6424 614.001 23.3662 619.155 10.4551 619.435C7.74224 619.499 4.5098 619.679 0 619.048V572.399C1.33634 572.492 2.72726 572.507 3.80957 572.157C5.07767 573.305 6.78154 574.291 8.60254 575.267C13.703 578.783 20.5515 584.936 23.2129 584.871C39.639 584.034 37.518 578.203 48.6943 580.21C48.7069 580.179 48.7199 580.147 48.7324 580.116C42.8934 577.741 46.4949 576.644 50.1963 575.086C50.5367 573.225 50.9054 570.566 50.8887 566.702C50.9052 564.307 50.585 561.183 49.8008 557.79C48.0759 558.162 46.6184 558.341 45.5684 558.429C44.6171 558.516 43.9696 558.55 43.6562 558.657C33.5332 561.763 34.8546 562.341 35.6748 564.049C36.4962 565.325 36.8875 568.375 23.2627 569.101C8.67465 569.009 43.2904 559.684 11.1582 563.844C10.1691 563.917 9.22599 563.986 8.32227 564.054C8.17546 563.582 8.00655 563.165 7.75586 562.875C7.05279 562.981 6.49321 562.398 5.66113 562.155C4.16224 562.082 2.16108 562.941 0 562.822V539.62C8.02987 536.702 4.67947 542.047 3.67383 545.428C1.91929 551.116 10.0233 540.482 10.3711 540.677C14.5223 544.256 9.91962 551.472 21.7969 536.175C20.3245 541.124 18.9363 545.993 17.4688 550.93C19.3319 548.64 21.0253 546.787 22.6113 545.25C22.5912 546.451 30.0218 544.417 35.7441 541.531C36.3472 541.341 37.6568 540.697 38.6006 540.346C39.5804 539.97 40.3183 539.805 40.6992 539.943C41.0549 540.084 41.8238 541.019 42.832 542.13C41.5641 540.366 39.5971 538.283 37.2773 536.205C36.0586 536.973 34.9249 537.69 33.8945 538.35C29.492 540.917 27.2261 541.769 26.623 542.203C25.8531 542.637 25.208 543.029 24.6748 543.373C28.927 539.763 32.5882 538.248 37.1953 536.134C31.9237 531.429 24.8687 526.766 20.0664 525.906C17.9677 525.316 16.182 524.927 14.6504 524.672C14.8085 524.653 14.9624 524.632 15.1113 524.608C20.3816 523.52 18.5269 521.318 20.1914 518.363C19.8358 518.522 19.5198 518.677 19.2539 518.828C19.2618 518.818 19.2692 518.808 19.2764 518.799C16.3892 520.448 13.871 522.276 11.5508 524.302C9.17559 524.137 7.64437 524.335 6.4668 524.398C8.10162 524.585 9.63825 524.715 11.0254 524.767C7.09088 528.299 3.70435 532.432 0 537.293V483.08C6.24575 474.68 11.5269 467.588 15.4541 462.305C9.90258 457.578 5.67551 453.302 1.74023 449.141C1.17819 448.55 0.596052 447.893 0 447.183V257.74C3.92875 256.623 4.34442 262.836 8.8418 256.559C15.5815 247.029 8.95567 244.301 13.9014 241.38C13.793 239.224 14.2291 236.957 14.8936 235.253C19.6033 233.736 24.3014 232.61 29.1875 231.393C29.5501 229.723 30.1159 228.555 30.9219 227.454C31.7942 226.254 32.9542 225.136 34.3789 223.539C33.9281 219.993 34.0624 217.673 35.1875 215.633C35.5221 215.024 35.9502 214.441 36.4824 213.86C38.8738 208.75 39.9177 209.03 40.3994 210.658C43.2041 208.764 47.1518 206.534 52.625 203.392C53.9257 200.904 54.9646 198.772 55.6016 197.862C57.7617 194.97 59.8364 192.096 61.8164 189.261C69.3295 178.715 73.973 169.761 76.8945 157.774C77.0997 157.03 77.2879 156.288 77.46 155.556C76.7905 155.87 76.1153 156.188 75.4385 156.51C64.2481 161.841 52.5346 167.889 40.0791 174.788C37.5529 176.193 33.812 178.539 29.584 181.331C24.8806 184.445 20.3255 187.576 17.0957 191.115C13.6596 194.773 9.97936 199.7 6.85254 203.557C4.74603 206.177 2.87499 208.406 1.44141 209.891C0.926118 210.427 0.446662 210.891 0 211.294V167.978C2.48139 165.834 4.80396 164.04 6.13477 162.972C11.0011 158.988 1.36697 162.335 4.59082 159.419C7.04517 157.219 10.4586 156.29 13.3311 154.849C14.3103 154.36 15.2658 153.785 16.1006 153.078C17.4954 151.887 15.8572 149.392 16.5576 148.845C23.9464 143.061 21.9104 151.521 28.9199 146.904C33.4394 143.908 46.2298 129.721 34.5225 134.579C39.429 131.002 44.2958 127.655 49.3008 124.229C45.5544 125.362 41.8445 126.818 38.124 127.78C45.824 124.496 48.9011 119.881 52.4668 116.079C53.7582 114.699 55.1237 113.422 56.8359 112.35C58.5504 111.285 60.408 110.644 62.8633 109.941C64.1303 109.58 65.431 109.227 67.7715 108.539C68.9639 108.201 70.4853 107.715 73.0547 107.121C75.4672 106.502 80.1668 105.974 82.0879 106.112C83.6404 106.551 85.9294 106.758 90.085 107.156C92.2221 107.4 94.851 107.603 99.0674 108.721C103.084 109.9 110.106 112.079 116.99 119.916C119.382 122.778 120.37 124.498 121.296 126.016C123.619 130.045 124.263 131.677 125.028 133.224C125.72 134.678 126.187 135.646 126.571 136.338C127.329 137.722 127.75 138.01 127.987 137.567C128.211 137.105 128.257 135.885 127.858 133.578C127.645 132.405 127.339 130.972 126.628 128.844C126.252 127.744 125.801 126.516 125 124.805C124.136 123.074 123.258 121.055 120.277 117.244C107.907 103.095 96.7126 103.253 91.9668 102.331C86.6581 101.811 83.7269 102.062 81.9287 102.091C80.2501 102.113 76.1876 102.568 73.5781 103.265C70.8635 103.946 69.1614 104.6 67.8691 105.104C65.3512 106.119 64.1468 106.745 62.9951 107.314C60.8062 108.423 59.3608 109.232 57.9346 110.02C55.1533 111.569 52.9216 112.843 51.1582 113.774C49.9033 114.437 48.9095 114.918 48.3369 115.096C47.2061 115.449 48.1409 112.975 49.3789 110.642C50.2863 108.906 51.392 107.233 51.8379 106.915C53.6004 105.662 55.7856 104.855 58.5918 103.971C60.0551 103.507 61.5139 103.067 64.1875 102.183C65.5933 101.733 67.2381 101.14 70.4131 100.298C73.2885 99.4449 79.4404 98.6278 81.7959 98.7479C82.8845 98.957 84.5358 99.0378 86.5137 99.0067C89.0236 99.0019 92.1631 98.894 97.6396 99.8719C102.717 101.026 112.9 102.829 123.277 114.805C127.909 120.668 128.727 123.202 129.899 125.55C130.915 127.803 131.517 129.447 132.038 130.935C133.054 133.892 133.638 136.052 134.157 138.086C135.159 142.086 135.759 145.264 136.258 148.31C136.51 149.883 136.727 151.403 136.913 152.885C138.04 152.213 139.18 151.552 140.346 150.895C149.597 149.781 158.593 149.143 167.98 149.09C170.164 149.102 172.858 150.018 174.621 151.358C174.753 151.456 174.882 151.554 175.006 151.652C193.367 133.229 211.958 115.488 230.923 95.0926C232.837 93.0627 234.369 94.7844 235.516 93.368C236.607 92.0003 237.233 90.9182 237.558 90.0428C238.751 86.9439 236.554 86.0106 240.928 81.117C252.64 68.1573 266.469 54.999 284.608 42.1131C284.707 42.0443 284.806 41.9747 284.904 41.9061C286.412 40.8558 288.721 42.795 292.373 40.1688C296.381 37.4274 296.687 33.2857 307.271 27.5008C311.172 25.4985 316.04 23.1522 323.478 21.159C329.899 19.7406 336.499 18.6344 344.914 17.8455C349.219 17.4848 353.768 17.0957 360.894 17.3309C364.6 17.5288 368.784 17.6563 376.065 19.4442C382.327 21.545 398.061 24.2695 410.479 46.2596C412.739 51.1821 414.545 55.5995 416.495 60.827C418.007 65.2799 423.55 68.841 425.352 80.9998C425.661 86.9988 428.014 94.0823 421.675 112.067C421.216 113.081 420.765 114.041 420.326 114.953C420.639 114.81 420.953 114.667 421.262 114.523C425.055 112.819 428.709 111.218 430.654 110.737C445.435 107.28 450.359 110.383 457.329 111.765C462.23 111.982 468.799 113.927 473.66 117.429C478.586 120.883 481.441 124.885 483.145 127.884C486.418 133.965 486.743 137.289 487.29 140.02C488.101 145.306 488.118 148.37 488.483 151.667C488.832 155.08 490.095 153.518 491.25 151.924C492.396 150.226 493.439 148.583 493.384 152.578C493.345 154.457 493.222 156.017 493.061 157.403C492.167 170.089 489.128 174.312 486.76 179.285C485.839 180.989 484.905 182.581 483.966 184.108C489.928 179.542 495.912 175.069 501.915 170.731C505.598 168.075 503.925 176.554 514.01 165.961C517.945 161.806 521.821 154.875 528.755 146.619C531.282 143.619 534.143 140.498 537.571 137.233C561.198 115.407 577.532 97.2333 611.126 69.7225C617.193 65.3258 623.35 60.9533 630.46 56.3309C634.046 54.018 637.82 51.6372 642.759 48.9402C645.296 47.5736 648.027 46.143 652.03 44.4637C652.597 44.2564 653.169 44.0309 653.764 43.7957C654.119 43.464 654.494 43.1186 654.893 42.7596C657.597 40.785 660.234 36.6016 674.855 30.9246C680.968 28.349 696.722 26.0208 707.972 29.3367C711.391 30.2208 716.116 31.5433 722.361 34.743C730.442 38.825 737.925 46.0483 742.126 53.0897C743.352 57.0701 743.825 60.8131 746.451 65.8026C753.09 79.9414 758.851 81.4476 761.321 94.8983C761.425 95.6132 761.491 96.3154 761.526 97.0408C761.595 101.092 758.747 105.814 757.916 110.582C758.581 111.336 759.171 112.089 759.694 112.827C760.928 111.325 762.174 109.773 763.433 108.191C770.558 99.3153 777.271 90.1209 787.212 81.8817C790.301 79.356 793.35 78.3778 796.542 77.3914C799.827 76.444 802.841 75.2444 810.173 71.6151C811.26 71.0956 812.285 70.6371 812.943 70.3367C819.103 67.7164 822.838 59.843 841.894 57.3026C842.533 57.1307 843.233 56.9977 844.032 56.9149C847.21 56.6195 850.755 57.6622 857.061 59.1717C860.295 59.9896 864.228 60.7755 870.757 62.7342C871.768 63.0487 872.912 63.4212 874.162 63.8621C876.734 62.5454 879.125 61.3981 881.283 60.4637C889.754 56.7648 893.798 56.4746 889.148 61.9549C888.703 62.4946 886.876 63.9348 884.541 65.8123C883.909 66.3209 883.24 66.8616 882.551 67.4246C884.313 68.3167 886.14 69.3448 887.994 70.5311C892.113 66.5559 897.916 62.323 898.817 61.5779C913.513 49.1464 922.248 42.9263 928.03 38.6307C931.671 35.9888 934.864 33.8654 940.181 31.451C942.855 30.251 946.039 28.9764 950.528 27.5848C952.797 26.89 955.364 26.1632 958.793 25.4139C960.531 25.0401 962.47 24.6558 965.104 24.282C966.435 24.0973 967.928 23.9101 969.981 23.7576C972.161 23.6416 974.275 23.3769 979.995 23.8045C987.875 24.5148 1007.08 27.5608 1021.78 47.0164C1031.96 61.6557 1033.3 73.8154 1033.11 82.1375C1041.62 76.8068 1050.4 71.7496 1058.04 68.2684C1067.04 64.0162 1074.12 61.1136 1076 60.3738C1086.95 56.1019 1089.23 57.7514 1089.99 59.3406C1090.45 60.1376 1090.76 60.9294 1092.31 61.0154C1093.94 61.1288 1096.26 60.4448 1103.18 58.7166C1109.12 57.1905 1116.51 56.7352 1118.87 56.4227C1123.46 56.2708 1129.84 57.1553 1135.64 59.9305C1141.42 62.5926 1145.48 66.5855 1146.25 67.0106C1159.99 80.9503 1160.57 85.404 1162.28 94.3865C1163.08 103.261 1160.75 114.752 1148.48 130.424C1147.64 131.955 1146.8 133.169 1145.98 134.214C1145.74 135.07 1145.51 135.876 1145.29 136.637C1148.14 136.005 1151.07 135.393 1154.21 134.853C1162.43 133.921 1170.89 131.28 1190.36 137.903C1191.38 138.144 1192.62 138.493 1194.02 138.961C1197.24 134.154 1203.26 125.644 1209.18 117.433C1217.74 105.364 1226.71 94.131 1222.33 92.741C1217.76 91.3062 1207.38 107.865 1206.5 107.991C1200.38 108.479 1203.37 96.6326 1211.58 90.9471C1210.52 93.2876 1209.17 96.0007 1208.08 98.4852C1226.76 86.8477 1201.93 82.3449 1226.33 84.2225C1229.31 84.5302 1230.31 86.7543 1234.29 86.3934C1234.14 85.2093 1229.55 86.0327 1231.83 83.4285C1233.05 82.05 1235.82 81.1635 1237.95 80.1766C1239.93 79.255 1241.36 78.2295 1240.57 76.4676C1239.58 74.2305 1237.24 74.8203 1234.79 76.3758C1231.37 78.5244 1227.88 82.5428 1227.28 82.8348C1227.29 82.8678 1227.31 82.9013 1227.32 82.9344C1219.49 86.6692 1228.85 77.1567 1232.51 73.6346C1233.18 72.9633 1233.63 72.4929 1233.7 72.326C1236.55 65.5253 1231.27 66.1272 1237.52 57.7547C1241.09 52.928 1253.8 45.7267 1258.22 42.6326C1258.25 42.6106 1258.29 42.5889 1258.32 42.5672C1261.37 40.318 1258.03 40.5972 1256.76 40.1639C1256.42 40.0397 1256.23 39.8571 1256.39 39.5467C1256.48 39.3906 1256.65 39.2013 1256.93 38.9725C1259.78 36.6189 1264.75 36.1438 1268.29 33.5477C1269.82 32.4228 1268.38 29.8141 1269.15 29.2996C1277.64 23.8802 1274.34 32.2689 1282.44 28.2801C1286.84 25.528 1307.79 13.9892 1291.85 16.575C1294.17 15.6567 1296.62 14.8054 1299.25 14.0535C1304.56 12.5427 1310.09 11.5094 1316.18 11.1365C1310.43 10.2939 1304.76 10.3872 1299.38 10.4471C1314.41 9.26133 1319.68 4.44675 1336.41 7.56525C1338.83 8.21649 1341.26 9.12974 1343.61 10.3045C1362.21 20.63 1363.09 35.0405 1365.71 43.1395C1366.82 47.0084 1367.63 50.1418 1368.85 53.0369C1371.23 58.8301 1372.12 59.3722 1372.61 57.492C1372.92 55.3896 1373.24 51.0517 1370.45 41.5779C1368.9 36.7466 1366.57 30.5808 1361.31 23.4793C1356.3 16.4381 1346.51 8.75278 1336.95 5.90802C1327.54 3.15495 1324.62 3.44832 1322.5 2.93634ZM503.881 578.576C502.985 579.319 502.081 580.051 501.171 580.773C501.861 581.564 502.6 582.378 503.394 583.215C515.717 594.671 525.967 594.586 530.688 595.233C535.883 595.568 538.963 595.236 541.791 594.945C538.752 594.322 535.538 593.929 530.459 593.007C525.818 591.878 516.253 591.026 505.808 580.813C505.121 580.046 504.48 579.3 503.881 578.576ZM420.657 581.846C420.846 582.383 421.323 582.764 422.267 583.062C421.164 583.659 420.365 584.042 420.107 584.232L420.657 581.846ZM578.214 559.31C576.51 561.308 574.608 563.606 572.488 566.235C571.163 567.651 568.726 570.178 566.836 572.158C564.403 576.151 563.188 581.21 569.22 580.592C569.515 580.203 569.98 579.594 570.853 578.265C571.85 576.53 573.621 574.571 576.433 566.504C577.068 564.607 577.72 562.126 578.214 559.31ZM593.559 555.299C585.42 564.143 577.506 572.127 570.939 578.888C570.347 579.501 569.758 580.128 569.338 580.579C569.654 580.543 569.989 580.493 570.345 580.426C573.179 579.718 578.189 576.958 580.867 574.737C589.269 567.668 592.637 560.525 593.559 555.299ZM1231.71 564.539C1227.14 563.262 1222.99 564.821 1220.25 566.958C1217.52 569.076 1216.39 571.995 1220.48 573.384C1226.61 575.322 1233.04 564.86 1231.71 564.539ZM723.896 542.521C709.205 552.683 710.841 543.475 698.389 547.197C695.667 548.074 685.389 555.609 683.811 558.741C682.368 562.013 690.909 569.356 695.447 571.68C700.695 563.253 706.483 561.364 698.44 555.483C698.432 555.486 698.423 555.489 698.415 555.491C712.969 548.263 719.418 562.868 722.778 561.242C733.956 555.187 718.456 549.076 723.896 542.521ZM8.51562 564.728C8.60181 564.799 8.68704 564.875 8.76367 564.954C9.06707 565.259 9.21525 565.549 9.18652 565.564C9.18965 565.758 9.0519 565.879 8.90332 565.684C8.75504 565.506 8.63014 565.134 8.52637 564.766C8.52303 564.754 8.51898 564.741 8.51562 564.728ZM8.51562 564.728C8.26324 564.522 7.98981 564.358 7.8125 564.274C7.30744 564.053 7.54635 564.145 8.13184 564.067C8.19496 564.063 8.25876 564.058 8.32227 564.054C8.38921 564.269 8.45239 564.496 8.51562 564.728ZM65.0693 556.096C63.923 558.338 63.0618 560.436 62.2129 562.554C64.9234 561.705 69.2303 560.372 76.0625 558.056C72.2911 557.447 68.695 556.768 65.0693 556.096ZM549.757 541.178C552.409 536.514 551.402 534.988 548.421 535.426C547.51 535.708 546.571 535.991 545.604 536.267C544.058 545.45 541.819 542.73 534.292 547.542C531.728 550.592 529.131 553.59 526.495 556.522C526.968 557.336 527.511 558.055 528.111 558.64C529.509 559.971 531.231 560.225 532.398 560.118C537.412 559.365 538.466 557.402 537.379 555.922C537.001 555.359 536.318 554.794 535.592 554.201C535.795 554.039 536.022 553.856 536.248 553.676C537.544 552.62 539.056 551.372 540.481 550.174C545.051 546.35 548.88 542.734 549.757 541.178ZM161.692 488.466C157.763 491.641 150.383 497.061 149.239 497.195C129.081 499.987 153.625 477.253 112.515 507.196C111.365 508.039 112.604 510.944 110.548 512.766C106.746 516.113 104.813 513.367 101.535 516.088C99.7656 518.395 98.0038 520.658 96.2549 522.866C93.9297 525.802 91.8691 528.337 89.5889 531.068C81.3487 540.901 76.5711 540.017 70.9258 547.11C69.9802 548.302 69.145 549.434 68.4004 550.516C68.9405 550.145 69.4799 549.771 70.0195 549.4C78.5388 552.896 93.8082 542.013 83.582 557.543C102.036 548.32 108.014 542.58 108.717 535.181C108.721 535.14 108.727 535.096 108.735 535.054C108.931 533.688 111.278 531.692 114.155 529.738C112.701 528.71 109.25 524.871 109.38 524.042C110.702 516.69 122.481 520.446 122.147 524.954C124.437 523.702 126.143 522.855 126.808 522.536C130.898 520.596 125.25 528.081 128.909 527.082C130.133 526.737 140.41 519.333 141.306 520.338C147.215 526.679 126.335 532.784 164.221 514.354C160.904 507.253 145.441 519.214 145.189 509.563C144.913 499.207 160.467 503.34 156.619 492.87C158.322 493.899 159.458 494.942 161.199 496.242C162.224 495.079 163.199 494.077 164.127 493.217C163.354 491.875 162.541 490.31 161.692 488.466ZM535.592 554.201C535.23 554.49 534.938 554.709 534.826 554.686C534.76 554.626 534.807 554.538 535.049 553.75C535.23 553.901 535.411 554.054 535.592 554.201ZM535.205 547.96C535.205 547.797 535.52 548.638 535.587 549.936C535.66 551.223 535.425 552.455 535.239 553.132C535.168 553.376 535.101 553.579 535.049 553.75C534.942 553.661 534.832 553.574 534.727 553.483C534.242 553.057 533.797 552.592 533.741 552.21C533.657 551.826 534.165 551.604 534.902 551.889C535.339 551.396 534.953 549.487 535.205 547.96ZM293.6 519.365C292.312 520.161 290.895 521.006 289.326 521.902C288.164 522.458 285.919 523.711 282.542 525.402C278.724 527.053 275.67 529.558 262.726 532.316C260.765 532.462 258.84 532.703 256.891 532.978C257.146 537.147 258.115 541.851 260.944 546.8C269.35 542.938 271.442 540.573 274.971 541.171C278.346 541.493 283.56 544.767 294.542 543.255C307.483 540.658 295.614 536.868 300.871 533.07C301.565 532.689 302.418 532.1 303.394 531.359C303.015 530.645 302.506 529.869 301.8 529.04C300.017 526.719 296.378 524.23 293.6 519.365ZM24.6748 543.373C24.0037 543.943 23.3178 544.565 22.6113 545.25C22.6188 544.906 23.2363 544.301 24.6748 543.373ZM745.789 530.872C741.029 529.63 732.848 530.261 728.254 532.49C727.891 534.662 727.785 536.156 727.941 537.135C728.041 537.759 728.248 538.174 728.549 538.423C729.856 539.499 732.985 537.429 736.717 535.643C741.448 533.305 740.215 539.821 743.468 539.489C742.766 536.145 742.909 532.343 747.788 536.929C747.816 536.902 747.841 536.872 747.868 536.846C746.906 535.676 745.966 534.539 745.015 533.375C745.301 532.559 745.557 531.723 745.789 530.872ZM570.253 523.301C564.654 532.656 568.772 537.3 571.839 538.072C573.176 538.393 574.977 537.087 576.84 535.182C576.327 533.606 575.686 532.029 574.785 530.243C573.748 528.339 572.744 526.322 570.253 523.301ZM40.2109 534.367C39.4243 534.857 38.6631 535.333 37.9316 535.793C38.8884 535.349 39.8881 534.874 40.9424 534.346C40.69 534.356 40.4462 534.361 40.2109 534.367ZM335.293 484.625C329.849 489.509 324.4 494.363 318.807 499.258C315.455 502.188 312.129 505.074 308.398 508.214C305.775 510.233 303.517 512.594 298.729 515.982C299.365 517.164 300.079 518.408 300.862 519.776C301.385 520.903 303.249 525.013 306.084 529.202C313.21 523.276 323.882 513.177 329.851 511.047C328.57 508.761 327.601 506.639 327.267 505.332C329.85 506.556 332.629 508.182 335.432 509.676C335.479 509.494 335.526 509.312 335.573 509.131C327.787 495.579 330.133 499.067 336.604 496.136C340.689 494.294 333.635 490.597 334.323 487.571C334.479 486.875 334.818 485.823 335.293 484.625ZM732.652 507.043C731.139 508.143 729.637 509.24 728.151 510.337C727.413 510.883 726.25 510.443 724.865 510.426C723.275 511.595 721.407 513.069 719.224 514.884C718.748 515.8 718.284 516.76 717.708 517.683C718.034 517.583 718.345 517.487 718.644 517.399C727.567 514.685 722.977 518.717 720.296 520.907C719.489 521.553 718.895 522.028 718.911 522.134C719.818 525.118 721.419 526.852 723.526 527.762C729.85 530.79 739.742 525.394 746.761 526.476C747.222 523.859 747.527 521.124 747.762 518.311C747.82 517.557 746.161 516.013 745.562 514.937C741.003 515.158 736.053 515.739 731.621 516.19C730.565 518.518 729.394 520.858 728.193 523.136C730.577 516.187 734.174 508.68 732.652 507.043ZM11.5508 524.302C12.453 524.364 13.4778 524.477 14.6504 524.672C13.6185 524.795 12.394 524.819 11.0254 524.767C11.1994 524.611 11.3746 524.455 11.5508 524.302ZM682.261 505.189C678.213 508.315 675.359 510.449 673.793 512.198C673.152 512.921 672.544 513.616 671.968 514.282C671.294 516.919 670.473 519.538 669.511 522.117C671.432 522.216 673.359 522.137 675.077 521.964C703.799 515.715 683.725 515.87 682.261 505.189ZM1440 509.805C1439.77 509.785 1439.54 509.766 1439.3 509.742C1436.5 509.029 1430.24 510.005 1422.2 500.659C1420.3 498.024 1419.87 496.742 1419.35 495.543C1418.89 494.387 1418.61 493.467 1418.37 492.641C1417.91 490.996 1417.65 489.661 1417.44 488.385C1417.02 485.867 1416.83 483.642 1416.69 481.448C1416.38 475.602 1415.18 473.054 1414.47 469.104C1414 466.912 1413.73 464.189 1414.53 459.883C1416.93 448.834 1421.61 450.445 1421.32 434.606C1417.41 437.408 1418.29 432.316 1421.63 424.915C1426.02 415.025 1435.31 400.77 1439.31 393.568C1439.48 393.27 1439.7 392.53 1440 391.471V509.805ZM127.951 480.221C123.859 485.859 119.742 491.547 115.643 497.159C124.23 495.166 120.359 488.785 133.242 485.033C131.489 483.406 129.722 481.807 127.951 480.221ZM752.841 493.082C752.754 494.141 752.85 495.042 753.21 495.676C753.352 495.535 753.47 495.395 753.553 495.253C753.615 495.147 753.242 494.22 752.841 493.082ZM157.876 477.575C151.754 482.127 142.552 488.724 150.199 490.284C151.756 490.587 157.067 487.517 160.668 486.139C160.169 484.959 159.657 483.68 159.136 482.292C158.671 480.774 158.251 479.199 157.876 477.575ZM707.875 482.702C707.096 483.485 706.328 484.246 705.572 484.987C705.176 485.88 704.825 486.964 704.501 488.11C704.593 488.063 704.685 488.016 704.776 487.969C706.662 487.011 708.533 485.957 710.416 484.808C709.43 483.37 708.595 482.744 707.875 482.702ZM344.443 476.378C345.028 476.969 345.596 477.877 346.128 479.169C345.885 477.927 345.624 476.733 345.365 475.543C345.058 475.821 344.751 476.1 344.443 476.378ZM488.684 472.968C487.009 473.385 485.328 473.784 483.63 474.327C483.858 474.652 484.031 474.994 484.157 475.347C485.754 474.687 487.257 473.866 488.684 472.968ZM155.919 461.259C153.884 462.611 151.74 464.187 149.458 466.059C151.926 467.653 154.141 468.415 156.351 468.442C156.107 466.122 155.959 463.725 155.919 461.259ZM223.322 457.622C223.41 460.409 224.854 462.983 224.78 461.143C224.282 459.663 223.785 458.49 223.316 457.546C223.318 457.571 223.32 457.597 223.322 457.622ZM241.596 422.578C241.225 423.633 240.897 424.487 240.589 425.27C239.937 426.922 239.334 428.342 238.725 429.744C233.816 440.712 230.601 436.156 223.965 450.841C223.92 450.938 223.876 451.037 223.832 451.136C223.639 451.577 223.347 453.268 223.279 455.237C225.604 456.686 228.816 458.53 232.675 460.428C231.169 460.371 233.398 461.241 235.951 461.566C236.107 461.479 236.265 461.392 236.423 461.305C242.033 458.186 247.778 462.925 248.214 452.372C252.103 459.53 264.329 445.696 266.862 444.76C267.339 443.731 267.868 442.574 268.459 441.274C263.338 444.614 258.577 448.202 258.857 449.669C255.947 443.724 246.249 443.319 246.747 434.795C246.829 433.541 255.113 428.335 249.227 425.783C247.504 425.028 244.256 423.98 241.596 422.578ZM278.038 443.005C271.114 445.763 266.808 460.954 268.493 460.292C275.378 457.627 280.396 451.73 282.077 447.437C281.5 448.065 281.079 448.487 280.902 448.356C279.154 447.04 278.295 444.892 278.268 442.917C278.192 442.945 278.115 442.974 278.038 443.005ZM239.938 444.044C237.211 446.967 234.442 449.894 231.665 452.82C239.931 448.428 246.314 450.271 238.773 457.452C238.767 457.456 238.76 457.461 238.754 457.466C235.478 456.288 232.167 455.146 228.8 454.057C232.498 450.752 236.253 447.38 239.938 444.044ZM219.332 452.352C218.875 452.148 219.291 452.549 220.43 453.358C219.772 452.648 219.479 452.447 219.332 452.352ZM258.857 449.669C258.911 449.779 258.985 449.881 259.034 449.995C258.938 449.903 258.881 449.791 258.857 449.669ZM283.831 434.074C282.986 433.964 281.883 434.005 280.392 434.311C279.82 434.444 275.242 436.979 270.453 439.996C274.952 438.993 279.496 436.201 283.831 434.074ZM806.735 427.398C804.877 427.291 803.135 428.035 801.836 430.04C803.458 429.2 805.095 428.319 806.735 427.398ZM859 422.436C858.147 422.734 857.339 422.905 856.576 422.885C856.808 423.139 857.054 423.373 857.33 423.569C857.81 423.911 858.409 424.004 859 423.907V422.436ZM314.902 386.325C316.073 377.527 305.643 388.381 303.455 388.422C302.951 388.431 302.558 386.436 302.379 384.744C301.287 385.598 300.192 386.407 299.084 387.124C296.049 389.093 296.564 385.972 296.311 386.136C292.148 388.815 294.935 390.851 291.517 393.548C287.221 396.946 272.447 403.46 270.562 405.21C265.669 409.766 278.416 408.744 278.176 409.499C276.516 414.497 267.909 417.328 270.627 420.428C278.473 413.316 295.327 401.578 304.921 396.477C304.094 396.529 303.26 396.562 302.375 396.482C306.567 395.433 305.129 390.015 307 388.264C308.883 386.509 314.338 390.469 314.902 386.325ZM823.095 416.558C822.257 416.6 821.104 417.284 819.192 419.501C820.515 418.548 821.819 417.569 823.095 416.558ZM296.774 411.324C297.469 411.18 298.138 411.062 298.779 410.967C298.653 410.633 298.477 410.257 298.302 409.902C297.808 410.364 297.299 410.839 296.774 411.324ZM305.525 402.9C303.995 404.462 302.165 406.256 300.006 408.301C301.237 409.354 302.46 411.449 303.904 410.19C304.895 409.323 306.152 405.261 305.525 402.9ZM82.9297 371.773C77.4702 371.634 76.6419 366.412 69.4971 370.525C69.7318 372.946 68.1729 379.32 66.1621 387.202C66.7536 388.252 66.7289 389.598 65.5674 391.455C65.3604 391.63 65.1516 391.804 64.9443 391.979C64.5824 393.399 64.2149 394.849 63.8486 396.315C63.7335 396.765 63.6255 397.217 63.5244 397.659C70.1903 388.729 76.6056 380.164 82.9297 371.773ZM294.8 395.718C294.795 395.715 294.788 395.714 294.783 395.712C294.787 395.707 294.791 395.7 294.795 395.695C294.796 395.702 294.798 395.71 294.8 395.718ZM302.696 390.355C300.038 392.088 297.372 393.81 294.795 395.695C294.415 393.694 294.018 391.699 293.708 389.699C296.258 388.689 298.789 387.673 301.336 386.65C301.784 387.882 302.249 389.123 302.696 390.355ZM847.468 376.64C848.733 367.618 842.836 360.09 834.194 377.44C833.236 379.351 833.65 383.824 835.424 386.396C839.453 383.146 843.468 379.896 847.468 376.64ZM311.255 377.779C309.451 378.998 307.698 380.413 305.961 381.84C307.016 381.939 307.993 382.02 308.466 381.614C309.726 380.519 310.571 379.192 311.255 377.779ZM120.289 312.469C122.045 307.153 106.943 310.857 102.592 317.971C102.103 318.762 101.069 327.852 103.535 327.013C103.526 327.022 103.517 327.031 103.508 327.039C105.952 326.23 119.432 315.026 120.289 312.469ZM1397.51 302.203C1396.36 303.342 1394.21 305.484 1391.77 308.038C1390.8 312.445 1389.79 316.809 1388.68 321.32C1396.08 313.317 1403.31 303.042 1393.46 323.783C1398.52 319.095 1403.58 314.42 1408.63 309.755C1404.88 307.296 1401.4 304.527 1397.51 302.203ZM98.2295 313.178C96.5339 315.109 94.8383 317.111 93.1406 319.205C92.2597 320.309 91.5111 321.335 90.8594 322.305C91.7707 321.432 94.9983 317.521 98.2295 313.178ZM1417.03 281.831C1415.41 288.546 1409.47 295.958 1413.32 297.911C1410.81 299.918 1408.27 301.974 1405.76 303.975C1406.81 304.71 1407.87 305.424 1408.91 306.151C1415.1 299.084 1421.27 292.045 1427.47 284.982C1424.02 283.901 1420.61 282.742 1417.03 281.831ZM475.795 287.753C475.55 288.716 475.296 289.606 474.996 290.373C475.495 290.568 475.96 290.769 476.377 290.978C476.799 290.589 477.217 290.203 477.626 289.82C477.206 289.121 476.568 288.424 475.795 287.753ZM1333.96 275.311C1334.49 275.236 1334.95 275.158 1335.36 275.083C1336.63 274.837 1337.5 274.629 1338.14 274.46C1338.11 274.437 1338.09 274.413 1338.07 274.388C1337.74 274.032 1337.56 273.422 1337.19 272.854C1336.12 273.672 1335.04 274.49 1333.96 275.311ZM214.975 263.792C213.68 263.8 212.295 263.956 210.857 264.268C208.987 266.995 207.105 269.555 204.628 271.799C204.568 271.853 204.507 271.908 204.447 271.963C204.895 272.011 205.266 272.106 205.566 272.241C208.67 269.429 211.809 266.612 214.975 263.792ZM220.91 251.561C218.879 253.483 217.206 255.418 215.721 257.346C215.089 258.167 214.494 258.987 213.923 259.798C215.498 260.18 217.543 260.113 219.645 259.646C221.252 258.224 222.865 256.801 224.482 255.378C223.167 254.58 222.052 252.962 220.91 251.561ZM199.581 213.516C196.221 212.096 192.328 220.888 191.111 221.342C187.171 222.788 192.051 216.257 186.853 218.039C186.261 218.257 183.838 219.897 180.773 222.084C176.593 225.063 171.318 228.927 168.398 231.226C167.562 232.309 166.708 233.364 165.853 234.381C165.425 238.713 175.047 238.602 174.536 240.236C172.705 246.082 164.627 248.261 166.355 252.319C170.02 261.009 173.48 244.854 175.004 243.147C179.712 237.985 182.729 241.959 187.16 239.004C189.546 237.411 191.031 235.59 192.406 233.822C193.601 232.295 194.736 230.786 196.333 229.42C196.795 229.024 197.307 229.297 197.79 229.746C200.065 227.894 201.933 226.779 203.174 226.721C206.992 219.836 202.329 214.7 199.581 213.516ZM1248.77 238.781C1245.83 240.084 1243.35 241.268 1241.47 242.761C1241.08 243.071 1240.7 243.376 1240.33 243.677C1240.02 244.568 1239.71 245.444 1239.41 246.305C1241.83 244.413 1244.29 242.538 1246.76 240.68C1247.35 240.098 1248.02 239.466 1248.77 238.781ZM23.873 237.475C24.094 234.691 23.7337 233.173 23.6895 234.566C23.6609 235.302 23.4865 236.746 23.1543 238.256C23.3694 238.202 23.5883 238.145 23.8115 238.09C23.8358 237.885 23.8569 237.68 23.873 237.475ZM288.545 188.346C283.899 193.369 279.193 198.432 274.448 203.488C273.621 204.665 272.787 205.85 271.968 207.028C271.777 206.932 271.588 206.829 271.397 206.73C268.472 209.834 265.533 212.933 262.585 216.013C257.5 224.424 253.171 228.829 245.408 233.607C244.522 234.494 243.636 235.378 242.75 236.258C243.379 236.76 244.008 237.264 244.637 237.766C248.071 234.777 251.498 231.791 254.909 228.815C254.896 228.783 254.883 228.75 254.87 228.719C254.99 228.658 255.11 228.596 255.229 228.535C259.045 225.207 262.839 221.89 266.593 218.587C266.998 217.413 267.37 216.289 267.649 215.3C268.216 215.263 268.743 215.244 269.233 215.239C269.646 215.227 270.033 215.225 270.396 215.234C272.829 213.084 275.246 210.942 277.637 208.806C279.157 207.441 280.644 206.1 282.104 204.779C282.334 204.062 283.164 203.219 284.913 202.226C289.133 198.373 293.123 194.629 296.964 190.758C294.774 189.748 291.727 188.841 288.545 188.346ZM694.113 208.115C694.802 208.277 695.584 208.344 696.393 208.333C697.463 207.319 698.527 206.309 699.586 205.303C698.652 204.75 697.716 204.198 696.771 203.654C695.888 205.142 695.001 206.63 694.113 208.115ZM158.89 208.263C158.866 208.247 158.842 208.232 158.818 208.217C158.716 208.209 158.613 208.2 158.51 208.192C158.636 208.217 158.764 208.238 158.89 208.263ZM588.8 203.339C587.403 203.002 585.938 202.817 584.6 203.979C584.259 204.277 584.157 205.632 584.289 207.274C585.798 205.974 587.303 204.652 588.8 203.339ZM191.504 191.155C192.791 188.113 190.219 179.306 185.315 181.295C185.636 183.159 185.947 185.014 186.258 186.867C186.675 194.002 185.301 198.168 183.8 201.721C185.942 200.951 188.607 197.857 191.504 191.155ZM703.303 195.204C704.022 197.509 703.325 199.537 703.85 201.239C705.173 199.974 706.489 198.71 707.803 197.448C707.543 197.234 707.283 197.024 707.023 196.822C705.788 196.274 704.549 195.73 703.303 195.204ZM600.447 194.017C596.96 192.434 592.291 191.843 591.032 193.373C593.131 196.633 594.275 197.783 595.089 197.934C596.156 197.052 597.22 196.199 598.281 195.386C599.224 194.662 599.926 194.236 600.447 194.017ZM601.928 194.796C601.938 195.211 601.868 195.581 601.998 195.482C602.152 195.364 602.3 195.246 602.443 195.132C602.279 195.017 602.106 194.905 601.928 194.796ZM598.371 184.265C596.271 186.388 594.145 188.488 591.989 190.55C595.344 190.246 598.575 189.592 603.642 194.121C604.745 193.118 605.422 192.269 605.896 191.492C604.786 188.002 601.918 185.73 598.371 184.265ZM239.39 173.699C233.371 172.48 217.008 181.211 215.482 186.483C213.255 194.29 220.131 192.744 227.334 188.938C228.398 187.544 229.567 186.033 230.852 184.393C232.274 182.582 233.811 180.649 235.458 178.593C236.767 176.966 238.076 175.333 239.39 173.699ZM616.486 168.134C617.657 169.623 618.829 171.112 620 172.6C617.974 172.512 615.946 172.439 613.917 172.347C614.055 173.782 614.091 175.415 614.28 176.744C611.668 175.662 610.005 174.71 609.006 173.856C608.272 174.412 607.543 174.963 606.821 175.505C606.34 176.013 605.857 176.52 605.374 177.028C606.789 178.272 607.215 179.31 603.865 178.975C603.815 178.971 603.732 178.932 603.618 178.87C602.42 180.12 601.214 181.367 600.001 182.607C602.234 184.205 605.101 186.024 607.813 187.495C608.371 186.573 609.207 185.546 610.687 184.28C611.022 183.994 611.396 183.689 611.801 183.367C612.342 182.435 612.921 181.493 613.466 180.55C613.805 180.802 614.147 181.061 614.49 181.319C615.44 180.622 616.476 179.883 617.57 179.117C619.075 174.287 621.216 172.898 627.174 172.661C627.297 172.581 627.42 172.5 627.543 172.42C624.903 170.179 622.261 167.938 619.621 165.697C618.576 166.512 617.53 167.326 616.486 168.134ZM311.08 170.287C308.234 171.933 305.434 173.141 302.78 172.908C299.71 176.242 296.602 179.616 293.466 183.016C294.684 185.634 297.871 186.137 302.008 185.388C303.1 183.241 296.868 185.539 297.3 185.007C303.967 177.596 308.26 173.027 311.08 170.287ZM452 184.048C452.678 184.111 453.34 184.15 453.979 184.164C453.214 184.1 452.605 184.059 452 184.048ZM719.076 176.955C718.099 177.179 716.936 177.489 715.628 177.869C715.612 177.916 715.594 177.965 715.579 178.014C717.174 178.778 718.766 179.54 720.359 180.298C720.425 178.81 720.065 177.608 719.076 176.955ZM727.315 175.221C727.667 175.359 728.019 175.501 728.373 175.641C728.742 175.137 729.239 174.618 729.912 174.07C729.528 173.954 729.143 173.835 728.759 173.718C728.277 174.219 727.794 174.72 727.315 175.221ZM328.463 163.282C324.776 162.138 320.775 164.226 316.738 166.749C317.577 167.436 317.758 169.431 322.146 167.293C322.989 166.899 324.169 166.185 325.647 165.207C326.496 164.642 327.437 163.996 328.463 163.282ZM318.058 156.476C316.622 157.975 315.182 159.492 313.741 161.024C311.609 163.329 309.455 165.666 307.28 168.025C311.712 166.973 317.046 164.219 319.752 160.814C319.186 158.624 318.63 157.245 318.058 156.476ZM637.532 164.877C635.507 164.325 633.647 164.22 632.741 164.848C633.764 164.865 634.976 165.713 636.245 166.844C636.413 166.737 636.579 166.632 636.743 166.528C637.011 165.978 637.274 165.426 637.532 164.877ZM224.785 130.897C211.708 139.949 196.066 152.153 186.953 166.726C197.46 162.469 200.103 154.159 210.25 146.06C216.706 140.89 217.715 146.364 224.81 130.87C224.802 130.879 224.793 130.889 224.785 130.897ZM625.117 161.379C624.098 162.185 623.071 162.994 622.042 163.803C625.392 165.155 631.333 161.341 631.565 158.494C631.118 158.289 630.308 158.165 629.315 158.119C627.929 159.192 626.526 160.28 625.117 161.379ZM642.463 148.079C639.531 150.282 636.339 152.709 633.01 155.268C633.55 155.456 634.058 155.734 634.458 156.424C634.834 157.114 631.947 158.318 633.476 159.753C634.808 160.973 636.51 162.128 638.362 163.084C639.072 161.515 639.733 159.964 640.327 158.467C637.108 158.896 633.707 159.687 633.936 159.3C635.691 156.093 639.592 153.096 642.982 150.508C643.072 150.141 643.154 149.785 643.225 149.442C642.954 148.946 642.701 148.493 642.463 148.079ZM84.9775 152.555C85.4365 152.732 85.809 152.831 86.0615 152.892C86.9936 153.085 87.1411 152.961 87.0332 152.887C86.821 152.746 86.0444 152.633 84.9775 152.555ZM86.3623 151.847C86.4999 151.729 86.1227 151.822 85.7178 151.959C85.3759 152.075 84.9886 152.223 84.5742 152.388H84.5752C84.874 152.338 85.2177 152.272 85.4766 152.193C86.0278 152.038 86.2856 151.905 86.3623 151.847ZM1321.81 52.8787C1319.99 51.6999 1313.05 51.1039 1307.58 52.0301C1302.32 52.818 1296.28 54.7448 1290.15 57.2967C1286.38 58.8508 1279.74 62.5372 1272.75 67.118C1262.33 73.7992 1251.86 82.3243 1246.87 85.6502C1245.69 86.4193 1244.72 86.9525 1243.88 87.3084C1238.85 89.4912 1239.15 84.7261 1234.53 86.3846C1235.01 99.9465 1230.41 105.341 1212.81 115.082C1213.09 117.636 1213.09 119.253 1212.78 120.432C1211.86 124.029 1208.06 123.53 1202.68 132.326C1201.31 134.583 1200 137.507 1198.68 140.7C1198.72 140.716 1198.75 140.731 1198.79 140.747C1202.44 142.278 1206.57 144.194 1212.24 147.572C1214.12 148.716 1216.14 149.968 1218.59 151.725C1222.48 149.266 1225.24 147.55 1225.96 147.093C1235.15 141.486 1232.2 152.085 1238.61 147.007C1238.77 146.873 1238.95 146.729 1239.13 146.575C1251.41 136.006 1234.33 131.673 1262.87 132.793C1265.82 122.665 1268.39 124.673 1276.84 118.195C1277.95 117.34 1274.87 115.354 1275.28 114.887C1285.41 102.812 1280.64 115.476 1280.89 115.722C1286.04 119.349 1296.61 106.228 1298.1 104.959C1299.5 103.939 1300.67 103.058 1301.8 102.083C1312.28 91.4707 1319.74 82.7138 1320.94 77.8436C1321.86 69.6695 1322.58 61.2006 1322.19 57.4754C1321.91 55.7246 1321.48 54.2883 1321.25 53.5731C1321.14 53.2114 1321.12 53.0388 1321.23 52.9793C1321.34 52.9185 1321.61 52.9405 1321.81 52.8787ZM737.797 126.817C736.564 130.682 735.116 134.233 733.445 137.137C733.257 137.518 733.064 137.898 732.875 138.278C732.894 138.525 732.905 138.799 732.903 139.102C732.833 140.19 732.617 141.216 732.337 142.056C732.023 143.138 731.264 143.248 730.481 143.044C729.926 144.14 729.367 145.233 728.807 146.323C731.244 143.767 733.686 141.2 736.125 138.618C737.938 132.197 737.547 129.69 737.795 126.992C737.796 126.934 737.796 126.875 737.797 126.817ZM21.6357 132.037C21.6265 132.037 21.6167 132.038 21.6074 132.038C21.6202 132.028 21.6337 132.017 21.6465 132.007C21.643 132.016 21.6392 132.027 21.6357 132.037ZM45.1855 113.947C45.0106 115.463 44.8633 116.983 44.7031 118.492C36.9283 122.92 29.2795 127.332 21.6465 132.007C22.6384 129.315 23.6106 126.634 24.79 123.885C31.5733 120.544 38.3099 117.252 45.1855 113.947ZM283.982 99.4608C281.281 102.306 278.718 105.091 276.044 108.03C279.041 116.292 277.549 121.422 274.831 124.769C269.203 131.72 258.191 130.808 273.041 131.888C273.056 131.889 273.072 131.89 273.087 131.89C277.675 126.255 282.308 120.604 286.991 114.95C282.517 114.433 280.799 113.346 289.871 100.55C287.923 100.159 285.952 99.8159 283.982 99.4608ZM336.674 113.787C337.362 114.233 338.024 114.636 338.653 114.996C340.674 116.157 342.47 117.049 344.072 117.751C344.046 117.549 344.008 117.366 343.957 117.206C343.414 115.528 340.226 114.42 336.674 113.787ZM1075.74 102.233C1075.9 101.258 1075.99 100.423 1075.87 100.626C1075.84 100.759 1075.72 101.153 1075.74 102.233ZM1077.17 100.426C1077.36 100.083 1077.42 99.9088 1077.19 100.266C1077.05 100.502 1076.82 100.848 1076.43 101.652C1076.75 101.149 1077.01 100.727 1077.17 100.426ZM359.441 61.0096C353.012 59.9274 343.026 62.7144 336.102 65.9432C328.151 69.8897 325.852 74.6633 329.701 73.8592C330.091 73.8557 332.915 71.481 337.243 69.992C345.702 67.0071 358.358 65.4094 357.324 71.2967C361.311 67.9425 363.573 66.1354 364.093 64.5418C364.623 62.9709 362.623 61.5017 359.441 61.0096ZM324.434 69.9754C324.424 69.9934 324.413 70.0141 324.402 70.034C324.424 70 324.446 69.967 324.464 69.9373C324.605 69.7109 324.633 69.6301 324.434 69.9754ZM320.926 47.6219C310.072 50.1534 303.233 60.5409 301.211 64.6024C300.707 65.5678 300.467 66.2396 300.576 66.4305C300.574 66.4272 300.57 66.424 300.567 66.4207C302.046 69.1361 303.324 69.6716 304.451 68.992C307.051 67.4439 308.872 58.3002 311.716 55.2996C315.181 51.1592 326.439 49.986 320.926 47.6219ZM1277.52 12.4568C1277.5 12.4565 1277.49 12.4563 1277.48 12.4559C1277.5 12.4463 1277.52 12.4361 1277.54 12.4266C1277.53 12.4363 1277.52 12.4471 1277.52 12.4568ZM1296.48 1.41193C1303.52 0.227586 1310.77 -0.321137 1318.8 0.193176C1317.17 1.38279 1315.72 2.63505 1314.3 3.90509C1308.36 4.06514 1302.82 4.80378 1297.48 5.96075C1289.7 7.6805 1283.45 9.94745 1277.54 12.4266C1279.35 9.73224 1281.3 7.03923 1283.79 4.31427C1287.67 3.2271 1291.79 2.21926 1296.48 1.41193Z" fill="#C9473C"/>
</svg>
