<svg width="1440" height="125" viewBox="0 0 1440 125" fill="none" xmlns="http://www.w3.org/2000/svg">
<path d="M1358.53 -0.129883C1355.46 1.90399 1347.1 -0.260803 1355.52 6.20215C1355.74 13.9603 1356.14 13.719 1360.64 19.0547C1360.84 19.2865 1360.73 19.9825 1360.59 20.6621C1362.87 17.4516 1364.92 15.2635 1366.7 13.4424C1366.77 13.3739 1366.84 13.3065 1366.91 13.2402C1366.95 12.5005 1366.96 11.756 1366.93 11.0098C1366.8 8.54174 1365 8.41431 1364.87 6.2627C1364.83 5.47617 1367.51 6.11072 1366.86 4.04199C1366.44 2.70539 1365.84 1.28166 1365.13 -0.129883H1368.28C1368.66 0.0847646 1369 0.201883 1369.31 0.197266C1369.19 0.106349 1369.07 -0.00371429 1368.96 -0.129883H1377.14C1377.63 1.21962 1378.11 2.56956 1378.6 3.91895C1378.65 3.88385 1378.7 3.84908 1378.75 3.81445C1379.9 2.9945 1380.74 2.39165 1381.58 1.7959C1381.72 1.69146 1381.87 1.58793 1382.01 1.48535C1381.97 1.2769 1381.93 1.06683 1381.89 0.858398C1382.05 0.982535 1382.21 1.10829 1382.37 1.23242C1383.03 0.763849 1383.67 0.312368 1384.29 -0.129883H1436.99C1437.34 2.28105 1439.65 5.76642 1436.05 5.52832C1435.32 5.463 1432.43 0.246016 1431.65 2.53516C1431.62 2.63631 1431.59 2.75438 1431.56 2.88672C1431.93 3.19298 1432.3 3.50442 1432.67 3.81934C1435.03 5.78823 1437.55 7.89945 1440 9.86719V14.1514C1436.41 10.886 1431.43 7.94616 1431.17 8.17188C1429.93 9.35814 1430.2 10.5389 1431.27 11.7031C1434.18 12.7365 1437.1 13.7771 1440 14.7998V15.0381C1439.25 15.3577 1438.5 15.6734 1437.75 15.9844C1438.52 16.4098 1439.29 16.8325 1440 17.248V18.6504C1439.1 17.7861 1438.16 16.9635 1437.23 16.2002C1436.49 16.5019 1435.76 16.8007 1435.02 17.0908C1435.91 18.0672 1436.92 19.0586 1438.03 20.0479C1437.72 20.1211 1437.41 20.1932 1437.12 20.2646C1439.02 21.7971 1439.29 23.8141 1434.46 25.667C1435.87 27.092 1437.14 28.693 1438.61 30.0889C1438.88 28.9895 1439.37 28.1238 1440 27.4189V53.6094C1438.46 53.1986 1437.16 53.409 1436.87 54.6885C1436.8 54.9855 1437.73 58.9951 1438.72 61.0576C1438.93 61.484 1439.14 61.8281 1439.34 62.0371C1439.43 62.1263 1439.52 62.1913 1439.61 62.2275C1439.6 62.2295 1439.6 62.2324 1439.6 62.2344C1439.7 62.281 1439.84 62.3049 1440 62.3115V88.7842C1435.36 86.4618 1433.8 79.935 1429.96 79.8672C1424.45 79.7003 1426.46 81.5459 1428.47 84.7549C1430.67 87.851 1433.48 91.9914 1434.11 93.7598C1434.14 93.7091 1434.22 93.6311 1434.72 93.2559C1434.83 93.17 1435.01 93.0377 1435.21 92.8838C1435.31 92.8055 1435.42 92.7214 1435.55 92.623C1435.7 92.5127 1435.86 92.3895 1436.04 92.25C1436.22 92.1092 1436.41 91.9572 1436.64 91.7725C1436.91 91.5607 1437.21 91.3177 1437.55 91.0322C1438.04 90.621 1438.88 89.9138 1440 88.8389V112.725C1439.26 112.065 1438.59 111.598 1437.92 111.547C1432.18 111.093 1430.8 115.688 1425.85 115.17C1419.57 114.52 1411.87 110.195 1406.04 107.65C1405.01 107.208 1404.03 106.816 1403.09 106.501C1401.38 105.933 1399.62 106.129 1397.15 106.342C1395.87 106.43 1394.52 106.582 1391.85 106.246C1390.44 106.036 1388.73 105.782 1385.3 104.584C1383.51 103.93 1381.22 103.039 1377.85 101.142C1374.59 99.3416 1369.69 95.8206 1365.99 91.9902C1361.88 88.3613 1357.67 81.8694 1354.61 74.4844C1347.53 76.8715 1340.46 79.3282 1333.42 81.9434C1324.25 85.3446 1314.2 92.6158 1304.97 94.9141C1301.13 95.8596 1298.88 91.7711 1296.26 92.6641C1291.55 94.2939 1292.7 100.153 1287.95 102.475C1287.18 102.847 1286.31 102.983 1285.4 102.972C1281.62 102.977 1276.84 100.745 1273.67 102.18C1269.66 103.988 1269.63 110.073 1265.1 112.396C1261.26 114.335 1254.93 113.804 1250.26 115.81C1248.58 116.529 1246.86 117.258 1244.56 118.117C1243.36 118.558 1242.08 119.028 1239.87 119.676C1238.7 120.009 1237.28 120.398 1235.21 120.826C1233.23 121.255 1230.27 121.657 1229.52 121.758C1224.13 122.75 1214.66 124.953 1199.62 124.005C1193.44 123.697 1187 123.188 1179.18 121.799C1170.8 119.629 1163.68 120.619 1143.25 107.357C1135.51 101.622 1126.66 93.0511 1120.83 78.1992C1118.06 71.5276 1116.82 63.7893 1116.78 56.2305C1102.34 63.1314 1088.27 70.928 1074.39 75.7793C1055.16 82.5134 1036.73 83.6495 1013.52 70.5049C1010.01 68.6178 1006.4 66.4077 1002.85 63.7988C1002.17 63.2719 1001.44 62.0417 1001.02 60.3301C1000.92 59.8992 1000.86 59.4322 1000.94 58.8965C1000.98 58.7558 1001.03 58.6078 1001.09 58.4551C1001.13 58.3107 1001.28 58.123 1001.48 57.9111C1001.72 57.6789 1001.76 57.548 1002.69 56.9736C1003.12 56.7017 1003.65 56.3641 1004.4 55.8506C1005.2 55.1807 1007.12 54.6946 1010.99 49.7217C1012.8 47.202 1015.73 42.1015 1015.12 34.71C1015 31.8795 1013.38 27.0038 1011.24 23.9883C1014.25 21.1501 1017.66 19.9359 1018.22 26.8291C1018.39 24.7151 1018.5 22.7004 1018.67 20.6318C1026.49 16.6082 1033.84 11.6986 1041.26 6.44629C1042.53 5.53646 1041.76 2.02288 1043.07 1.10547C1043.98 0.470286 1044.9 0.0969688 1045.83 -0.129883H1358.53ZM185.545 -0.129883C186.261 1.10972 187.472 2.37197 189.427 3.57812C188.495 2.32105 188.091 1.03876 187.966 -0.129883H230.854C231.673 5.16749 231.013 6.16758 234.91 12.6543C234.912 12.6537 234.914 12.653 234.915 12.6523C232.603 16.3444 226.008 0.673225 225.434 1.29785C223.438 3.49867 230.383 13.7325 230.346 18.0459C232.526 13.1125 234.591 21.0868 237.52 20.4492C238.17 20.3036 238.794 14.7868 238.01 11.8271C237.361 9.37604 234.037 3.52541 231.767 -0.129883H274.065C277.251 5.99453 279.652 7.72172 276.577 12.9736C277.42 14.5261 278.263 16.0643 279.101 17.6191C279.862 17.178 280.625 16.7402 281.4 16.3125C275.122 -9.21922 289.696 16.9415 280.522 0.508789C280.312 0.131528 280.09 -0.0392018 279.872 -0.129883H296.55C298.273 1.2529 299.701 1.66505 299.81 0.238281C299.821 0.115102 299.829 -0.00792088 299.836 -0.129883H341.258C340.611 1.10689 340.387 2.42668 339.674 2.36328C338.927 2.39238 337.948 1.30222 337.412 0.737305C336.304 -0.534473 336.369 0.376638 335.917 0.507812C333.65 1.4188 331.868 1.22229 330.92 1.44629C330.472 1.61796 330.189 1.94485 330.6 3.52539C330.73 3.97342 330.94 4.62612 331.289 5.44043C333.215 5.41191 336.438 2.92358 338.428 3.26172C339.635 3.45223 340.658 3.74522 341.604 4.07031C341.036 2.22671 341.041 0.759525 341.319 -0.129883H351.191C351.249 1.35823 351.553 2.83911 351.723 4.02148C351.837 3.98779 351.954 3.95417 352.072 3.91797C352.168 3.8885 352.262 3.85628 352.355 3.82715C352.185 4.15986 352.017 4.49483 351.851 4.8291C352.068 5.90362 352.565 7.03844 353.34 8.1084C354.219 6.91659 354.825 5.26506 354.721 3.04492C358.671 1.64469 359.775 0.679214 359.742 -0.129883H362.926C362.941 0.389116 363.066 0.72212 363.271 0.716797C363.28 0.714269 363.29 0.711514 363.299 0.708984C365.396 0.668437 367.467 0.366424 369.418 -0.129883H393.32C393.05 1.16528 392.738 2.73656 392.39 4.62988C394.526 1.2787 394.999 1.07542 395.456 1.69141C395.179 2.16326 394.911 2.63519 394.667 3.10938C395.273 2.99815 395.836 2.95683 396.363 2.96484C396.503 3.10106 396.665 3.22853 396.854 3.33594C396.909 3.36489 396.99 3.23323 397.088 3.00781C397.526 3.05649 397.937 3.14193 398.326 3.25391C397.935 3.84325 397.616 4.29192 397.584 4.38379C395.912 10.5946 400.61 9.05365 401.291 9.8916C401.603 10.2915 401.923 10.69 402.247 11.085L399.318 10.4023C407.153 18.428 410.638 23.4157 420.773 23.792L420.33 23.876C421.191 23.8754 422.086 23.8441 423.001 23.7852C425.566 23.6272 432.701 19.3364 435.395 19.8301C438.06 20.3202 437.796 25.1284 439.572 26.9971C439.098 15.6833 440.736 14.0429 446.983 20.1074C446.826 11.807 448.108 18.2304 450.996 15.8838C453.403 13.9348 455.897 3.3405 460.799 10.71C457.193 10.7851 458.468 14.5821 455.159 17.8369C454.051 18.9211 440.711 22.229 443.589 30.0713C445.094 34.1606 448.636 29.2554 448.989 29.9893C451.054 34.2779 449.87 40.4216 447.21 38.9883C447.543 37.9476 447.993 36.8647 448.366 35.8145C442.101 31.3149 450.569 52.2459 442.381 34.1348C441.374 31.9137 440.989 29.4428 439.653 27.1445C439.736 28.2049 441.255 30.5249 440.558 31.167C439.836 31.8152 437.164 27.3592 437.87 31.4736C438.88 37.4593 441.763 34.3468 442.096 34.6299C442.09 34.594 442.085 34.5564 442.079 34.5205C445.079 37.1268 440.425 38.5868 440.316 39.1992C439.697 43.2186 441.355 45.8238 439.832 49.375C438.961 51.3983 435.484 51.1153 434.403 51.9443C433.336 52.7871 435.827 55.1668 435.154 55.9492C434.489 56.7282 432.989 54.8322 432.196 55.7373C431.851 56.1379 432.555 59.2499 432.381 59.4082C430.487 61.0802 430.491 54.2728 428.622 55.0898C428.254 55.2517 427.723 55.996 427.251 56.9863L426.458 57.1367C425.159 59.4204 423.894 63.0779 426.531 63.9668C424.985 64.872 423.371 65.5904 421.601 66.3193C422.866 67.1203 424.136 67.596 425.366 68.541C421.875 67.5209 420.867 73.1395 418.403 73.7764C415.88 74.4014 413.312 67.973 410.569 71.2012C404.265 78.121 420.06 74.6505 421.5 75.3975C422.256 75.7982 420.154 81.2023 419.681 81.3896C417.778 82.2185 415.106 78.7013 413.555 78.9199C407.959 79.7248 403.882 84.3834 398.607 84.8555C394.086 85.2445 390.044 85.4175 386.432 85.5615L380.579 84.1973C375.763 83.8978 370.717 83.4589 363.925 81.8418C357.36 80.0335 347.118 77.6497 333.751 66.1514C330.324 63.1015 327.665 59.5293 325.854 56.2012C324.961 54.829 324.227 53.6276 323.623 52.5664C323.554 52.6673 323.474 52.7455 323.376 52.79C316.404 55.9717 308.239 54.8313 300.67 56.9248C300.116 57.0735 299.353 54.7422 299.048 54.9805C297.761 56.0762 299.733 59.481 298.289 60.2949C295.265 62.016 291.734 62.6318 288.122 63.4688C287.765 63.5505 286.491 60.6575 285.708 60.9512C284.933 61.2456 285.386 64.2754 284.11 64.5859C283.559 64.7208 282.973 64.7778 282.362 64.7852C279.295 64.811 275.646 63.5282 272.672 64.5322C272.084 64.7364 272.771 68.5562 271.896 68.8613C269.137 69.8248 263.791 68.258 261.381 69.1025C253.454 71.9016 247.036 76.9 239.604 80.0146C237.86 80.7367 234.947 78.1317 234.004 78.4316C231.871 79.1226 234.704 81.5514 232.624 82.4316C222.636 86.6315 212.38 90.3834 201.552 94.3301C193.901 97.0884 186.356 99.913 176.914 103.219C171.225 105.235 162.431 109.313 154.595 111.339C151.882 112.191 149.175 112.826 146.564 112.922C143.323 113.031 142.029 108.57 139.736 108.876C135.597 109.434 135.696 115.393 130.979 116.584C127.144 117.521 121.874 112.157 117.073 112.785C113.601 113.226 111.314 116.276 107.492 118.154C106.653 118.919 105.727 119.512 104.62 119.686C101.426 120.178 96.9991 117.475 93.3467 117.78C90.2616 118.038 87.1195 118.27 83.6016 118.41C81.832 118.478 79.9651 118.526 77.7207 118.497C75.2235 118.397 73.5726 118.587 67.0098 117.519C65.1354 117.28 62.6187 117.021 57.5303 115.708C54.8468 114.936 51.7193 114.214 45.3301 111.099C42.0735 109.383 37.8656 107.31 31.3877 101.449C25.4501 96.1052 14.5052 83.0152 12.7432 63.792C12.6365 63.5073 12.3729 60.6324 12.3623 56.8535C8.47106 57.8485 4.36727 58.2918 0 58.0176V-0.129883H185.545ZM1224.53 86.3633C1220.69 81.3415 1222.01 90.9249 1216.6 86.9492C1217.72 93.9854 1218.99 100.851 1220.31 107.791C1224.13 106.471 1224.86 103.921 1227.75 104.743C1228.08 104.784 1228.87 104.796 1229.84 104.77C1228.77 103.726 1227.86 102.625 1227.4 101.477C1227.12 100.4 1226.82 99.3219 1226.52 98.2451C1226.02 98.7899 1225.46 99.4111 1224.91 99.9053C1223.4 93.6482 1228.73 92.1228 1224.54 86.3477C1224.54 86.3526 1224.53 86.3584 1224.53 86.3633ZM1194.63 92.7354C1191.83 95.2408 1188.1 94.1414 1187.53 98.665C1186.4 97.5434 1185.25 96.413 1184.12 95.2451C1183.83 96.5862 1183.56 97.935 1183.29 99.2627C1187.24 101.003 1190.91 102.471 1194.49 103.841C1194.53 100.145 1194.62 96.439 1194.63 92.7354ZM85.874 82.5996C83.5402 77.0699 83.2922 86.719 79.6797 82.0205C79.5333 89.1332 79.5408 96.1016 79.5596 103.15C82.9359 102.347 83.6415 99.6728 86.6055 101.555C86.3657 99.2608 86.1081 96.9506 85.8887 94.6426C85.3651 95.1064 84.8113 95.6353 84.2822 96.04C83.9155 89.6338 88.5947 88.9146 85.8838 82.5859C85.8807 82.5903 85.8771 82.5953 85.874 82.5996ZM1184.5 86.8828C1182.56 85.6307 1174.5 79.4145 1171.36 80.8828C1166.23 83.9355 1173.51 88.529 1177.1 90.2656C1178.97 91.2559 1180.25 91.9424 1179.7 92.6357C1179.03 93.2316 1177.13 94.3125 1169.77 93.8457C1169.37 95.1918 1168.73 96.4139 1168.21 97.6963C1173.24 100.234 1177.25 101.722 1181.03 103.019C1182.08 97.6008 1183.44 92.3269 1184.5 86.8828ZM1241.57 96.6855C1241.48 92.7611 1235.56 91.4439 1233.95 95.4414C1232.68 98.6681 1235.48 100.341 1237.65 100.588C1239.85 100.834 1241.56 99.6829 1241.57 96.6855ZM92.4561 96.8516C93.4338 93.1332 89.5851 89.8651 88.5322 93.3037C86.8167 98.8782 90.9835 102.506 92.4561 96.8516ZM1191.6 38.793C1188.27 38.7707 1184.25 38.9893 1180.05 39.3389C1180.1 39.8449 1180.11 40.3212 1179.91 40.6738C1179.85 40.7843 1179.76 40.8847 1179.66 40.9707C1178.89 41.597 1176.82 41.9572 1174.7 42.71C1172.59 43.4101 1170.4 44.7549 1170.12 45.457C1169.4 47.2427 1171.49 47.7611 1173.49 48.2979C1175.51 48.8145 1177.45 49.4873 1177.56 49.7451C1179.1 52.8514 1175.77 53.3765 1179.83 55.1221C1179.13 53.2496 1182.03 50.2949 1185.1 49.4814C1185.48 49.3762 1185.84 49.2938 1186.19 49.2314C1184.33 52.3689 1182.48 55.5334 1179.94 58.6221C1179.71 58.8767 1179.33 58.8622 1178.86 58.8818C1177.98 59.0508 1176.26 58.7159 1173.98 62.0781C1173.09 63.5339 1172.08 66.3364 1171.31 69.1602C1170.54 71.2392 1169.77 73.2938 1168.65 74.5107C1171.24 73.1392 1173.69 71.1865 1175.74 69.2227C1181.57 71.2223 1181.03 73.6319 1182.79 79.2471C1183.11 77.2376 1183.03 68.435 1186.08 71.9424C1186.23 72.1425 1185.62 75.1422 1187.27 77.0752C1190.57 80.8984 1191.52 81.9939 1186.39 90.0771C1195.15 87.2305 1196.14 94.5221 1202.6 95.0186C1203.89 95.1201 1205.25 95.0568 1206.67 94.7764C1205.95 90.294 1205.01 87.9462 1203.45 86.7646C1201.7 84.9575 1198.73 86.2675 1193.67 86.8574C1193.76 84.1076 1194.03 81.4137 1194.13 78.6377C1202.9 85.9707 1198.85 84.9566 1204.1 80.5C1204.32 80.3478 1204.56 80.1893 1204.8 80.0254C1206.73 78.9808 1214.71 80.2818 1211.87 72.6025C1211.25 70.8454 1206.76 70.9468 1207.44 68.0781C1207.61 67.5993 1212.65 66.2199 1213.12 66.8867C1219.27 75.5078 1209.92 82.7701 1224.97 78.1729C1225.16 78.1191 1225.43 78.0553 1225.74 77.9785C1226.56 77.765 1226.41 74.4145 1227.43 73.7002C1229.18 72.3671 1230.17 76.0761 1231.44 74.7627C1232.69 73.4375 1232.9 67.8932 1236.49 71.7588C1242.59 78.8306 1237.44 86.4115 1227.93 83.7832C1233.65 94.9004 1260.5 85.4518 1262.05 83.9043C1268.1 77.234 1256.5 83.9529 1254.78 81.1875C1254.08 80.0057 1248.54 63.9064 1249.06 75.4316C1249.22 78.8472 1254.52 81.562 1252.82 84.0732C1251.04 86.6061 1250.34 81.5442 1250.05 81.2715C1249.11 80.3315 1247.2 82.9613 1246.62 82.4092C1238.13 73.9185 1233.24 58.3682 1247.72 78.8418C1248.8 72.6964 1239.41 66.7792 1241.7 62.0674C1244.53 56.3264 1250.19 62.5569 1250.86 62.6973C1258.69 64.3216 1247.46 56.2688 1256.54 56.8926C1261.66 57.2168 1252.48 66.3449 1262.28 62.0781C1270.47 58.4918 1264.58 56.3999 1262.19 47.7246C1261.61 45.703 1265.33 41.6463 1259.41 44.7344C1260.02 46.9993 1260.72 50.0215 1261.04 52.1924C1259.51 51.3823 1255.46 45.5212 1253.14 42.5811C1253.26 46.0044 1253.02 47.9443 1249.25 41.3877C1248.22 42.0813 1248 43.2117 1247.11 42.877C1246.85 43.3315 1246.58 43.7949 1246.3 44.248C1246.27 44.4192 1246.2 44.5285 1246.08 44.5996C1245.09 46.1662 1244.05 47.5628 1243.58 48.0488C1243.47 52.0967 1245.78 52.2961 1239.23 49.4971C1239.06 49.8173 1238.75 50.0905 1238.22 50.2568C1238.2 50.2627 1238.18 50.2711 1238.16 50.2783C1240 52.7504 1241.74 55.2237 1243.61 57.6914C1242.6 58.1793 1241.69 58.6349 1240.66 59.127C1238.04 54.6876 1235.09 54.1316 1233.79 52.04C1232.72 52.4859 1231.59 52.9607 1230.54 53.3936C1228.51 54.2344 1226.73 54.9172 1226.05 55.0771C1225.83 55.7125 1225.32 56.1371 1224.71 56.3994C1225.39 58.0429 1227.18 63.2012 1227.22 63.8916C1227.34 66.9271 1225.95 66.2021 1224.87 64.0889C1223.73 61.9841 1223.28 58.4773 1223.03 56.5557C1222.97 56.4814 1222.92 56.3987 1222.69 56.3408C1222.35 56.2745 1222.1 56.2111 1221.97 56.1719C1220.51 55.7199 1222.88 51.9382 1221.62 50.8613C1221.35 50.6685 1220.08 50.9497 1218.99 50.9766C1219.26 56.1632 1218.29 60.1977 1215.26 59.6143C1214.07 65.9051 1210.97 55.733 1210.52 66.5654C1210.24 64.6504 1210.13 63.0506 1209.93 60.8682C1208.98 61.9013 1208.21 62.2914 1207.61 62.249C1207.51 62.4022 1207.39 62.5574 1207.24 62.7119C1201.69 56.3008 1202.72 64.319 1199.55 66.2119C1199.5 66.171 1199.45 66.1273 1199.39 66.085C1199.72 64.3912 1200.15 62.6664 1200.62 60.9248C1198.6 60.3626 1197.77 59.4904 1197.53 58.5068C1197.31 58.5442 1197.1 58.5809 1196.88 58.6152C1196.98 57.2854 1196.98 55.7282 1196.78 54.1367C1197.06 54.6263 1197.43 55.1706 1197.9 55.7695C1198.61 53.7338 1199.62 51.9412 1196.36 51.9209C1196.31 51.723 1196.25 51.525 1196.19 51.3291C1196.12 51.5022 1196.07 51.7 1196.06 51.9229C1195.92 51.9262 1195.78 51.9332 1195.62 51.9424C1195.72 51.3605 1195.8 50.8427 1195.86 50.3838C1195.84 50.3261 1195.81 50.2674 1195.79 50.21C1195.83 50.1877 1195.86 50.1652 1195.89 50.1426C1195.94 49.803 1195.97 49.4955 1196 49.2197C1195.55 48.508 1195.09 47.5302 1194.63 46.4375C1194.34 46.3712 1194 46.2955 1193.62 46.1699C1192.42 44.3812 1191.42 43.453 1191.06 42.6211C1191.11 42.2856 1191.16 41.9614 1191.2 41.6934C1191.22 41.6519 1191.24 41.6079 1191.27 41.5654C1191.25 41.5915 1191.23 41.6185 1191.21 41.6445C1191.36 40.5672 1191.23 40.4641 1189.29 44.2607C1189.26 44.3062 1189.23 44.353 1189.2 44.3984C1191.2 40.0912 1191.16 39.6737 1192.12 40.835C1192.31 41.0029 1192.49 41.1901 1192.67 41.3867C1192.3 40.4124 1191.94 39.514 1191.6 38.793ZM92.2021 28.0264C87.9297 25.1292 87.9544 28.8837 86.1846 29.7207C85.4138 30.0923 84.3456 27.8896 84.2803 27.9189C83.2199 28.4137 85.5779 31.0267 84.9268 31.8213C84.1012 32.8199 79.1074 32.3973 78.8701 33.0801C78.2674 34.8229 84.5783 38.6714 84.7822 39.1738C84.8972 39.4595 84.9754 39.714 85.0264 39.9404C84.7417 39.7925 84.4171 39.6037 84.0635 39.3535C83.5411 38.9637 82.7988 38.4032 82.6836 37.7129C81.1114 45.0555 83.9025 44.6422 83.3418 50.7441C83.9397 51.6134 84.5281 52.6884 84.9736 53.9395C84.3691 53.3218 83.7697 52.6924 83.1846 52.04C83.1321 52.3955 83.0723 52.7715 82.999 53.167C82.7483 54.2993 82.5167 55.1069 82.3037 55.6709C83.4246 56.0189 84.7545 56.9683 85.7832 58.0693C85.7467 58.3311 85.689 58.5875 85.6006 58.7861C85.5241 58.9976 85.4352 59.1781 85.3408 59.3301C84.1671 58.4155 82.9796 57.5209 81.7773 56.6514C80.8309 57.6554 80.1863 54.3416 79.1992 57.1904C78.9739 57.223 78.7486 57.3515 78.5322 57.6357C78.6226 56.9273 78.7205 56.1836 78.8232 55.3555C74.121 59.5674 76.4866 50.0131 77.2021 48.0088C77.4424 47.4678 77.6597 46.948 78.7549 47.1104C78.984 47.1603 79.2557 47.2314 79.5928 47.3779C79.0646 46.4667 80.9566 45.3236 76.6445 41.4199C74.4551 39.4372 69.3217 35.4617 67.0205 32.5293C68.2838 34.8631 69.8082 37.4073 71.2217 39.7715C68.8959 42.9606 66.6697 41.2915 61.1816 40.2188C62.8898 41.3342 70.6158 45.2972 66.5439 46.1465C66.3017 46.2225 63.8872 44.2747 61.3682 45.2393C56.3164 47.4523 53.9566 50.8233 49.0215 40.6875C48.2259 44.247 47.1014 48.0636 46.415 52.1182C45.6859 56.0853 45.6788 60.126 45.1787 60.7764C46.0532 72.2314 52.4646 78.0562 55.1182 80.6582C58.1749 83.4283 60.1501 84.6819 61.8643 85.7529C65.2126 87.7637 67.5941 88.528 70.1133 88.248C70.4992 82.968 70.1514 80.598 68.4785 79.4014C67.5995 78.7726 66.4721 78.5199 64.1904 77.8115C63.0212 77.4092 61.5509 76.9909 59.0664 75.4414C56.9646 73.9313 51.2744 70.4568 49.7354 60.3525C49.5166 60.0418 49.1678 58.7654 48.9873 56.9912C51.7277 56.1579 54.4492 55.8967 57.2559 55.4375C56.4068 57.5545 56.0516 59.3368 55.583 59.8086C56.0656 67.4897 59.6736 70.399 60.8223 71.9834C62.2798 73.5979 63.084 74.3155 63.7168 74.9043C64.9317 76.007 65.4165 76.2991 65.9551 76.3379C66.932 76.3469 68.4127 75.3348 71.4316 73.5605C72.3787 73.0263 74.5448 73.6282 75.9648 72.7607C77.7436 72.2099 78.4331 70.6294 78.0713 67.1709C78.0148 66.6888 77.7256 66.3069 77.3301 65.9365C76.4555 64.9254 74.8196 64.1201 75.5723 62.1055C75.6859 61.8146 77.0498 61.5154 78.2305 61.4336C79.0829 61.3647 79.8661 61.3762 79.9775 61.7119C83.352 71.1859 75.0316 77.0477 87.7402 74.4785C88.0757 74.395 88.3481 71.0658 89.0146 70.6279C90.2625 69.8129 90.1236 73.6782 91.2432 72.8281C92.3704 71.973 94.0222 66.8243 95.4854 71.6807C98.2037 80.5258 90.9987 85.366 87.9092 80.5645C86.4479 90.1234 102.238 92.382 108.012 92.2061C109.709 92.1886 110.785 92.0409 111.099 91.877C116.607 88.7246 111.899 89.267 108.084 88.5537C106.919 88.2587 105.93 87.7922 105.795 86.8398C105.609 85.4891 106.082 68.4676 103.322 79.46C102.5 82.7176 105.533 87.1019 103.626 88.8662C101.716 90.6264 102.567 85.6372 102.441 85.2783C102.001 84.0702 99.9691 85.8776 99.7227 85.1621C97.8772 79.721 97.1501 72.9335 97.4629 70.5195C96.3365 69.8068 94.6165 68.3932 92.0254 66.1279C94.1437 68.3607 93.8317 67.9729 92.9482 67.2715C92.0948 66.5304 90.6509 65.5337 91.2549 65.6074C92.1074 65.6233 93.249 65.1373 93.749 63.8369C94.5581 63.4652 94.3585 61.6782 94.9551 61.9961C95.2486 62.1971 95.5285 62.4189 95.7939 62.6553C95.7373 63.6605 95.6364 64.561 95.5283 65.1523C95.2334 67.3626 95.4701 68.1223 96.4805 68.9248C96.9956 69.2873 97.6826 69.6564 98.8154 69.6406C99.0063 69.6212 99.2134 69.6019 99.4385 69.5674C99.4572 69.76 99.4659 69.9394 99.4609 70.1006C99.4145 70.7542 99.2282 71.1048 98.7734 71.083C99.4362 72.8503 100.335 76.338 101.457 82.1934C103.099 78.5091 101.277 73.2295 100.891 69.0996C101.798 68.6375 102.911 67.7407 104.284 65.9346C104.684 65.3862 105.107 64.6839 105.517 63.8457C106.894 65.234 107.777 67.9301 108.022 68.1387C108.187 68.2764 108.342 68.3982 108.485 68.5039C113.11 71.5656 107.436 61.1666 113.67 64.4912C117.435 66.3091 108.425 72.3389 116.95 71.1064C123.95 69.8715 119.702 66.2611 119.353 57.2949C119.28 55.1916 122.419 52.2881 117.849 53.6719C117.934 56.0109 117.957 59.1028 117.83 61.2773C116.644 59.9477 114.588 51.6252 113.657 48.7334C112.875 48.1636 112.245 47.7714 111.735 47.5293C110.859 47.9829 110.552 49.3056 109.988 47.4785C109.83 47.6538 109.729 47.9084 109.661 48.2158C109.669 48.8492 109.617 49.1962 109.525 49.3691C109.433 50.8387 109.437 52.6835 108.305 53.626C108.195 52.1932 108.085 50.7627 107.976 49.3301C107.919 49.3858 107.865 49.461 107.815 49.5566C107.753 49.6773 107.694 49.7983 107.637 49.916C107.514 49.3481 107.378 48.7855 107.23 48.2314C100.057 46.7689 108.814 37.3769 98.0137 41.75C98.9346 40.6897 100.06 39.8934 100.9 38.7119C98.4975 36.7562 93.8345 29.128 92.2021 28.0264ZM1422.52 51.0312C1420.61 51.9078 1418.7 52.7594 1416.76 53.5557C1416.11 53.0767 1415.36 52.7787 1414.54 52.7529C1414.69 53.2481 1414.95 53.7194 1415.27 54.1582C1414.58 54.4322 1413.88 54.6987 1413.18 54.9551C1413.38 54.2331 1413.6 53.5131 1413.83 52.7979C1413.71 52.816 1413.58 52.8387 1413.46 52.8682C1412.64 53.0647 1412.35 53.9641 1412.43 55.1523C1411.78 55.2416 1411.08 55.1342 1410.39 54.9443C1410.67 54.5711 1410.81 54.0555 1410.68 53.3311C1410.63 53.0479 1409.18 52.0951 1407.81 51.2764C1407.79 51.2811 1407.76 51.2868 1407.74 51.29C1407.62 51.3118 1407.51 51.3016 1407.5 51.3066C1407.51 51.312 1407.55 51.3239 1407.65 51.3799C1407.76 51.4325 1407.99 51.5804 1408.18 51.7588C1408.37 51.9299 1408.66 52.2481 1408.86 52.7686C1409.06 53.2625 1409.1 53.8875 1409.03 54.3271C1409.19 54.398 1409.31 54.503 1409.42 54.6328C1409.28 54.5816 1409.14 54.5296 1409 54.4766C1408.83 55.296 1408.65 55.497 1408.64 55.6543C1408.46 55.9075 1408.61 55.8433 1408.72 55.8408C1408.85 55.8229 1409 55.7812 1409.15 55.7324C1409.38 55.6587 1409.6 55.5668 1409.8 55.4512C1410.19 57.0639 1409.6 59.7917 1409.83 60.707C1410.46 63.1401 1412.75 61.2762 1412.85 61.4609C1415.36 66.4984 1408.01 63.8307 1406.31 65.3047C1404.75 66.8035 1403.8 68.3701 1402.8 69.7988C1402.29 70.5068 1401.78 71.192 1400.82 71.6709C1400.32 71.8972 1399.73 72.0991 1398.57 71.9922C1397.48 71.8043 1395.18 71.6399 1391.09 68.0557C1390.09 67.2673 1388.71 65.6918 1387.48 63.5605C1382.62 65.2053 1377.74 66.8195 1372.85 68.4307C1374.91 73.0309 1377.6 76.4525 1379.84 78.7822C1387.75 86.4638 1392.14 86.983 1393.92 87.8477C1395.93 88.534 1396.88 88.7291 1397.73 88.917C1399.33 89.2455 1400.23 89.3279 1401.09 89.4023C1402.74 89.5277 1403.96 89.5037 1405.06 89.4463C1407.24 89.3232 1408.81 89.0246 1409.5 88.6562C1409.52 88.6488 1409.53 88.6408 1409.54 88.6328C1410.61 87.976 1410.4 85.5132 1410.52 83.3477C1410.56 82.3773 1410.67 81.4646 1410.99 80.8018C1411.03 80.7026 1411.09 80.608 1411.14 80.5205C1414.06 75.9532 1417.57 75.6739 1418.51 68.6465C1418.89 65.7325 1418.97 63.7359 1418.82 62.3867C1419.82 61.3143 1419.85 59.0812 1419.14 57.0342C1419.79 57.2805 1420.27 57.336 1420.37 57.1494C1420.37 57.1404 1420.37 57.1301 1420.37 57.1211C1421.44 55.1588 1422.14 53.0835 1422.52 51.0312ZM1405.4 75.5605C1400.93 79.4734 1407.14 80.7064 1407.03 81.5879C1407.21 86.5223 1403.92 87.9387 1400.23 86.1113C1399.24 85.6259 1398.1 84.9165 1396.55 83.7646C1395.1 82.6838 1392.9 80.7902 1393.86 80.1826C1394.79 79.6074 1398.01 79.6932 1399.89 78.8281C1401.89 78.0407 1403.51 76.8679 1405.4 75.5605ZM44.7393 35.8477C42.316 38.2154 39.4953 40.7843 36.5518 43.2344C36.4262 43.3384 36.2978 43.4404 36.1719 43.5439C35.8406 44.3467 35.5151 45.1986 35.2051 46.1035C33.0492 51.5335 32.9606 60.9491 32.8252 61.9248C33.396 69.8743 36.8285 77.1535 39.9912 81.4912C39.3739 75.3341 39.4815 67.9702 42.0752 61.0645C42.5495 60.9893 43.0228 60.9002 43.4941 60.7979C41.8981 60.0172 41.0537 53.9506 41.1875 49.9414C41.2154 45.8283 41.2566 43.2922 38.9639 42.8193C41.1419 39.6358 43.3173 37.6247 45.2842 36.1768C45.1035 36.0661 44.9206 35.9575 44.7393 35.8477ZM431.994 72.4717C431.884 74.2102 431.742 75.9592 431.576 77.6807L430.012 77.9775C429.962 78.2463 429.911 78.5156 429.858 78.7832C427.56 78.5606 425.151 78.3308 422.533 78.041C422.677 76.6991 422.808 75.3405 422.923 74C425.154 73.7587 427.229 73.4833 429.181 73.1025L430.564 72.8398C431.037 72.7275 431.533 72.601 431.994 72.4717ZM212.51 65.5811C210.369 65.6422 203.232 73.6515 208.538 78.292C210.109 79.6407 210.649 69.6554 212.307 69.3906C213.38 69.2197 214.178 74.2469 215.407 71.7695C214.487 69.7894 213.507 67.5757 212.511 65.5967C212.511 65.5919 212.51 65.5859 212.51 65.5811ZM128.307 47.6553C125.58 43.7635 123.688 44.0979 121.207 44.6768C124.232 50.5254 122.841 51.4123 122.21 53.0098C121.265 55.4131 124.187 54.8768 124.254 55.2822C124.949 61.1007 123.103 62.2712 127.514 61.5459C126.693 63.7191 125.876 65.9031 124.996 68.0557C128.487 67.8852 129.798 71.5533 132.694 75.8604C128.924 64.8638 132.771 71.5403 134.432 65.5352C135.224 62.5344 129.665 49.6574 128.299 47.6562C128.301 47.6559 128.304 47.6556 128.307 47.6553ZM193.743 52.8604C192.613 52.9746 194.972 56.9314 194.597 58.5391C194.198 60.1667 189.669 57.7968 190.811 60.3916C191.939 63.0028 200.393 67.5272 195.287 71.3174C196.076 72.7181 196.457 73.8482 197.09 75.1465C198.692 74.5446 200.313 73.9609 201.875 73.3682C199.288 69.4663 196.58 65.3536 194.093 61.5752C193.587 57.8434 195.846 61.9653 195.898 61.9561C195.897 61.9519 195.894 61.9466 195.893 61.9424C197.36 60.947 196.297 52.5894 193.743 52.8604ZM204.951 37.5303C203.371 39.1412 201.872 40.9727 200.298 42.6387C203.868 47.2642 205.245 42.7734 208.445 50.0371C208.151 50.8104 207.86 51.5785 207.559 52.3545C206.489 50.9201 205.426 49.4799 204.367 48.041C204.366 52.7068 206.179 54.2759 202.615 54.4004C209.065 64.7144 211.89 70.5153 212.528 57.1123C214.021 63.5406 223.101 82.7322 220.215 67.5215C219.684 64.6979 216.676 63.9114 216.478 63.5068C213.992 58.5093 213.892 54.701 211.498 49.999C210.417 47.8719 209.04 48.4808 207.562 45.5186C206.848 44.0704 206.416 39.2714 204.951 37.5303ZM432.005 72.4619C432.002 72.465 431.997 72.4686 431.994 72.4717C431.995 72.4646 431.996 72.4564 431.996 72.4492C431.999 72.4532 432.002 72.4579 432.005 72.4619ZM1191.2 41.6934C1191.07 41.9414 1191 42.1721 1190.98 42.3936C1191 42.4687 1191.03 42.545 1191.06 42.6211C1190.93 43.4951 1190.84 44.4576 1191.17 44.7705C1192.13 45.5579 1192.94 45.9444 1193.62 46.1699C1194.23 47.0687 1194.88 48.1858 1195.53 49.6172C1195.62 49.8118 1195.71 50.0107 1195.79 50.21C1194.5 51.0507 1193.13 51.6424 1191.93 52.4639C1193.47 52.1651 1194.68 51.9986 1195.62 51.9424C1195.34 53.6686 1194.92 55.9725 1194.36 59.0557C1195.2 58.8701 1196.04 58.7482 1196.88 58.6152C1196.76 60.1974 1196.51 61.4607 1196.32 62.0801C1196.36 62.2734 1196.38 62.4818 1196.43 62.5518C1197.33 64.2394 1198.43 65.2878 1199.39 66.085C1199.38 66.163 1199.36 66.2424 1199.35 66.3203C1199.42 66.2873 1199.48 66.2501 1199.55 66.2119C1199.88 66.4792 1200.19 66.7195 1200.47 66.9473C1201.02 67.433 1201.34 67.997 1201.16 68.8506C1201 69.677 1200.21 70.8347 1199.3 71.4541C1197.56 72.5315 1197.13 70.2965 1195.98 67.9453C1194.99 65.8885 1193.71 63.3776 1191.98 61.1562C1190.92 59.8443 1189.71 58.6353 1188.38 57.6826C1188.56 57.1424 1188.78 56.6039 1189 56.0908C1191.06 52.3193 1190.8 50.2103 1189.25 49.4404C1189.43 48.4413 1189.64 47.444 1189.86 46.4531C1189.86 46.4528 1189.86 46.4525 1189.85 46.4521C1189.06 46.8933 1188.3 47.9119 1187.77 49.1035C1187.29 49.0852 1186.76 49.1298 1186.19 49.2314C1187.15 47.6093 1188.13 45.9924 1189.2 44.3984C1189.13 44.5457 1189.07 44.7 1188.99 44.8564C1189.1 44.6484 1189.2 44.4492 1189.29 44.2607C1189.89 43.3815 1190.53 42.5083 1191.21 41.6445C1191.2 41.6601 1191.2 41.6774 1191.2 41.6934ZM226.526 69.7129C228.298 66.2474 221.064 61.0099 219.595 62.0293C220.296 65.3912 225.398 71.9365 226.526 69.7129ZM95.7666 59.2344C96.3323 59.0729 96.7898 59.0145 96.9297 59.0801C99.9054 60.5456 101.013 63.2441 102.324 63.7627C102.141 63.933 101.953 64.136 101.763 64.375C100.841 65.5223 100.712 67.1886 100.891 69.0996C100.335 69.3825 99.8557 69.5033 99.4385 69.5674C99.2608 67.746 98.0269 64.6445 95.7939 62.6553C95.856 61.5535 95.8626 60.3238 95.7666 59.2344ZM255.325 47.2393C242.667 49.9834 253.81 52.4914 256.924 67.1221C258.447 66.5456 259.957 65.9748 261.476 65.4043C260.735 64.7081 259.998 64.0132 259.254 63.3184C259.252 63.319 259.251 63.3197 259.249 63.3203C257.936 57.9625 256.63 52.599 255.325 47.2393ZM84.9736 53.9395C86.2583 55.2521 87.5743 56.5102 88.8789 57.7988C89.0945 61.1349 89.8326 64.2148 90.6543 62.4014C94.016 67.0423 89.4624 62.5849 88.5605 62.7549C87.5426 62.8793 87.3575 63.0467 87.4023 62.9854C87.4471 62.9318 87.6789 62.6848 87.4297 62.3213C86.9986 61.6366 85.04 60.6965 78.9531 58.0098C79.0378 57.6931 79.1194 57.4209 79.1992 57.1904C79.6618 57.1238 80.1224 57.4646 80.4961 57.7207C81.0719 58.1588 81.5437 58.5806 81.9775 58.8984C82.8409 59.5363 83.5304 59.9199 84.126 59.9902C84.5803 60.0476 85.0096 59.8628 85.3408 59.3301C86.0473 59.8806 86.7509 60.4374 87.4473 61.0029L87.4492 61.001C87.3503 60.1075 86.681 59.0305 85.7832 58.0693C85.9012 57.221 85.7849 56.3033 85.6777 57.0098C85.5578 55.897 85.3046 54.8691 84.9736 53.9395ZM91.125 60.0938C91.8773 60.8951 92.6186 61.7249 93.334 62.6045C92.5239 61.5726 92.9114 60.7551 93.6885 60.1768C94.0902 61.6157 94.0689 62.6982 93.8672 63.4775C93.834 63.6036 93.7926 63.7235 93.749 63.8369C93.2575 64.0623 92.3948 63.7647 90.7539 62.1562C90.8491 61.9011 90.9467 61.5782 91.043 61.1816C91.0785 61.0314 91.1039 60.6353 91.125 60.0938ZM104.188 63.0576C103.435 63.8192 102.863 63.9757 102.324 63.7627C102.996 63.1388 103.618 62.9549 104.188 63.0576ZM107.637 49.916C107.986 51.5331 108.229 53.2035 108.327 54.9043C107.825 54.1625 107.67 57.6744 106.909 60.1211C106.513 61.5539 106.025 62.8057 105.517 63.8457C105.114 63.4403 104.671 63.1449 104.188 63.0576C104.239 63.0058 104.294 62.953 104.347 62.8955C106.33 60.7652 105.341 56.9947 102.745 53.5488C102.499 52.3561 102.251 51.1585 101.994 49.9551C108.427 57.7687 104.836 55.6689 107.637 49.916ZM1414.8 60.1514C1416.62 59.7058 1418.44 58.953 1418.82 62.3867C1418.41 62.8214 1417.85 63.0666 1417.11 63.0293C1416.12 62.9643 1415.03 61.8029 1414.15 60.2861C1414.37 60.2495 1414.58 60.2042 1414.8 60.1514ZM89.3994 60.7266C89.9009 61.2899 90.3517 61.762 90.7539 62.1562C90.7205 62.2457 90.6875 62.3281 90.6543 62.4014C90.3189 61.9383 89.9038 61.3843 89.3994 60.7266ZM1272.46 35.084C1268.27 32.0792 1265.72 33.0678 1262.33 34.5732C1267.51 39.2763 1265.7 40.6788 1265.17 42.4727C1264.36 45.1758 1268.12 43.64 1268.3 44.0156C1270.17 49.573 1268.09 51.2865 1273.58 49.1758C1272.86 51.6006 1272.25 54.0051 1271.51 56.4248C1275.86 55.1542 1278.17 58.3894 1282.43 61.8291C1275.94 52.0221 1281.88 57.491 1283.05 51.0381C1283.64 47.8024 1274.65 36.6058 1272.45 35.0879C1272.45 35.0867 1272.46 35.0852 1272.46 35.084ZM99.0762 49.7988C100.489 50.9231 101.738 52.212 102.745 53.5488C103.253 56.01 103.751 58.459 104.274 60.9316C103.456 61.0395 102.634 61.1493 101.822 61.2559C100.991 54.706 98.0257 54.0515 99.0762 49.7988ZM78.9531 58.0098C78.8891 58.2492 78.8229 58.5163 78.7559 58.8105C78.569 59.4185 78.3662 60.1521 78.1465 61.0312C78.251 59.9063 78.3725 58.8951 78.5098 57.8145C78.6598 57.8806 78.8079 57.9457 78.9531 58.0098ZM1412.69 56.7041C1412.99 57.897 1413.51 59.1857 1414.15 60.2861C1413.29 60.4346 1412.46 60.3933 1411.85 59.6611C1412.14 58.6714 1412.41 57.6845 1412.69 56.7041ZM85.6104 44.8457C87.3544 39.8506 99.1887 34.7045 96.2188 45.1494C94.5941 45.7286 93.6344 47.8325 92.8936 51.5537C92.6618 52.7451 91.948 53.2001 91.126 53.2832C91.1566 53.9357 91.174 55.0894 91.1768 56.3184C92.0067 56.2905 92.7138 56.4272 93.2861 56.2461C93.9702 56.0796 94.5139 55.7885 95.0127 56.5068C95.4335 57.0156 95.6615 58.0422 95.7666 59.2344C95.4406 59.3275 95.0781 59.4552 94.7197 59.6133C94.3485 59.7638 93.9894 59.9529 93.6885 60.1768C93.6805 60.1481 93.6734 60.1178 93.665 60.0889C93.3023 58.8597 92.4485 57.0037 91.1768 56.4844C91.1783 57.7897 91.1613 59.1601 91.125 60.0938C90.3861 59.3067 89.6353 58.546 88.8789 57.7988C88.7633 56.0092 88.7989 54.1445 89.0518 52.9238C88.5049 52.7132 88.0607 52.473 87.915 52.3711C86.9597 51.7193 89.0544 48.3091 88.3223 47.0674C88.0653 46.6692 85.3549 47.277 85.4082 45.8467C85.422 45.423 85.4458 45.0327 85.4727 44.6748C85.5171 44.73 85.5624 44.7881 85.6104 44.8457ZM1205.24 56.3047C1205.06 56.3821 1204.93 56.5454 1204.87 56.8369C1204.82 57.093 1205.08 57.4249 1205.46 57.8164C1205.38 57.305 1205.31 56.7918 1205.24 56.3047ZM77.4365 57.3311C77.7522 57.2792 78.0183 56.9933 78.5039 57.6719C78.5128 57.6596 78.5232 57.6475 78.5322 57.6357C78.5246 57.6952 78.5173 57.7555 78.5098 57.8145C78.1597 57.6601 77.7964 57.4996 77.4199 57.334C77.4252 57.3327 77.4312 57.3324 77.4365 57.3311ZM1416.76 53.5557C1417.85 54.3522 1418.66 55.6509 1419.14 57.0342C1418.16 56.6624 1416.8 55.8552 1415.79 54.7764C1415.6 54.5795 1415.43 54.3716 1415.27 54.1582C1415.77 53.9619 1416.27 53.7598 1416.76 53.5557ZM1408.53 54.291C1407.5 53.8823 1406.61 53.5208 1406.07 53.6748C1404.07 54.262 1405.05 55.607 1404.85 56.7119C1405.36 56.7467 1405.68 56.5313 1406 56.4111C1406.51 56.1423 1406.93 55.7912 1407.3 55.4619C1407.88 54.9386 1408.31 54.4589 1408.53 54.291ZM1412.69 56.7041C1412.55 56.1583 1412.46 55.6313 1412.43 55.1523C1412.63 55.1243 1412.84 55.0795 1413.03 55.0098C1413.08 54.9922 1413.13 54.9727 1413.18 54.9551C1413.01 55.5356 1412.85 56.1197 1412.69 56.7041ZM1187.77 49.1035C1188.34 49.1254 1188.84 49.2367 1189.25 49.4404C1188.89 51.4215 1188.6 53.4182 1188.38 55.4209C1186.97 55.7522 1185.55 56.0433 1184.19 56.2539C1185.42 55.7532 1186.63 55.1975 1187.83 54.6035C1186.64 53.5055 1186.9 51.0686 1187.77 49.1035ZM1409.42 54.6328C1409.74 54.7484 1410.06 54.8547 1410.39 54.9443C1410.29 55.0801 1410.17 55.1994 1410.03 55.3008C1409.96 55.3557 1409.88 55.4051 1409.8 55.4512C1409.72 55.1246 1409.6 54.8436 1409.42 54.6328ZM226.871 45.832C224.359 45.9642 222.499 40.7219 219.732 41.4922C214.668 42.9007 221.521 43.9517 224.093 46.5967C213.93 53.7896 225.006 45.2005 230.485 55.2754C230.604 51.7096 230.323 43.7866 226.716 43.1289C225.215 42.8579 226.946 45.8133 226.871 45.832ZM1010.22 25.0283C1010.44 25.357 1010.66 25.7007 1010.87 26.0605C1011.84 27.6869 1012.72 29.8216 1013.16 31.7217C1013.55 33.3068 1013.74 34.9565 1013.74 36.5322C1013.69 43.0396 1011.05 47.0649 1009.44 49.1973C1006.01 53.3442 1004.28 53.797 1003.51 54.3398C1002.09 55.0205 1001.3 55.1862 1000.87 55.2285C1000.57 55.2135 1000.31 55.169 1000.1 55.1064C999.728 54.9628 999.54 54.7428 999.354 54.5234C997.326 50.6604 997.002 46.0847 996.919 44.0498C998.901 46.3742 1000.95 49.2332 1003.11 51.8867C1000.16 38.2085 1000.29 38.3811 1003.63 38.8262C1004.42 38.9392 1005.43 39.0572 1006.6 39.0107C1010.32 38.8709 1005.39 32.6459 1006.62 30.0674C1007.15 28.9259 1008.56 26.8315 1010.22 25.0283ZM1380.65 41.4482C1377.89 41.6259 1367.55 50.3306 1373.58 54.8701C1375.35 56.1938 1377.6 45.7881 1379.77 45.4238C1381.17 45.1914 1381.38 50.3738 1383.34 47.7354C1382.49 45.7235 1381.6 43.4714 1380.65 41.4648C1380.65 41.4599 1380.65 41.4533 1380.65 41.4482ZM1204.22 53.0879C1203.84 53.5916 1203.41 54.1695 1202.94 54.8262C1203.61 54.6798 1204.28 54.6177 1204.93 54.5732C1204.85 54.2243 1204.75 53.9247 1204.63 53.6982C1204.52 53.4882 1204.38 53.2838 1204.22 53.0879ZM1196.36 51.9209C1196.55 52.654 1196.69 53.3998 1196.78 54.1367C1196.26 53.2201 1196.04 52.489 1196.06 51.9229C1196.17 51.9204 1196.26 51.9203 1196.36 51.9209ZM1434.25 45.6621C1431 47.0649 1427.83 48.5656 1424.67 50.0352C1426.16 51.9179 1429.54 53.0124 1431.02 52.418C1431.18 52.3474 1431.63 51.7034 1432.17 50.7373C1432.93 49.3931 1433.81 47.4512 1434.25 45.6621ZM188.672 15.9092C188.369 16.3826 188.115 16.9105 187.81 17.3994C197.62 30.7213 177.555 20.6237 188.451 30.4277C189.57 37.9404 189.845 37.7258 194.03 43.085C194.402 43.5673 194.004 45.9193 194.197 46.1201C197.154 48.8094 198.354 46.2447 200.865 52.3096C201.161 51.8093 201.45 51.3528 201.75 50.8506C197.591 45.8762 198.856 40.8551 197.957 35.5771C197.555 33.1853 196.122 32.9872 195.753 30.9014C195.625 30.1377 197.797 30.8677 197.035 28.8398C195.294 24.2583 191.761 18.5555 188.677 15.9229C188.675 15.9187 188.674 15.9134 188.672 15.9092ZM1230.72 45.6377C1229.84 45.7684 1229.1 45.9864 1228.49 46.3008C1228.59 46.5515 1228.64 46.8019 1228.64 47.0508C1228.47 46.87 1228.29 46.6902 1228.12 46.5098C1226.89 47.2907 1226.25 48.5441 1226.06 50.3584C1226.9 49.7139 1227.69 49.0348 1228.18 48.3311C1228.46 47.9107 1228.63 47.4824 1228.64 47.0508C1229.25 47.6963 1229.85 48.3479 1230.47 48.9775C1232.45 48.9242 1231.92 47.2454 1230.72 45.6377ZM96.2188 45.1494C97.3201 44.757 98.7271 45.0646 100.579 46.0449C99.7981 47.5816 99.325 48.7918 99.0762 49.7988C97.9456 48.8989 96.7107 48.103 95.4121 47.4717C95.7528 46.6246 96.0192 45.8511 96.2188 45.1494ZM221.707 14.5801C218.63 23.6548 227.698 33.458 234.186 38.8975C234.083 37.2905 233.994 35.6747 233.892 34.083C235.241 43.5504 234.932 53.581 240.326 42.626C234.859 42.5189 237.791 38.6206 237.627 38.1211C231.667 22.1662 227.766 32.3241 221.712 14.5781C221.71 14.5787 221.709 14.5795 221.707 14.5801ZM1382.19 25.8848C1381.74 26.2908 1381.19 26.7934 1380.58 27.4111C1378.83 29.3861 1376.27 31.6818 1373.81 36.6465C1377.64 42.3921 1379.75 43.3796 1382.07 32.6338C1382.44 35.5336 1384.28 40.9179 1386.12 44.7207C1386.8 42.9264 1387.62 41.4957 1388.41 40.3184C1387.34 39.6102 1386.16 39.3079 1386.06 39.0811C1383.8 34.2251 1384.17 30.3887 1382.19 25.8848ZM85.0264 39.9404C85.1903 40.0256 85.3409 40.099 85.4785 40.1582C86.2186 40.4799 86.5086 40.4562 86.5234 40.5361C86.5473 40.6835 85.7354 41.1783 85.4727 44.6748C83.144 41.7831 85.5433 42.2386 85.0264 39.9404ZM1194.42 38.8838C1194.48 40.0212 1194.3 42.1727 1195.35 41.8213C1197.88 40.9418 1198.49 39.6328 1200.41 44.0547C1200.41 44.0127 1200.42 43.9689 1200.42 43.9258C1200.53 42.8231 1200.33 41.4708 1199.9 40.0713C1199.73 39.9345 1199.55 39.8006 1199.38 39.668C1199.2 39.6504 1199.01 39.6318 1198.83 39.6143C1197.82 39.2328 1196.3 39.0001 1194.42 38.8838ZM214.804 14.957C214.995 17.1051 215.51 19.9055 215.832 22.3174C215.286 22.7865 214.733 23.2295 214.186 23.6992C213.41 22.0522 212.615 20.3213 211.853 18.7441C210.817 18.6014 212.111 20.8021 211.957 21.127C211.953 21.1184 211.949 21.1091 211.945 21.1006C209.69 25.673 208.097 25.9263 203.164 21.8867C205.303 27.0333 207.443 32.1806 209.582 37.3271C210.001 36.5779 210.439 35.8342 210.858 35.0996C210.039 32.1971 209.221 29.2908 208.403 26.3877C209.761 27.6116 211.104 28.8302 212.458 30.0557C212.621 28.8219 212.888 27.4835 212.982 26.3086C221.834 39.4992 211.24 32.4434 213.658 38.4404C215.219 42.2922 221.733 39.3888 221.579 36.3477C221.552 35.898 215.683 25.782 220.413 30.3604C221.16 31.0906 230.895 54.2076 225.715 34.3633C224.983 31.5453 217.719 17.6784 214.804 14.957ZM277.532 34.2334C273.813 23.4458 275.968 36.2436 275.541 37.9238C275.084 39.6032 272.294 36.1548 274.535 40.5518C277.257 43.1305 277.942 35.4402 277.527 34.2197C277.529 34.2239 277.531 34.2292 277.532 34.2334ZM1192.87 40.2344C1193.17 39.6154 1193.42 39.1609 1193.62 38.8418C1193.48 38.8357 1193.34 38.8291 1193.19 38.8242C1193.09 39.2711 1192.98 39.7423 1192.87 40.2344ZM62.29 31.167C60.104 26.4271 56.4798 28.4044 53.4443 30.585C51.9566 31.6269 50.6872 32.6329 50.3076 31.8213C50.1522 31.5273 50.1491 30.9258 50.2959 30.0312C49.0124 31.3369 47.9315 32.6888 46.335 34.2627C46.3301 34.2676 46.3242 34.2725 46.3193 34.2773C48.631 35.8568 50.9389 37.4487 53.335 38.958C56.0601 36.4629 63.6845 33.7932 62.29 31.167ZM304.568 34.0938C302.442 33.3806 301.626 28.6576 300.012 35.0488C300.014 35.048 300.017 35.0467 300.02 35.0459C304.488 37.6248 309.591 39.5901 311.98 34.916C308.326 30.829 307.897 35.2109 304.568 34.0938ZM1390.8 37.2266C1390.61 37.2493 1390.45 37.2976 1390.31 37.373C1390.32 37.4875 1390.34 37.6068 1390.36 37.7275C1390.43 37.6389 1390.5 37.5519 1390.57 37.4668C1390.65 37.3837 1390.72 37.3036 1390.8 37.2266ZM206.333 35.9492C206.858 29.7446 198.984 28.1705 198.078 30.9531C199.288 32.9399 206.154 38.0812 206.333 35.9492ZM1405.25 29.4189C1405.31 29.5249 1405.38 29.6326 1405.44 29.7432C1405.47 29.5782 1405.5 29.4024 1405.53 29.2207C1405.44 29.2818 1405.35 29.3477 1405.25 29.4189ZM1440 21.7129V27.002C1439.71 24.9949 1439.42 22.9873 1439.12 20.9854C1439.4 21.2287 1439.7 21.4706 1440 21.7129ZM352.218 25.8135C352.437 26.2549 352.846 26.4591 353.189 26.4951C353.364 26.5132 353.529 26.4862 353.587 26.4141C353.639 26.3396 353.61 26.2266 353.234 26.0215C352.926 25.9628 352.586 25.8937 352.218 25.8135ZM227.609 19.8379C226.151 20.0708 224.732 11.9136 223.338 13.9385C221.555 16.539 229.543 26.7118 231.496 25.6982C229.573 17.6386 229.068 19.6001 227.609 19.8379ZM191.989 12.3945C188.23 12.5941 196.075 25.1355 198.462 25.2275C196.167 23.1587 194.111 12.2886 191.989 12.3945ZM995.034 14.6797C995.54 14.7137 996.305 14.7687 997.569 15.0146C998.869 15.3242 1000.66 15.552 1004.23 17.5449C1005.99 18.59 1008.35 20.2046 1010.72 23.2998C1010.89 23.5155 1011.07 23.7467 1011.24 23.9883C1010.89 24.3165 1010.55 24.6667 1010.22 25.0283C1008.38 22.2938 1006.35 20.6048 1004.76 19.4971C1001.13 17.0959 999.21 16.7788 997.86 16.377C996.529 16.0478 995.768 15.9507 995.184 15.8682C995.112 15.8586 995.043 15.8491 994.978 15.8408C994.921 15.8334 994.902 15.8305 994.866 15.8252C994.801 15.8153 994.738 15.8057 994.68 15.7969C994.562 15.7792 994.455 15.7634 994.359 15.749C994.168 15.7202 994.014 15.6956 993.886 15.6738C993.381 15.5886 993.219 15.5266 993.119 15.46C993.027 15.3945 993.019 15.3285 993.014 15.2637C993.026 15.1339 992.956 15.0031 993.103 14.875C993.194 14.812 993.342 14.7447 993.842 14.6982C994.099 14.6767 994.445 14.6584 995.034 14.6797ZM337.433 18.4668C339.198 21.5492 340.37 26.8651 341.675 24.3789C341.342 23.2296 341.011 22.0762 340.68 20.9229C340.194 20.5988 339.703 20.2557 339.211 19.8896C338.587 19.4287 337.995 18.9514 337.433 18.4668ZM311.863 12.5723C310.891 9.66177 309.617 8.6178 308.636 13.2578C308.36 14.6307 309.772 22.4439 311.38 24.749C310.457 20.9016 311.423 16.2434 311.869 12.6387C311.867 12.6169 311.865 12.594 311.863 12.5723ZM1393.29 24.1289C1392.72 24.5022 1392.69 24.6258 1393.05 24.6523C1393.12 24.5139 1393.18 24.3777 1393.24 24.2451C1393.26 24.2068 1393.27 24.1667 1393.29 24.1289ZM321.767 11.9805C321.568 12.3876 321.411 12.7884 321.282 13.1709C320.265 15.9342 320.785 17.7755 317.304 15.6885C318.182 18.3044 319.082 20.9781 319.949 23.5537C321.985 23.019 320.574 17.378 322.398 17.1582C322.691 17.1271 323.075 17.2596 323.575 17.6133C324.131 18.017 324.933 24.415 326.232 21.9424C324.821 18.786 323.282 15.2769 321.767 11.9805ZM70.5391 19.4678C69.964 19.6149 69.392 19.7708 68.8242 19.9355C69.347 20.4946 69.8679 21.0539 70.3906 21.6064C70.3895 21.6073 70.3878 21.6085 70.3867 21.6094C71.2953 21.1035 71.1554 20.3513 70.5391 19.4678ZM1416.84 19.9873C1415.99 19.1266 1414.54 18.9221 1413.47 19.2568C1413.82 21.3189 1414.71 21.9703 1416.84 19.9873ZM1439.12 20.9854C1438.74 20.6734 1438.38 20.3607 1438.03 20.0479C1438.32 19.9805 1438.63 19.9121 1438.94 19.8428C1439 20.2229 1439.06 20.6048 1439.12 20.9854ZM256.746 10.2607C257.126 23.0687 262.176 21.9664 264.547 18.6299C265.869 16.7907 266.368 14.2812 264.871 12.9746C264.727 12.85 263.943 13.6443 262.853 14.2393C261.077 15.2118 258.496 15.6227 256.746 10.2607ZM1413.37 9.58496C1413.36 10.6804 1413.34 11.7654 1413.32 12.8047C1415.06 14.5826 1416.8 16.3751 1418.54 18.1602C1419.06 17.5423 1419.63 16.8211 1420.25 15.9873C1414.65 16.1679 1416.28 13.544 1417.14 12.1875C1415.76 11.2079 1414.44 10.0951 1413.37 9.58496ZM321.73 1.57422C320.063 4.87546 327.474 17.586 327.847 17.4561C331.938 15.7054 322.868 5.89798 321.73 1.57422ZM331.782 12.1182C332.235 16.4279 334.421 16.5529 335.479 16.6338C333.984 15.1084 332.76 13.5544 331.782 12.1182ZM343.398 14.8672C343.896 13.0483 343.103 5.63932 341.73 7.30176C341.584 7.49722 342.325 11.2782 341.897 12.1094C341.495 12.9273 339.914 10.4333 340.14 12.7891C340.387 15.1516 342.924 16.6595 343.398 14.8672ZM336.987 8.55566C334.682 6.0379 334.644 8.89628 333.978 10.0371C334.653 10.9485 335.458 11.9192 336.417 12.9287C337.245 13.8102 338.138 14.6088 339.056 15.3252C338.389 13.0615 337.707 10.8003 336.987 8.55566ZM1432.23 12.5781C1432.94 13.1505 1433.81 13.7218 1434.74 14.2832C1433.85 13.6338 1432.99 13.0594 1432.23 12.5781ZM1413.2 9.50488C1412.23 9.09545 1411.47 9.24509 1411.09 10.5498C1411.71 11.175 1412.33 11.8046 1412.96 12.4355C1413.03 11.4591 1413.12 10.479 1413.2 9.50488ZM1375.83 5.87598C1373.23 4.11397 1368.89 4.31254 1367.85 6.18555C1368.31 6.95124 1369.76 8.14878 1371.41 9.21289C1371.64 9.02627 1371.86 8.85501 1372.07 8.68359C1373.02 7.93421 1373.72 7.41032 1374.24 7.02637C1374.93 6.52232 1375.42 6.16919 1375.83 5.87598ZM311.441 6.56738C311.435 6.01396 311.305 5.79868 311.368 6.76465C311.405 7.02633 311.434 7.3691 311.497 7.83105C311.469 7.31317 311.449 6.88174 311.441 6.56738ZM406.08 -0.129883C407.319 1.60221 407.941 2.62832 408.363 3.34961C408.304 3.35866 408.243 3.36959 408.182 3.38477C407.905 3.55523 409.332 5.60555 405.838 6.2041C403.255 6.9363 401.541 4.17846 398.326 3.25391C398.993 2.25064 399.869 0.835414 399.894 0.0605469C400.854 0.370833 401.599 0.258333 402.161 -0.129883H406.08ZM408.363 3.34961C409.503 3.17499 410.124 4.1135 410.296 5.02832C410.375 5.48045 410.354 5.95914 410.025 5.76562C409.849 5.6484 409.611 5.37712 409.056 4.48926C408.832 4.16537 408.64 3.82236 408.363 3.34961ZM354.272 0.268555C354.54 1.27903 354.681 2.20332 354.721 3.04492C354.024 3.29183 353.238 3.55178 352.355 3.82715C352.969 2.63006 353.606 1.44191 354.272 0.268555ZM398.15 -0.129883C397.955 0.300626 397.427 2.22601 397.088 3.00781C396.854 2.98181 396.613 2.96864 396.363 2.96484C395.92 2.53318 395.689 2.00588 395.456 1.69141C395.811 1.08673 396.179 0.480359 396.535 -0.129883H398.15ZM1440 0.682617C1439.73 0.411618 1439.46 0.140077 1439.19 -0.129883H1440V0.682617ZM399.878 -0.129883C399.89 -0.0720227 399.896 -0.00818262 399.894 0.0605469C399.734 0.00903373 399.569 -0.0544391 399.397 -0.129883H399.878Z" fill="url(#paint0_linear_206_54)"/>
<defs>
<linearGradient id="paint0_linear_206_54" x1="795.09" y1="-65.953" x2="795.09" y2="124.237" gradientUnits="userSpaceOnUse">
<stop stop-color="#D9C6A8"/>
<stop offset="1" stop-color="#DFD0B8" stop-opacity="0.42"/>
</linearGradient>
</defs>
</svg>
