<svg width="393" height="707" viewBox="0 0 393 707" fill="none" xmlns="http://www.w3.org/2000/svg">
<path d="M149.43 0.0264893C163.903 -0.339586 173.648 3.17105 182.035 5.69348C184.66 6.52276 187.01 7.35581 189.296 8.19641C186.871 7.84833 184.396 7.50803 181.684 7.17493C178.612 6.85792 175.468 6.55745 172.086 6.3009C175.299 7.062 178.613 8.1018 181.222 9.12122C187.175 11.4678 189.816 13.4631 180.442 12.4054C179.872 12.355 179.278 12.3019 178.609 12.2335C179.186 12.5099 179.728 12.7845 180.286 13.0665C183.173 14.4776 185.655 15.9308 188.311 17.3751C190.358 14.25 205.708 19.2982 207.647 17.8224C209.682 16.3309 201.082 13.7613 201.153 13.6066C201.713 12.6916 207.487 14.6841 214.18 17.4718C213.927 17.2557 213.591 16.9582 213.079 16.4884L212.717 16.1613C212.085 15.3438 211.935 14.9043 211.772 14.4347C211.624 13.9749 211.515 13.5131 211.423 13.0197C212.148 13.7933 212.458 14.167 213.596 15.2345L213.914 15.5236C214.783 16.2502 215.039 16.3761 215.385 16.6066C215.696 16.8027 215.941 16.9432 216.167 17.0675C216.626 17.3193 216.974 17.4834 217.334 17.6456C218.023 17.9504 218.601 18.1511 219.156 18.3156C220.263 18.641 221.24 18.7981 222.303 18.9542C224.421 19.2591 226.915 19.5795 231.224 20.8771C232.339 21.2164 236.755 23.1018 242.131 25.1593L242.294 25.2296C252.978 28.9468 267.237 33.0853 266.695 29.4103C266.264 26.5152 254.621 24.5656 254.35 23.9464C252.842 20.4116 260.02 19.5759 264.995 22.7394C263.472 22.752 261.67 22.6658 260.047 22.6368C270.981 30.5002 267.046 14.8623 272.417 29.2521C273.082 31.0187 272.159 32.2476 273.535 34.379C274.126 33.938 272.339 31.6092 274.409 32.0997C276.514 32.601 279.373 36.8204 280.758 34.7081C282.8 31.6456 273.988 29.8066 273.425 29.3702C273.411 29.3879 273.397 29.4063 273.384 29.424C268.461 25.5171 280.129 29.7142 280.795 29.6056C285.141 28.8694 283.23 26.2925 289.277 26.6339C289.765 26.6595 290.367 26.7671 290.999 26.9152C294.794 27.8096 301.174 30.7247 304.679 32.5099C308.503 34.3912 303.6 29.5068 306.294 30.672C309.17 31.9361 311.099 35.0401 313.3 36.2443C313.35 36.272 313.403 36.2959 313.454 36.3136C314.382 36.6224 315.41 35.2729 315.844 35.5363C320.661 38.4694 315.371 39.2391 319.401 42.2032C322.004 44.1019 332.655 48.2017 327.594 42.5909C330.61 44.5943 333.464 46.6104 336.452 48.7579C335.044 46.8271 333.497 45.0346 332.216 43.1095C334.441 45.5249 336.613 46.6732 338.697 47.5529C339.819 48.0256 340.902 48.405 342.014 48.9269C342.572 49.191 343.138 49.4898 343.773 49.9122C344.435 50.3699 345.035 50.7706 346.369 52.1281C346.957 52.7627 347.628 53.3998 349.035 55.423C349.72 56.4478 350.678 57.9375 351.625 60.3429C352.593 62.6741 353.151 66.0633 353.182 67.4591C353.039 68.1289 353.509 70.4938 352.061 76.0206C351.089 81.7154 343.288 89.916 338.037 91.0118C335.696 91.7797 334.937 91.7692 334.058 91.882C333.244 91.9572 332.611 91.9704 332.045 91.9738C330.9 91.9796 329.992 91.9419 329.109 91.9493C327.365 91.9583 325.815 92.1243 324.238 92.7179C322.536 93.3483 321.691 93.8281 321.505 94.1954C322.12 94.497 322.736 94.8003 323.354 95.0997C324.402 95.2309 325.833 95.2839 327.629 95.2179C328.645 95.1784 329.781 95.1049 331.167 94.9415C331.865 94.8577 332.637 94.752 333.626 94.5714C334.146 94.4749 334.683 94.3692 335.438 94.1866C336.223 93.9821 336.991 93.8285 338.925 93.09C344.704 91.6322 352.972 82.1199 353.603 76.1378C354.814 70.2853 354.143 68.0705 354.202 67.4318C354.142 66.1914 353.767 63.4895 352.986 61.2423C352.222 58.9613 351.311 57.2811 350.606 56.1154C349.179 53.82 348.367 52.9734 347.759 52.2511C346.585 50.933 346.051 50.4542 345.551 49.965C344.606 49.0659 344.04 48.5627 343.523 48.088C342.526 47.1765 341.886 46.5654 341.608 46.1935C340.849 45.1717 346.368 45.8946 347.801 47.1554C348.382 47.6532 348.973 48.1666 350.275 49.63C350.958 50.4426 351.808 51.3139 353.467 53.9308C354.268 55.2368 355.343 57.145 356.28 59.8605C357.239 62.5304 357.704 65.8564 357.753 67.3302C357.55 67.9986 358.183 70.7773 356.414 77.5402C355.164 84.5884 345.719 94.0633 339.887 95.3448C337.311 96.2345 336.472 96.2787 335.533 96.4484C334.67 96.5769 334.046 96.6333 333.48 96.6837C332.372 96.7775 331.569 96.8278 330.873 96.9279C329.851 97.059 328.894 97.1874 327.991 97.3126C329.556 98.0467 331.131 98.7731 332.719 99.4884C334.133 100.129 333.481 101.429 334.435 101.762C338.585 103.171 337.571 100.239 341.858 101.915C345.913 103.498 349.984 105.251 354.245 107.221C359.449 109.631 364.713 112.258 370.3 115.219C371.31 115.759 370.957 117.658 373.309 118.875C375.684 120.12 378.299 119.482 382.229 121.866C384.316 123.141 386.425 124.585 388.465 126.126C389.863 127.222 391.293 128.368 393 129.784V202.613C392.509 202.791 392.03 202.949 391.566 203.088C390.541 203.857 389.422 204.576 388.108 204.86C385.117 205.505 381.685 205.975 377.579 206.267C375.51 206.409 373.288 206.512 370.572 206.508C367.711 206.434 365.013 206.609 358.65 205.402C351.753 203.652 348.664 202.088 345.606 201.046C341.432 199.54 337.756 198.078 334.16 196.616C319.417 190.516 305.364 185.758 291.011 180.326C282.768 180.359 277.729 177.841 271.758 176.331C267.078 175.07 261.897 172.37 258.172 170.064C253.086 167.019 248.188 164.243 243.071 161.516C241.768 161.01 240.463 160.503 239.159 159.996C237.637 159.7 236.363 159.706 233.943 158.456C232.733 157.836 231.559 157.212 230.414 156.59C212.449 149.591 194.431 142.542 176.332 135.551C189.349 144.165 202.575 152.712 215.939 161.262C239.046 176.059 265.924 190.514 289.594 206.906C291.817 208.447 286.699 209.423 294.621 212.857C297.776 214.216 302.486 214.864 308.582 217.07C310.694 217.838 312.931 218.767 315.342 219.974C332.071 228.618 345.01 234.188 366.973 247.175C370.149 249.301 373.339 251.472 376.91 254.095C378.714 255.431 380.575 256.823 382.99 258.866C384.225 259.93 385.574 261.08 387.586 263.189C388.603 264.284 389.794 265.556 391.49 267.981C391.903 268.684 392.428 269.431 393 270.347V306.81C392.141 308.319 391.097 309.893 389.819 311.515C388.184 313.747 383.27 318.038 379.333 319.677C378.232 320.176 377.242 320.564 376.351 320.874C377.078 322.592 377.783 324.769 378.188 327.493C378.931 332.086 378 337.484 376.626 340.714C375.51 344.75 369.415 353.401 362.417 356.256C360.45 357.231 357.971 358.169 355.867 358.709C351.06 359.867 349.905 357.752 347.076 358.184C344.088 358.567 342.839 359.623 341.141 360.573C340.485 361.081 339.755 361.549 338.706 361.787C340.595 363.027 342.628 364.5 344.862 366.324C345.832 367.176 346.851 368.195 347.997 369.583C349.106 370.91 350.355 372.795 350.791 373.761C351.163 375.627 351.047 376.599 353.315 381.358C354.773 384.517 355.858 388.647 356.194 391.688C356.623 392.735 357.29 393.638 357.873 395.151C358.16 395.93 358.438 396.852 358.579 398.38C358.666 399.952 358.871 402.01 357.691 406.447C356.722 411.115 351.262 419.143 345.442 421.99C338.038 425.56 334.937 424.785 330.891 425.184C330.52 425.31 327.527 425.444 324.797 425.281C325.532 425.875 326.259 426.471 326.976 427.067C328.381 428.224 331.631 430.932 335.509 434.346C344.136 441.917 356.393 453.318 363.784 461.908C369.317 468.317 371.951 472.983 367.511 469.999C366.867 469.574 363.96 466.865 361.052 464.585C355.7 460.428 350.335 457.055 358.077 467.499C358.456 468.018 358.858 468.567 359.289 469.152C357.218 464.2 368.134 473.825 369.232 475.143C372.716 478.268 375.573 481.364 377.594 483.615C380.551 486.89 382.541 489.305 384.295 491.897C385.175 493.222 385.988 494.555 386.849 496.452C387.279 497.42 387.719 498.488 388.192 500.108C388.425 500.923 388.671 501.86 388.9 503.249C389.071 504.762 389.532 506.115 389.006 510.859C388.55 514.586 386.754 519.67 383.373 523.6C380.034 527.573 375.982 529.799 372.983 530.932C366.857 533.098 363.69 532.759 361.062 532.738C359.983 532.67 359.018 532.582 358.132 532.479C359.4 533.879 360.613 535.298 361.729 536.726C366.3 542.394 369.875 547.927 370.76 549.581C372.542 552.674 373.602 555.707 373.954 557.902C374.019 558.31 374.064 558.677 374.09 559.003C376.256 560.373 373.873 556.122 375.689 557.281C377.612 558.518 378.773 561.387 380.992 563.182C381.952 563.958 383.342 562.694 383.809 563.125C388.828 568.236 382.83 566.522 386.749 572.317C387.017 572.77 387.379 573.334 387.807 574.046C389.635 576.845 391.893 582.196 392.421 586.359C392.656 587.778 392.77 588.991 393 589.494V595.025C387.372 604.879 382.845 605.069 379.725 606.996C382.79 605.868 387.125 606.134 393 598.793V599.203C390.423 602.686 388.114 604.01 386.495 605.257C384.37 606.714 382.854 607.581 381.55 608.383C378.976 609.933 377.24 611.095 375.513 612.081C373.9 612.891 372.491 613.471 371.046 613.796C365.756 614.938 361.625 611.287 357.575 613.575C350.464 617.611 364.974 616.236 376.016 613.736C377.093 613.48 377.979 613.264 378.501 613.188C379.541 613.026 378.158 614.609 376.684 615.936C375.17 617.062 373.788 617.95 373.356 618.075C368.898 619.33 364.735 617.495 362.347 617.834C359.818 618.185 357.779 618.684 355.968 619.269C353.783 619.735 351.643 620.12 349.536 620.411C349.928 620.667 350.322 620.923 350.759 621.212C351.259 621.55 351.914 621.962 353.356 623.073C356.95 625.826 362.53 630.58 366.848 638.369C371.12 646.21 371.968 652.548 372.569 655.827C373.461 660.667 372.992 671.392 366.836 679.503C360.833 687.405 355.099 689.294 353.015 690.32C342.392 694.413 336.635 693.278 332.514 693.061C326.329 692.2 326.263 691.741 325.324 691.558C324.6 691.34 324.108 691.183 323.657 691.039C322.748 690.747 321.971 690.488 321.196 690.224C319.682 689.707 318.26 689.198 316.855 688.675C310.219 686.187 309.873 683.193 305.138 681.567C296.756 678.698 294.227 681.527 285.276 678.867C284.398 678.606 283.501 678.276 282.584 677.894C276.383 675.289 270.156 670.39 263.672 668.394C262.052 667.895 260.575 667.603 259.168 667.428C259.522 668.51 259.883 669.847 260.198 671.532C261.009 675.417 260.691 681.982 258.644 686.673C254.252 696.091 250.706 697.145 249.109 698.645C240.908 703.895 238.112 703.63 234.885 704.572C231.877 705.217 229.477 705.534 227.218 705.801C214.124 707.221 205.773 704.601 198.808 703.1C187.734 700.268 179.46 697.37 170.924 694.651C170.689 694.767 170.468 694.865 170.262 694.94C170.158 694.743 170.058 694.544 169.957 694.345C169.303 694.138 168.646 693.933 167.986 693.729C165.998 693.099 164.037 692.476 162.103 691.864C160.037 693.419 158.85 692.041 154.301 689.448C152.604 688.938 150.923 688.443 149.263 687.971C149.194 688.034 149.125 688.101 149.059 688.172C148.253 689.012 147.557 690.363 145.876 689.443C144.727 688.911 143.013 687.557 141.174 685.815C139.752 685.465 138.345 685.138 136.955 684.835C129.061 683.118 120.68 681.872 112.42 681.047C112.367 681.115 112.311 681.185 112.255 681.254C111.632 682.019 110.811 682.876 109.642 683.72C108.164 684.782 105.968 685.823 103.434 686.161C97.9623 686.787 94.5437 684.851 92.2734 683.323C92.0279 683.268 91.7606 683.206 91.4922 683.151C92.6413 688.724 80.5951 676.935 73.8037 670.975C72.9979 670.273 72.258 669.652 71.5479 669.088C71.3695 668.945 70.9118 668.725 70.1113 668.285C69.6945 668.046 69.2245 667.798 68.3721 667.146C67.9196 666.777 67.4147 666.416 66.3438 665.2C65.8135 664.572 65.0711 663.685 64.1582 661.987C63.2315 660.382 62.3859 657.42 62.2402 656.216C62.0541 655.71 61.411 654.41 61.5303 650.516C61.6381 648.583 62.1024 645.67 63.8652 642.545C65.0845 640.319 66.9515 638.341 68.8223 636.895C68.9866 635.346 69.1916 633.705 69.4561 631.941C69.9592 628.942 70.4041 625.771 72.2891 620.255C72.9336 618.649 73.4795 616.899 74.6982 614.553C74.1296 614.729 73.4615 614.941 72.6777 615.194C71.6952 611.598 68.2133 610.203 67.6699 606.766C67.2891 606.623 66.9073 606.48 66.5264 606.336C64.8526 607.15 63.5775 606.325 62.0664 605.296C60.7142 604.377 59.1987 603.307 56.9961 603.053C51.8991 602.502 44.3994 608.469 47.0771 599.503C44.9422 599.537 37.5193 597.385 33.7852 595.656C33.0609 595.359 32.4959 595.105 32.208 594.954C29.8871 593.723 29.5192 592.808 29.4092 592.079C29.2488 591.294 29.4305 590.828 27.0908 589.263C26.6879 588.98 26.4309 589.286 25.6777 589.176C25.2963 589.112 24.7943 588.958 23.9707 588.396C23.133 587.74 21.9894 587.1 19.8516 583.83C19.6897 583.574 19.5267 583.299 19.3516 582.982C18.9565 582.23 17.9782 580.659 16.6611 577.582C16.0271 575.955 15.1787 574.158 14.6523 570.295C14.4726 568.318 14.1609 565.552 15.7041 561.345C17.0909 557.061 22.0935 552.661 25.7588 551.617C32.096 549.346 39.8171 547.874 41.3691 547.944C43.5669 547.97 45.7472 548.116 48.1211 548.635C49.9381 549.206 50.3836 549.579 50.293 549.75C50.1704 549.927 49.4283 549.911 48.001 549.838C38.4127 549.583 31.9999 552.804 30.1064 554.39C29.397 554.084 28.6861 553.78 27.9258 553.508C27.4471 553.606 27.0073 553.723 26.6406 553.841C21.4929 555.465 18.549 560.573 18.2715 562.336C17.786 564.341 18.1584 564.744 18.6074 564.373C19.1087 563.997 19.7983 562.69 21.3975 560.95C22.9491 559.188 25.7471 557.557 27.9688 557.192C28.506 557.289 29.0422 557.344 29.5332 557.335C32.5372 557.273 37.1988 554.093 40.2744 554.934C41.7725 555.379 41.731 560.159 38.2793 560.378C42.2642 560.987 37.8078 563.631 39.5898 564.653C40.3168 565.181 43.8398 564.654 46.4902 564.992C50.7555 565.776 55.9702 567.231 56.4512 565.776C53.6386 564.721 50.0496 563.674 47.0889 563.095C46.9507 562.882 46.8335 562.654 46.7471 562.415C46.3254 561.346 46.224 559.969 47.1289 558.585C48.4889 555.921 51.9646 553.508 55.957 552.392C56.0421 552.458 56.1466 552.534 56.2637 552.619C56.2617 552.595 56.2588 552.57 56.2568 552.546C56.1676 552.478 56.0908 552.421 56.0264 552.374C56.0968 552.355 56.1685 552.338 56.2393 552.319C56.1484 551.173 56.0721 550.004 56.001 548.799C56.0813 546.556 57.3957 544.622 58.3086 543.784C59.2537 542.879 60.0023 542.473 60.583 542.153C61.7857 541.53 62.5805 541.27 63.3584 541.004C64.8737 540.508 66.1114 540.203 67.3594 539.904C70.0453 539.283 69.8966 537.62 72.585 537.093C75.9898 536.434 79.021 536.289 82.0771 536.223C88.2387 536.229 91.299 537.713 94.9209 538.766C94.9053 538.712 94.8896 538.658 94.874 538.605C90.0371 536.214 85.1833 533.834 80.3184 531.472C72.8247 527.83 65.3859 524.302 57.8711 520.824C49.8739 516.969 44.3397 515.169 31.3594 507.9C28.5328 506.192 25.6953 504.454 22.3232 502.195C20.6008 501.028 18.83 499.826 16.2773 497.812C14.9611 496.748 13.5357 495.619 11.2119 493.294C10.0432 492.092 8.64962 490.659 6.67969 487.949C4.95256 485.258 1.9179 481.743 0 472.645V452.353C0.783164 449.091 2.21161 445.233 4.86035 440.705C6.32334 438.07 11.2597 432.198 16.1328 429.344C20.9475 426.365 24.3146 425.468 26.5146 424.845C30.8764 423.754 32.4315 423.74 33.9443 423.562C36.2267 423.296 39.5911 423.092 43.3477 423.057C43.2897 422.34 43.2445 421.596 43.2148 420.824C43.1803 419.454 46.0546 414.288 47.1133 412.943C46.9001 414.18 46.5707 415.611 46.3154 416.999C49.9199 410.552 49.0068 412.242 50.2383 413.603C50.9876 414.439 51.6053 411.219 52.4863 410.657C53.6298 409.936 58.1994 408.144 55.5264 412.273C56.0775 411.601 56.6001 410.954 57.1406 410.297C59.6415 410.72 62.2888 410.674 65.0342 410.485C65.5131 410.452 66.1934 409.079 66.6777 409.047C67.991 408.961 68.3749 410.282 69.5029 410.681C70.1229 410.901 70.964 409.343 71.6699 409.827C72.3751 410.315 71.3228 412.462 73.4795 410.645C74.1225 407.603 76.1608 411.09 77.3145 411.482C77.4746 411.536 79.9362 409.777 80.4805 410.407C81.0107 411.027 81.2932 413.114 82.7588 412.78C83.4528 412.626 84.6945 410.908 85.2842 411.082C85.6946 411.206 85.2971 413.101 85.7314 413.423C86.1665 413.741 87.8777 412.924 88.0781 412.995C88.7952 413.263 87.4633 414.035 87.8887 414.34C89.9807 415.794 92.2233 417.805 94.8105 418.217C95.1269 418.269 95.4739 416.708 95.5352 416.671C98.2436 415.994 96.3338 417.243 96.1816 418.738C96.0913 419.583 97.3666 420.371 98.6973 420.404V417.201C93.7038 412.711 90.7038 409.14 94.3496 409.551C94.7806 409.594 96.7348 410.627 98.6973 411.458V408.136C96.8209 407.798 94.1158 406.421 93.7305 406.294C93.2408 406.127 92.7754 405.973 92.333 405.832C82.379 402.642 83.1193 405.065 75.8184 400.191C67.9838 398.061 60.1022 395.426 55.1807 392.352C62.5802 394.603 65.2616 394.926 69.7529 395.867C68.7298 395.109 67.6126 394.274 66.3906 393.352C61.0824 389.329 55.6927 385.253 50.0312 380.761C43.6299 375.575 35.577 369.324 28.0605 359.551C22.2628 351.396 16.8904 345.55 12.1475 329.077C11.2582 325.162 10.7511 321.009 11.0234 316.19C11.1768 313.756 11.5026 311.164 12.3721 308.026C13.4142 304.827 14.1836 301.281 19.209 295.321C25.0399 289.127 29.4929 287.848 32.5332 286.673C35.6439 285.636 37.8031 285.27 39.7109 284.977C43.4572 284.446 46.0955 284.401 48.5342 284.38C53.3071 284.376 57.2049 284.697 60.4072 284.918C65.6158 285.406 67.3852 286.161 69.2686 286.689C69.4503 286.746 69.6269 286.807 69.7988 286.863C69.3206 285.493 70.6974 284.97 69.3604 283.156C62.4589 284.269 57.9907 281.587 51.9629 272.142C51.849 271.962 51.7329 271.779 51.6162 271.593C46.0341 271.629 48.3934 269.748 41.959 264.953C37.3862 261.543 28.1599 257.574 23.9805 251.409C20.9957 248.698 18.2452 245.802 15.7109 242.637C14.17 240.707 12.7168 238.68 11.418 236.593C10.7723 235.552 10.1347 234.477 9.63086 233.453C9.37504 232.939 9.13735 232.429 9.05371 232.008C9.04461 231.581 8.77738 231.281 11.3877 231.938L18.0488 232.944C15.8745 231.748 13.7092 230.407 11.5566 228.909C9.76111 227.656 10.1932 221.172 11.0713 219.301C12.1137 220.574 13.1041 222.097 14.2031 223.538C14.6901 217.314 14.7687 217.109 16.8887 217.598L15.998 217.463C16.0626 217.641 16.6635 218.255 17.4541 218.939C19.6101 220.809 19.4656 216.711 21.2754 216.717C23.6278 216.719 33.5917 218.601 29.248 222.031C30.2377 221.593 31.1317 221.137 32.1064 220.713C35.9242 222.643 39.7803 224.367 43.7236 226.006C46.0246 226.951 48.4114 227.902 50.7627 228.799C51.8847 229.233 52.7974 227.861 53.9336 228.305C56.9744 229.477 58.489 231.795 61.3008 233.481C62.8398 234.405 64.0755 232.941 65.9541 234.348C67.8234 235.751 66.3783 237.877 70.5459 237.309C70.5904 233.619 76.4536 239.98 79.4453 241.994C78.4664 241.055 77.7656 240.36 77.5684 240.157C75.4838 237.989 79.4977 236.66 77.3252 235.414C73.6019 233.252 71.9705 240.537 72.4688 229.64C69.6074 230.467 69.4715 229.773 68.416 228.49C68.1443 228.157 67.8046 227.779 67.3379 227.376C67.044 227.13 66.2659 228.685 66.1025 228.622C61.7756 226.96 66.4259 226.462 66.5029 226.304C67.9278 223.704 63.3919 221.89 62.7803 221.054C58.8495 215.725 55.5053 211.168 51.917 206.789C43.7266 201.523 35.6963 195.645 27.8057 188.695C20.9668 182.251 14.4517 177.152 6.0752 163.066C4.01921 159.058 1.09179 153.861 0.958008 144.636C0.955857 140.304 2.22786 135.128 4.53906 131.25C6.62823 127.708 9.24617 125.169 11.835 123.319C16.0352 120.498 20.2332 119.345 23.0068 118.971C26.2551 118.437 28.6868 118.517 31.1504 118.672C37.0684 119.143 35.6551 127.951 33.8242 130.844C31.1679 129.763 27.7495 128.643 23.9629 128.374C24.1812 134.229 25.0711 135.975 23.8086 137.818C23.194 138.866 22.1401 139.667 21.3037 142.102C20.5071 144.471 20.9512 147.814 22.8369 150.933C24.9801 154.381 26.2248 153.959 26.9648 153.11C27.7881 152.263 28.506 151.026 30.1689 151.826C34.3425 154.594 55.5171 161.676 48.5938 165.285C50.405 165.007 52.0781 164.688 53.7695 164.343C54.7651 164.836 55.763 165.319 56.7617 165.795C58.1417 164.926 59.8482 163.486 62.3223 162.67C63.74 162.214 65.5453 161.923 67.873 162.528C69.9728 162.991 74.1763 165.377 75.0898 169.626C72.9004 165.441 70.1854 164.867 68.876 164.469C67.5274 164.178 66.6257 164.301 65.8398 164.493C64.2777 164.912 62.9307 165.653 60.6162 166.569C60.3384 166.569 59.8136 166.69 59.127 166.906C65.7356 169.966 72.4123 172.691 79.1484 175.224C79.2819 175.073 79.4172 174.92 79.5547 174.768C80.8711 173.325 82.3647 171.756 84.665 169.902C87.0733 168.145 89.9071 165.545 97.209 163.94C98.6805 163.691 100.057 163.529 101.362 163.428C101.139 162.924 100.982 162.078 99.7041 161.352C97.4914 160.091 91.2936 160.325 91.9697 155.708C93.9767 158.111 95.0104 156.574 98.3057 158.203C98.9478 158.527 102.29 161.55 105.33 163.293C106.226 163.299 107.099 163.328 107.961 163.369C109.202 163.45 109.832 163.599 110.188 163.784C110.204 163.76 110.222 163.736 110.236 163.711C111.256 161.952 107.083 160.495 107.222 160.122C108.036 157.959 111.466 157.617 112.275 159.647C111.62 159.617 110.886 159.521 110.204 159.465C111.617 164.471 116.413 154.942 112.741 163.757C112.521 164.293 112.188 164.739 111.873 165.213C112.465 165.426 113.386 165.632 114.806 165.912C114.772 164.815 113.164 164.057 113.121 163.854C113.108 163.864 113.094 163.875 113.081 163.885C112.603 161.408 115.83 164.22 116.163 164.17C118.311 163.815 118.567 162.229 120.989 162.541C122.367 162.718 124.139 165.024 125.096 165.552C126.051 166.07 125.744 163.996 126.454 164.269C127.164 164.543 127.13 165.869 127.962 166.193C128.321 166.327 129.299 165.241 129.462 165.317C131.192 166.143 128.245 167.572 129.601 168.566C130.482 169.207 135.073 169.546 133.797 167.239C134.884 167.832 135.884 168.448 136.925 169.078C136.858 168.869 136.784 168.665 136.708 168.464C135.001 167.197 133.298 165.898 131.604 164.559C130.659 163.806 129.726 163.053 128.803 162.296C127.057 161.638 125.156 160.794 123.155 159.46C124.25 159.753 125.344 160.041 126.436 160.329C122.795 157.262 119.26 154.069 115.653 150.479C114.831 153.59 110.032 153.589 102.72 148.866C93.7813 143.059 100.725 145.112 97.6396 139.828C97.2211 139.159 86.3677 129.919 84.7432 130.943C87.5839 127.894 85.976 122.217 90.9385 120.537C91.6698 120.296 96.225 123.87 96.5605 119.889C96.7416 117.898 96.5498 113.139 98.1973 111.622C96.3528 112.173 94.3696 112.858 92.4668 113.444C85.4026 108.859 85.1647 106.763 83.1953 101.966C83.1086 101.932 83.021 101.898 82.9346 101.864C82.5733 103.526 82.8017 108.923 78.6436 104.115C78.4188 103.831 79.2558 102.231 77.0459 99.4952C76.975 99.4073 76.9049 99.3193 76.8359 99.2335C72.1959 96.7222 71.297 94.2139 67.0537 92.5909C59.7851 89.8226 56.5817 91.0979 50.5469 89.9396C49.1373 89.6594 47.6055 89.2646 45.9111 88.6945C45.452 88.539 44.9927 88.3688 44.5352 88.1866C47.9279 91.1941 46.3636 94.411 47.6143 96.5568C50.8599 102.129 73.0028 118.168 56.2822 99.5011C59.4376 101.25 62.4974 103.248 65.6182 105.024C60.2261 113.778 60.8524 109.223 73.8066 120.684C76.6658 123.205 75.0594 127.613 81.165 125.427C77.707 129.418 88.6527 133.404 89.1465 134.529C92.2508 141.876 68.5425 131.926 71.4102 122.458C65.9118 122.909 68.7105 119.034 64.5527 116.751C58.5583 113.452 57.2429 113.636 52.8955 105.976C43.5491 105.23 76.5354 126.287 53.6338 117.492C47.4673 115.124 34.7328 107.52 19.2002 97.379C12.8799 93.2158 7.14081 89.5273 0 84.6866V63.1417C0.581153 63.5019 1.12976 63.7885 1.64648 64.0304C4.19817 65.2436 5.4371 64.8524 7.11914 64.42C7.94311 64.1566 9.55192 65.0134 11.3057 66.2521C11.5907 65.1624 13.1114 62.2826 13.6084 62.1632C18.0763 61.1915 18.2251 68.8186 15.5938 69.6945C16.1124 70.1508 16.5749 70.571 16.9531 70.92C18.9989 69.946 21.7599 68.2444 25.1729 65.0157C26.026 64.2458 26.8139 63.3857 27.5381 62.4601C26.4238 61.706 25.1958 60.8834 23.8438 59.9894C23.1549 59.5412 21.7309 60.93 20.2852 60.1798C17.5397 58.7442 18.8756 56.8975 16.3838 55.6769C15.2791 55.1415 13.5204 54.817 11.9941 54.2745C11.0716 55.0175 10.2912 55.5009 9.65918 55.8253C9.2495 55.5415 8.99364 55.2895 8.94141 55.0851C8.87424 54.8048 9.13892 53.7555 9.32812 52.5343C9.14647 52.2914 8.99117 52.0243 8.87207 51.7335C9.06418 51.6075 9.26551 51.4648 9.47559 51.3038C9.4955 51.0349 9.50697 50.7665 9.50391 50.505C9.51453 49.7702 9.39685 49.0811 9.08789 48.5773C9.54653 47.8662 10.2573 47.5639 10.9043 47.379C11.4693 47.2379 12.0606 47.2247 12.748 47.3624C13.4596 45.8818 13.7641 44.3983 13.8652 43.2784C15.5056 44.696 16.4672 45.9819 16.8779 46.2023C16.9401 46.2398 17.0027 46.2762 17.0635 46.3126C16.8511 47.1224 16.5736 47.9617 16.2256 48.7833C19.2411 50.4542 23.3864 53.7818 25.1074 56.4611C27.0152 55.6545 24.6204 52.1901 21.2051 48.3907C23.1467 48.9428 22.3396 47.2564 23.0986 46.6281C24.5413 47.909 26.1942 48.8839 27.3252 48.7599C28.018 48.6803 28.4634 48.4476 28.7061 48.1115C29.298 48.4041 29.9513 48.7403 30.6699 49.1261C37.9735 53.0492 20.0531 49.3481 32.0527 53.9884C32.318 53.2446 32.5588 52.5007 32.7715 51.7638C33.806 52.197 34.9318 52.6598 35.9121 53.0958C35.6742 54.2261 34.8047 54.5674 33.749 54.6271C34.4115 54.8704 35.1407 55.1334 35.9404 55.4152C40.1682 56.9033 42.7366 57.62 44.2793 57.7843C44.6727 56.8155 45.0654 55.8452 45.4648 54.8761C40.3068 51.7009 38.1828 51.9542 33.7227 47.588C34.1562 44.9853 34.2277 42.6962 33.9648 41.1339C33.9194 41.6836 33.8824 41.8052 33.7041 41.2013C33.5906 40.8271 33.3884 40.1084 33.0625 39.213C27.6332 36.8507 26.7218 39.2129 23.9375 34.0968C25.6092 39.6702 21.3169 35.0786 19.0566 35.2784C15.5032 35.5621 15.0548 36.5857 14.6328 36.9015C14.4056 37.0538 14.2102 37.039 13.6191 36.6661C13.3221 36.4794 12.9392 36.2067 12.3867 35.8195C12.1192 35.6293 11.8121 35.41 11.4023 35.1466C10.9598 34.8929 10.6618 34.5656 9.19727 34.1476C7.39324 33.5405 5.2255 32.1649 0 32.6945V10.8126C5.42409 10.123 9.05367 10.783 12.0908 11.0861C12.5025 11.147 13.3713 11.2999 14.0869 11.4581C14.4172 11.5299 14.7461 11.6064 15.0547 11.6827C15.3166 11.7473 15.5522 11.8082 15.7803 11.8693C16.6388 12.1007 17.0915 12.2404 17.5049 12.3654C18.2404 12.5895 18.7273 12.7467 19.127 12.8722C19.9486 13.1326 20.6413 13.3567 21.2666 13.5568C22.5648 13.9752 23.7567 14.3618 24.9639 14.756C27.3515 15.5351 29.7294 16.3198 32.0479 17.0851C36.6757 18.6127 41.3016 20.1546 45.7812 21.6525C54.7769 24.6623 63.3377 27.5523 71.2549 30.2423C86.4564 35.4022 98.9076 39.6928 105.938 42.0968C107.936 42.7803 109.9 43.4513 111.831 44.1115C111.711 43.8367 111.592 43.5576 111.476 43.2765C110.847 41.6401 109.68 39.1135 109.128 33.9532C108.435 28.938 110.058 20.7544 113.083 16.1261C119.298 6.91257 122.54 6.73135 124.38 5.34192C133.666 0.830848 136.636 1.31725 140.386 0.629028C143.852 0.222099 146.709 0.0990747 149.43 0.0264893ZM215.924 683.414C215.727 683.749 215.115 683.942 214.491 684.037C213.71 684.153 212.935 684.154 213.394 684.833C214.157 685.899 215.18 686.05 215.836 685.664C215.884 685.593 216.227 685.749 216.481 685.818C216.747 685.896 216.929 685.903 217.035 685.859C217.243 685.768 217.192 685.508 217.08 685.222C216.856 684.689 216.426 684.054 215.924 683.414ZM93.5508 681.49C92.2672 681.677 91.0698 681.914 90.2422 682.167C89.8423 682.29 89.5149 682.425 89.5537 682.506C89.5886 682.542 89.696 682.573 90.1729 682.505C90.424 682.466 90.7529 682.409 91.4111 682.232C91.7588 682.136 92.176 682.015 92.8242 681.787C93.0657 681.698 93.3231 681.603 93.6377 681.481C93.609 681.484 93.5796 681.487 93.5508 681.49ZM310.774 644.485C308.66 648.751 307.79 653.255 307.578 656.909C309.305 657.273 312.201 658.484 315.512 657.827C318.848 657.178 313.16 646.783 310.979 644.691C310.984 644.693 310.991 644.695 310.997 644.697C310.923 644.626 310.849 644.555 310.774 644.485ZM106.906 638.29C107.055 638.371 107.228 638.456 107.427 638.541C107.396 638.49 107.362 638.44 107.331 638.39C107.192 638.356 107.05 638.322 106.906 638.29ZM340.798 629.296C341.299 629.44 341.819 629.588 342.147 629.671C342.298 629.709 342.44 629.74 342.244 629.672C342.191 629.654 342.114 629.629 341.968 629.586C341.837 629.548 341.617 629.485 341.291 629.402C341.151 629.367 340.9 629.304 340.644 629.246C340.626 629.242 340.606 629.238 340.588 629.234C340.658 629.254 340.729 629.276 340.798 629.296ZM393 608.047C391.37 609.316 389.883 610.148 388.666 610.906C385.512 612.646 383.133 613.449 381.001 614.108C381.568 613.063 382.11 611.992 382.698 610.877C385.181 609.44 388.698 608.898 393 604.173V608.047ZM72.5977 608.603C72.6318 608.965 72.7613 609.351 73.0068 609.746C73.7322 610.909 75.4714 610.765 77.0537 610.234C75.5691 609.693 74.083 609.151 72.5977 608.603ZM370.409 583.343C370.295 583.642 370.302 583.735 370.308 583.787C370.317 583.835 370.343 583.825 370.367 583.788C370.416 583.712 370.459 583.535 370.473 583.317C370.475 583.278 370.475 583.237 370.476 583.196C370.454 583.243 370.431 583.292 370.409 583.343ZM367.468 577.406C366.067 578.718 364.762 579.482 364.386 579.716C364.336 579.746 364.285 579.778 364.234 579.808C359.492 582.429 357.089 582.582 355.104 583.123C354.491 583.259 353.939 583.377 353.437 583.485C358.28 583.665 363.158 583.784 366.773 583.325C368.027 583.135 369.223 582.87 370.072 582.607C370.196 582.57 370.311 582.53 370.414 582.495C370.363 582.207 370.279 581.89 370.156 581.555C369.958 580.994 369.57 580.238 369.073 579.454C368.746 578.906 368.195 578.206 367.468 577.406ZM89.1318 556.83C88.3513 555.907 88.6111 556.536 89.3652 557.889C89.404 557.76 89.4406 557.628 89.4775 557.498C89.3807 557.311 89.2672 557.089 89.1318 556.83ZM30.1064 554.39C31.1606 554.847 32.2071 555.316 33.334 555.777C30.2152 555.605 29.4756 555.141 30.1064 554.39ZM90.3467 552.358C90.2673 552.629 90.2052 553.399 90.1641 554.275C90.2533 553.639 90.3165 552.998 90.3467 552.358ZM55.835 552.296C55.6754 552.166 55.6484 552.099 56.0264 552.374C56.0035 552.38 55.9799 552.385 55.957 552.392C55.9121 552.357 55.8699 552.325 55.835 552.296ZM348.606 545.368C348.535 545.365 348.335 545.315 347.815 545.43C348.216 545.417 348.51 545.392 348.606 545.368ZM360.869 498.239C362.3 500.465 363.707 502.774 364.454 505.349C364.841 505.677 365.251 505.99 365.517 506.636C365.976 507.568 365.308 509.175 364.444 509.921C363.599 510.738 362.763 511.24 361.97 511.699C359.595 511.198 358.088 510.334 356.458 509.412C355.206 508.755 354.804 508.21 354.199 507.671C353.627 507.125 353.08 506.58 352.541 506.037C352.246 505.917 351.944 505.789 351.638 505.661C351.572 505.437 351.498 505.209 351.416 504.983C351.406 505.209 351.404 505.401 351.408 505.567C350.595 505.227 349.753 504.869 348.93 504.518C348.906 504.696 348.887 504.884 348.873 505.077C348.817 505.722 348.807 506.461 348.772 507.088C350.941 508.337 353.103 509.571 355.944 511.027C357.518 511.576 358.942 512.031 360.773 512.356C361.712 512.495 362.696 512.667 364.272 512.431C365.055 512.29 366.091 512.037 367.241 511.157C368.405 510.309 369.308 508.64 369.489 507.351C369.695 505.94 369.59 505.387 369.555 504.742C369.502 504.137 369.429 503.619 369.348 503.122C369.184 502.133 368.988 501.24 368.774 500.353C368.341 498.573 367.832 496.837 367.233 495C365.112 496.08 362.99 497.16 360.869 498.239ZM351.638 505.661C351.657 505.728 351.677 505.796 351.695 505.862C351.841 506.395 351.928 506.915 351.89 507.187C351.869 507.312 351.816 507.386 351.71 507.201C351.657 507.101 351.589 506.944 351.517 506.575C351.484 506.334 351.421 506.075 351.408 505.567C351.485 505.598 351.562 505.63 351.638 505.661ZM339.022 491.712C338.567 493.866 339.556 496.645 343.093 498.636C342.608 499.986 342.286 501.294 342.147 502.435C342.11 502.75 342.079 503.045 342.052 503.319C344.395 504.571 346.278 505.652 348.104 506.704C348.1 506.67 348.094 506.634 348.09 506.598C348.052 506.113 347.953 505.547 348.083 504.158C347.121 503.749 346.203 503.364 345.404 503.05C344.236 500.878 343.907 499.687 344.168 499.18C344.702 499.422 345.284 499.651 345.914 499.858C346.389 500.042 346.56 499.854 346.538 499.446C347.214 499.77 347.998 500.213 348.843 500.725C349.11 499.995 349.446 499.247 349.843 498.521C348.177 497.42 346.446 496.296 344.771 495.233C344.75 495.195 344.73 495.158 344.71 495.121C344.7 495.139 344.689 495.157 344.679 495.175C342.634 493.878 340.675 492.671 339.022 491.712ZM352.665 500.402C352.283 501.122 351.971 501.861 351.764 502.564C353.763 503.846 355.832 505.178 357.533 506.035C359.62 506.674 361.162 506.606 361.24 505.953C361.315 505.534 360.077 505.099 358.122 504.188C356.812 503.238 354.876 501.893 352.665 500.402ZM344.771 495.233C345.509 496.596 346.49 498.55 346.538 499.446C345.31 498.858 344.434 498.664 344.168 499.18C343.786 499.007 343.428 498.824 343.093 498.636C343.505 497.488 344.034 496.307 344.679 495.175C344.709 495.194 344.74 495.213 344.771 495.233ZM346.195 492.893C345.846 493.344 345.517 493.814 345.21 494.297C345.979 494.883 346.86 495.519 347.878 496.212C348.767 496.81 349.561 497.337 350.263 497.801C350.453 497.493 350.654 497.192 350.865 496.901C349.38 495.642 347.698 494.215 346.195 492.893ZM328.505 477.552C330.728 479.844 334.077 482.421 339.372 485.824C340.649 486.666 342.017 487.551 343.493 488.524C342.174 488.26 340.98 488.706 340.144 489.567C341.126 490.707 342.238 491.909 344.124 493.443C344.497 492.831 345.129 492.636 345.851 492.592C344.445 491.345 343.229 490.209 342.537 489.41C344.103 490.38 345.541 491.273 346.857 492.09C346.715 492.252 346.576 492.417 346.439 492.585C346.864 492.593 347.301 492.619 347.72 492.625C349.407 493.673 350.884 494.587 352.164 495.382C352.246 495.302 352.328 495.223 352.412 495.147C352.499 495.064 352.588 494.986 352.675 494.907C351.595 494.115 350.445 493.259 349.275 492.369C349.604 492.199 349.864 491.925 350.014 491.483C350.15 491.115 349.864 490.434 349.421 489.627C348.855 490.085 348.286 490.599 347.719 491.174C344.23 488.465 340.755 485.564 338.593 483.197C337.449 481.94 336.625 480.804 336.488 480.019C334.108 479.128 330.805 478 328.505 477.552ZM318.74 482.681C318.936 485.681 320.389 490.228 323.254 493.312C325.826 493.986 328.455 494.328 331.016 494.839C331.031 494.842 331.047 494.846 331.062 494.85C331.26 494.972 331.459 495.094 331.656 495.216C331.357 494.907 331.054 494.593 330.745 494.277C326.976 490.471 322.921 486.573 318.74 482.681ZM349.275 492.369C348.848 492.591 348.302 492.633 347.72 492.625C347.439 492.451 347.15 492.272 346.857 492.09C347.011 491.915 347.167 491.744 347.327 491.577C347.456 491.439 347.589 491.306 347.719 491.174C348.238 491.577 348.759 491.977 349.275 492.369ZM357.028 485.85C356.529 485.978 355.978 486.133 355.371 486.324C355.028 486.444 354.655 486.584 354.26 486.748C355.179 487.982 355.964 488.952 356.524 489.47C360.432 493.165 359.768 490.312 357.028 485.85ZM56.4658 475.63C54.6765 477.283 53.0604 478.221 51.6182 478.637C50.3145 478.51 49.134 478.606 47.5703 478.423C47.0323 478.193 46.5506 477.896 46.1221 477.564C45.8349 477.722 45.5636 477.861 45.3105 477.984C44.3004 477.661 43.6998 477.138 42.9355 476.835C42.9569 477.265 42.9781 477.747 43.0049 478.283C43.0161 478.469 43.1098 478.656 43.249 478.841C43.1846 478.865 43.1223 478.887 43.0645 478.909C41.419 479.463 41.4277 479.498 41.4727 479.643C42.6514 479.775 43.6626 479.912 44.5586 480.048C45.4021 480.782 45.6609 481.329 42.1777 481.4C42.1818 481.405 42.1863 481.411 42.1904 481.417C43.6752 482.071 44.9057 482.5 45.9717 482.85C49.7264 484.116 51.3749 484.247 54.1582 487.448C54.2921 487.367 54.4311 487.287 54.5684 487.201C54.6802 487.136 54.7913 487.065 54.9033 486.995C54.8252 484.478 53.8402 482.396 54.5273 481.363C55.7952 481.423 57.0574 481.419 58.3047 481.334C58.0081 481.103 57.7129 480.89 57.4189 480.696C58.3865 480.772 59.6349 480.975 61.2344 481.32C61.6588 480.828 62.0478 480.352 62.3887 479.907C62.3105 479.281 62.2323 478.654 62.1494 478.023C60.2175 477.23 58.3447 476.457 56.4658 475.63ZM362.012 485.307C363.851 486.419 364.367 486.46 364.823 486.451C365.095 486.433 365.363 486.403 365.824 486.529C366.046 486.587 366.341 486.699 366.607 486.803C366.737 486.853 366.871 486.905 366.816 486.854C366.773 486.82 366.7 486.764 366.328 486.568C366.235 486.518 366.12 486.461 365.963 486.384C365.817 486.313 365.622 486.22 365.395 486.119C364.967 485.924 364.179 485.626 364.046 485.581C363.997 485.559 363.996 485.555 364.006 485.555C363.943 485.532 363.716 485.421 362.083 485.308C362.06 485.308 362.035 485.307 362.012 485.307ZM327.349 477.377C326.412 477.294 325.819 477.426 325.809 477.889C326.227 478.243 326.6 478.581 326.919 478.899C327.756 479.732 327.945 480.188 327.951 480.537C328.431 480.954 329 481.422 329.667 481.94C330.798 482.815 331.557 483.269 332.064 483.475C332.24 483.065 332.393 482.634 332.481 482.165C332.488 482.168 332.495 482.172 332.501 482.175C331.508 481.112 329.653 479.389 327.349 477.377ZM327.879 481.051C327.799 481.498 327.852 482.029 329.372 483.431C329.159 482.555 328.718 481.722 327.879 481.051ZM302.479 472.673C304.237 474.97 304.75 476.915 302.479 478.09V478.189C314.656 484.341 316.521 482.761 313.883 478.208C310.801 475.4 307.684 472.612 304.594 469.882C303.881 469.255 303.177 468.638 302.479 468.03V472.673ZM45.3105 477.984C45.5121 478.049 45.7308 478.108 45.9697 478.152C46.5511 478.28 47.0801 478.366 47.5703 478.423C47.8297 478.534 48.1029 478.629 48.3896 478.705C49.3466 478.967 50.4229 478.981 51.6182 478.637C52.0586 478.68 52.5137 478.748 53.002 478.861C54.4856 479.193 55.9392 479.721 57.4189 480.696C55.7274 480.564 54.892 480.816 54.5273 481.363C53.9145 481.335 53.2992 481.293 52.6846 481.234C49.6951 481.065 47.946 480.563 44.5586 480.048C44.1361 479.681 43.5684 479.265 43.249 478.841C43.7396 478.66 44.4202 478.419 45.3105 477.984ZM42.293 476.65C41.9451 476.589 41.5481 476.579 41.0693 476.647C41.0199 476.66 40.9953 476.684 41.0586 476.708C41.1299 476.73 41.2742 476.763 41.7412 476.724C41.8898 476.702 42.0648 476.685 42.293 476.65ZM44.5635 475.976C42.8884 473.818 42.6985 471.975 42.9209 476.523C43.3317 476.421 43.8609 476.256 44.5635 475.976ZM353.474 468.786C344.145 459.036 345.966 467.971 350.89 474.541C351.319 475.117 351.763 475.672 352.228 476.201C349.599 472.012 356.988 474.278 354.9 470.612C354.62 470.122 354.157 469.517 353.474 468.786ZM64.5576 474.254C64.4112 474.918 64.4283 475.562 64.6943 476.106C64.8279 475.84 64.9559 475.58 65.0771 475.324C64.8966 474.966 64.7192 474.609 64.5576 474.254ZM343.36 470.486C343.396 470.664 343.545 470.982 343.784 471.412C344.36 471.796 344.937 472.179 345.513 472.564C345.708 472.694 345.903 472.825 346.096 472.953C346.252 473.058 346.409 473.162 346.563 473.268C345.34 472.102 344.231 471.137 343.36 470.486ZM324.039 447.529C316.946 440.999 310.533 435.314 318.688 445.759C311.046 443.421 312.217 444.316 315.937 451.146C316.26 451.745 311.902 449.161 312.144 449.52C312.757 450.329 313.422 451.122 314.104 451.894C321.596 456.786 329.037 461.651 336.464 466.558C336.53 466.581 336.597 466.606 336.661 466.627C338.924 467.362 335.508 463.756 337.436 464.347C338.157 464.564 342.765 469.789 343.604 469.336C345.48 468.255 344.264 463.146 339.805 456.958C339.806 456.957 339.808 456.956 339.81 456.954C338.34 455.788 336.884 454.686 335.404 453.538C339.066 461.511 331.141 454.053 324.039 447.529ZM304.565 461.086C304.099 461.205 304.326 461.953 305.487 463.516C305.607 463.677 305.769 463.852 305.965 464.043C308.48 464.432 308.964 463.929 304.565 461.086ZM46.7891 449.397C46.0902 449.362 45.5654 449.411 45.3018 449.552C42.3631 451.063 44.0599 453.13 47.0469 455.015C46.971 454.228 47.5494 453.32 49.1387 452.167C48.6022 451.673 47.7505 450.663 46.7891 449.397ZM310.543 402.889C309.647 403.911 310.81 406.479 309.506 406.701C309.451 407.316 309.394 407.929 309.33 408.541C310.854 409.495 312.222 410.299 313.23 410.859C313.934 411.235 314.45 411.474 314.647 411.524C319.456 412.745 316.345 411.093 314 409.486C312.612 408.541 311.38 407.588 311.47 407.017C311.521 406.739 312.27 405.356 312.743 404.099C312.06 403.716 311.321 403.31 310.543 402.889ZM331.141 402.73C331.109 402.893 331.073 403.048 331.032 403.194C330.886 403.724 330.679 404.148 330.465 404.405C330.266 404.655 329.989 404.759 330.067 404.427C330.398 403.768 329.948 403.836 329.254 403.613C328.545 403.433 327.591 403.177 326.398 402.827C326.578 403.263 328.076 404.277 328.58 405.088C328.631 405.167 328.67 405.25 328.697 405.332C331.475 404.393 331.699 403.687 331.141 402.73ZM312.644 401.905C312.387 401.892 312.014 402.002 311.494 402.274C311.504 402.285 311.513 402.297 311.522 402.308C312.007 402.893 312.385 403.297 312.669 403.593C312.737 403.662 312.8 403.726 312.857 403.784C313.079 403.137 313.201 402.553 313.079 402.214C312.925 402.11 312.779 402.006 312.644 401.905ZM326.299 402.716C326.259 402.856 326.286 402.854 326.313 402.797C326.346 402.732 326.38 402.605 326.408 402.447C326.349 402.572 326.322 402.656 326.299 402.716ZM326.815 395.915C326.78 395.928 326.739 395.936 326.692 395.945C326.662 396.053 326.627 396.168 326.585 396.288C326.46 396.232 326.327 396.16 326.197 396.06C325.627 396.227 324.681 396.673 323.113 398.192C322.419 398.987 321.978 399.58 321.687 400.026C322.305 400.101 322.976 400.173 323.67 400.234C323.656 400.469 323.637 400.713 323.611 400.943C323.71 400.757 323.845 400.534 324.03 400.266C324.275 400.286 324.525 400.306 324.773 400.322C325.293 400.358 325.826 400.38 326.326 400.391C326.275 400.15 326.212 399.918 326.139 399.709C326.094 399.594 326.036 399.466 325.973 399.337C325.905 399.248 325.835 399.156 325.769 399.064C325.677 398.95 325.624 398.826 325.6 398.699C325.578 398.669 325.557 398.637 325.535 398.609C325.551 398.594 325.568 398.581 325.584 398.568C325.573 398.275 325.698 397.967 325.869 397.694C325.95 397.562 326.028 397.433 326.101 397.308C325.632 397.278 325.218 397.223 325.044 397.144C324.749 397.019 325.02 396.858 325.824 396.59C326.047 396.512 326.327 396.415 326.576 396.311C326.579 396.303 326.582 396.296 326.585 396.288C326.592 396.291 326.6 396.294 326.607 396.297C326.768 396.229 326.915 396.159 327.02 396.084C327.137 395.995 327.195 395.878 326.815 395.915ZM310.69 396.909C310.584 397.245 310.492 397.547 310.385 397.834C310.184 398.552 310.072 399.11 310.001 399.569C310.12 399.856 310.226 400.093 310.312 400.267C310.493 399.128 310.48 397.858 310.783 396.943C310.753 396.932 310.721 396.921 310.69 396.909ZM323.89 398.272C324.068 397.805 324.509 397.757 325.284 398.352C325.364 398.408 325.45 398.499 325.535 398.609C325.259 398.853 324.944 399.151 324.59 399.516C324.365 399.798 324.181 400.048 324.03 400.266C323.91 400.256 323.789 400.245 323.67 400.234C323.671 400.217 323.673 400.198 323.674 400.181C323.791 399.747 323.695 398.692 323.89 398.272ZM321.111 392.835C319.895 393.069 319.307 393.501 318.969 393.818C319.068 395.67 318.932 397.497 319.176 399.371C319.431 398.734 319.844 397.842 321.09 396.376C322.306 395.055 323.301 394.336 324.06 393.896C323.881 393.703 323.756 393.391 323.698 392.863C323.613 392.86 323.527 392.856 323.44 392.853C323.257 393.542 323.051 393.76 322.818 393.746C322.35 393.724 321.774 392.702 321.111 392.835ZM335.551 388.762C334.848 389.617 333.826 389.91 332.02 388.829C331.588 389.288 331.133 389.829 330.655 390.349C329.402 391.882 327.521 392.276 326.886 392.134C326.851 392.172 326.82 392.209 326.793 392.243C326.793 392.241 326.793 392.238 326.793 392.235C326.63 392.441 326.484 392.646 326.351 392.846C327.421 393.412 328.496 394.016 329.517 394.666C329.911 395.508 330.243 396.313 330.502 397.044C332.791 397.579 333.224 399.434 333.288 395.023C334.243 396.201 335.285 397.327 335.751 399.263C336.715 394.709 337.813 394.179 339.912 391.936C339.97 391.795 340.027 391.651 340.08 391.498C339.917 391.665 339.758 391.81 339.606 391.941C337.481 392.816 336.995 392.655 336.795 391.984C336.693 391.19 336.369 389.776 335.551 388.762ZM315.512 395.125C315.819 395.317 316.075 395.479 316.172 395.584C316.244 395.707 316.272 395.721 315.175 395.701C315.535 395.776 315.899 395.851 316.25 395.925C316.245 395.332 316.213 394.735 316.208 394.148C315.992 394.122 315.769 394.095 315.546 394.069C315.534 394.42 315.522 394.772 315.512 395.125ZM315.546 394.057C316.156 394.105 316.367 394.153 316.482 394.16C316.601 394.172 316.553 394.145 316.444 394.093C316.265 394.009 315.94 393.864 315.559 393.69C315.554 393.812 315.55 393.935 315.546 394.057ZM313.007 392.466C312.574 393.067 312.228 393.603 311.944 394.085C312.474 394.055 312.784 393.865 312.809 393.45C312.959 393.545 313.112 393.638 313.261 393.732C313.28 393.314 313.245 392.92 313.18 392.55C313.123 392.522 313.064 392.494 313.007 392.466ZM326.322 392.889C326.334 392.884 326.344 392.884 326.351 392.88C326.361 392.874 326.356 392.87 326.336 392.868C326.331 392.875 326.327 392.882 326.322 392.889ZM79.6309 367.627C79.5239 368.031 79.3899 368.51 79.2051 368.91C81.4001 369.607 83.9037 370.755 87.8574 373.661C88.4387 374.091 88.1367 374.407 87.9268 374.814C89.2886 375.783 90.7989 377.073 92.0879 377.969C91.0321 376.154 89.9864 374.271 88.9551 372.419C87.7519 371.483 86.4895 370.56 85.2939 369.74C82.7908 368.748 81.155 368.222 79.6309 367.627ZM70.1094 362.008C69.7582 362.92 69.4665 364.11 69.3027 365.386C72.4858 367.098 74.6098 367.681 76.5967 368.191C76.4163 367.91 76.2232 367.585 76.0205 367.211C75.932 367.044 76.0651 366.622 76.2852 366.055C74.7362 365.193 72.8538 363.969 70.1094 362.008ZM51.4648 350.315C51.5802 350.661 51.8931 351.067 52.3174 351.526C52.6619 351.493 52.9676 351.438 53.2275 351.357C52.6343 351.009 52.0475 350.659 51.4648 350.315ZM285.38 322.259C288.257 325.964 290.918 329.874 293.347 333.965C294.853 334.277 296.789 334.57 296.617 331.827C296.552 330.911 293.923 330.017 294.652 328.883C294.804 328.673 298.167 329.261 298.338 329.687C300.496 334.974 293.198 335.434 303.497 337.559C303.783 337.612 304.362 336.185 304.951 336.166C306.073 336.139 305.541 337.842 306.568 337.762C307.604 337.681 309.517 335.8 310.271 338.368C311.754 343.084 304.921 343.343 302.996 340.349C302.703 340.869 302.67 341.423 302.854 341.993C307.064 344.463 311.31 346.932 315.606 349.392C318.959 350.137 320.493 350.094 321.974 350.17C323.432 350.204 324.348 350.137 324.598 350.056C330.244 348.055 320.803 349.244 319.934 347.578C319.595 346.892 320.508 339.164 317.005 343.813C315.742 345.167 319.834 347.771 317.181 348.251C316.218 348.396 315.556 348.169 315.294 347.868C315.042 347.34 315.545 346.381 315.475 346.254C315.103 345.609 312.966 345.945 312.803 345.554C310.402 339.669 312.478 332.514 314.709 344.616C316.805 343.07 314.774 339.507 315.32 337.606C314.853 337.374 314.381 337.142 313.908 336.905C311.707 335.811 309.313 334.605 306.708 333.26C305.716 332.759 300.033 330.073 297.554 327.509C297.325 327.814 297.069 328.265 296.778 328.909C296.87 328.244 296.985 327.673 297.114 327.014C296.949 326.807 296.808 326.601 296.696 326.399C295.494 326.572 294.908 326.15 294.609 325.485C294.255 324.68 294.331 323.516 294.263 322.632C290.947 324.093 291.113 325.138 285.38 322.259ZM40.6289 343.857C40.3276 345.194 39.7889 346.31 39.4502 347.193C39.5779 347.286 39.7072 347.38 39.8389 347.473C41.2785 348.393 42.7385 349.147 44.1465 349.746C44.9958 348.9 45.774 347.804 46.877 347.582C45.1826 346.566 43.549 345.583 41.9912 344.649C41.5059 344.36 41.0158 344.077 40.6289 343.857ZM40.8516 342.01C40.8462 342.634 40.7663 343.221 40.6475 343.772C40.7598 343.817 40.8914 343.87 41.0459 343.929C41.7358 344.169 42.8285 344.64 45.4688 345.082C45.5974 345.11 45.7334 345.134 45.873 345.156C45.463 344.634 45.1505 344.166 44.9102 343.737C44.1276 343.389 43.2878 343.032 42.3906 342.664C41.9496 342.437 41.4356 342.233 40.8516 342.01ZM338.328 328.296C337.105 327.911 335.878 328.015 334.43 328.161C336.792 330.936 335.421 331.331 334.763 332.067C333.756 333.174 336.392 332.97 336.42 333.161C336.603 335.892 334.942 336.401 338.798 336.148C337.929 337.145 337.062 338.15 336.185 339.138C337.611 339.131 338.54 339.529 339.362 340.175C340.303 340.87 341.117 341.847 342.377 342.866C339.671 337.737 342.806 340.883 344.604 337.876C345.343 336.406 341.214 330.63 340.363 329.651C340.365 329.651 340.367 329.652 340.369 329.651C339.639 328.959 338.985 328.539 338.328 328.296ZM58.1279 340.368C58.4506 340.79 58.7387 341.177 58.9951 341.529C59.1143 341.423 59.2341 341.314 59.3525 341.203C58.9615 340.935 58.5532 340.656 58.1279 340.368ZM301.153 340.731C300.512 339.153 299.878 339.487 299.141 339.809C299.857 340.231 300.576 340.655 301.295 341.077C301.256 340.966 301.213 340.848 301.163 340.727C301.16 340.728 301.156 340.729 301.153 340.731ZM327.819 331.446C327.855 331.844 327.904 332.237 327.965 332.621C328.491 336.287 329.551 338.748 330.341 340.328C334.723 339.716 331.838 337.941 331.946 334.028C331.98 333.047 335.008 331.728 330.781 332.32C330.742 333.413 330.613 334.855 330.41 335.868C329.711 335.396 328.651 333.137 327.819 331.446ZM52.165 322.416C52.2634 322.725 52.3778 323.063 52.4941 323.353C52.7883 324.104 53.1203 324.81 53.4395 325.421C54.0824 326.647 54.6748 327.504 55.1406 328.021C56.0922 329.068 56.5439 328.79 56.9463 328.026C57.0658 327.772 57.1925 327.478 57.335 327.165C56.2781 326.065 55.0339 324.883 53.7168 323.717C53.2105 323.311 52.6918 322.86 52.165 322.416ZM73.1289 318.156C74.9874 319.944 75.7216 321.048 82.2422 323.398C82.3605 323.244 82.2796 322.965 81.9463 322.524C81.8066 322.356 79.8256 321.312 77.3633 320.221C75.989 319.601 74.4881 318.896 73.1289 318.156ZM301.156 319.494C300.787 320.828 301.213 321.711 301.642 322.555C301.955 321.922 301.897 320.963 301.156 319.494ZM69.0449 313.294C68.2509 313.374 67.5642 313.473 66.9766 313.587C67.6235 314.006 68.2785 314.44 68.9453 314.893C68.6423 314.333 68.6344 313.794 69.0449 313.294ZM305.296 311.157C305.44 311.185 305.584 311.215 305.729 311.243C305.59 311.204 305.451 311.164 305.312 311.125C305.306 311.136 305.301 311.147 305.296 311.157ZM161.239 288.089C161.177 288.187 161.1 288.292 161.021 288.396C161.466 288.705 162.111 289.125 162.899 289.626C163.194 289.532 163.484 289.395 163.763 289.225C162.62 288.688 161.793 288.317 161.239 288.089ZM69.293 278.764C69.5291 280.317 68.4909 280.972 69.3164 283.033C69.904 282.87 68.7762 280.55 70.4775 281.543C72.1855 282.553 74.0756 286.603 75.6045 285.314C77.7813 283.484 70.5066 279.721 70.1318 279.159C70.1167 279.169 70.1011 279.178 70.0859 279.188C69.9591 279.024 69.8505 278.873 69.7568 278.738C69.591 278.659 69.4246 278.58 69.2588 278.5C69.2696 278.587 69.282 278.675 69.293 278.764ZM48.3037 268.035C49.7308 269.178 51.1894 270.316 52.6211 271.384C58.5946 275.887 64.1662 279.122 64.376 277.045C64.4057 276.739 64.2618 276.375 63.9951 275.971C58.6721 273.402 53.4008 270.803 48.3037 268.035ZM362.007 273.727C361.955 273.907 361.638 274.1 360.714 274.423C360.121 274.652 359.144 274.956 357.792 275.64C359.227 275.8 360.746 275.898 361.962 275.783C362.181 275.748 362.242 275.681 362.185 275.585C362.13 275.488 361.965 275.363 361.896 275.181C361.716 274.872 362.147 274.373 362.007 273.727ZM89.5488 247.093C90.4843 248.069 91.6048 248.947 93.0459 249.355C94.5724 249.785 96.5722 248.411 97.998 249.213C98.5165 249.505 98.7799 250.303 99.0732 251.126C99.2408 251.171 99.4181 251.221 99.6035 251.276C98.8134 250.066 98.167 248.848 97.334 247.631C95.7545 249.392 91.5595 247.102 89.5488 247.093ZM338.827 184.579C337.766 184.621 337.783 185.354 338.102 186.451C338.818 188.838 341.215 192.986 336.591 195.376C341.016 197.199 345.461 198.968 351.005 200.708C349.675 199.729 348.487 198.761 347.344 197.788C347.339 197.786 347.332 197.784 347.327 197.782C350.741 195.537 354.16 193.236 357.659 190.775C344.194 186.446 340.865 184.492 338.827 184.579ZM319.26 166.601C316.867 167.358 314.853 168.038 314.446 168.794C314.574 169.111 314.7 169.432 314.824 169.757C316.054 170.701 319.929 171.822 328.184 173.331C319.524 168.753 323.507 169.193 325.983 169.551C323.761 168.576 321.518 167.593 319.26 166.601ZM355.827 155.88C353.529 157.329 351.568 157.648 350.378 158.434C349.883 159.906 349.537 161.29 349.3 162.522C349.329 162.697 349.363 162.881 349.401 163.071C349.405 163.073 349.41 163.076 349.414 163.077C349.344 163.062 349.274 163.047 349.206 163.03C349.123 163.508 349.055 163.96 349.004 164.381C348.897 165.526 348.83 166.551 348.795 167.472C351.53 167.573 355.548 167.11 356.553 166.058C357.944 164.641 356.642 158.461 355.827 155.88ZM103.767 163.306C103.793 163.305 103.82 163.305 103.846 163.305C103.844 163.295 103.842 163.285 103.841 163.276C103.816 163.286 103.791 163.295 103.767 163.306ZM372.944 150.521C367.916 148.072 363.463 147.323 365.199 149.548C365.374 149.777 368.361 151.048 371.387 152.969C375.628 155.548 379.793 159.442 377.078 161.286C378.679 161.375 379.811 161.395 380.732 161.509C382.732 161.982 383.585 161.372 383.573 159.97C382.741 155.961 377.36 152.701 372.944 150.521ZM375.654 135.697C372.229 131.274 361.8 130.634 361.446 131.332C361.447 131.33 361.449 131.327 361.45 131.324C357.812 137.03 367.119 133.264 370.182 134.015C373.18 134.682 375.578 139.019 375.654 135.697ZM104.357 130.386C104.102 130.475 103.881 130.666 103.701 130.992C103.948 131.12 104.204 131.257 104.467 131.401C104.426 131.074 104.388 130.735 104.357 130.386ZM240.312 116.311C240.04 125.075 248.928 124.639 245.015 118.206C244.865 117.983 243.328 117.362 242.028 116.835C241.496 116.703 240.918 116.524 240.312 116.311ZM76.499 114.622C79.1191 116.012 81.7297 117.376 84.3574 118.745C82.1576 117.84 79.9731 116.931 77.7588 115.995C81.8293 119.737 82.0053 123.849 76.4639 121.157C76.4603 121.155 76.4567 121.151 76.4531 121.149C76.5156 119 76.5162 116.812 76.499 114.622ZM260.688 106.33C258.947 106.573 258.062 107.37 259.667 109.387C260.314 108.457 260.653 107.45 260.716 106.732C260.729 106.591 260.718 106.457 260.688 106.33ZM92.8535 105.526C93.9439 106.236 94.8421 106.644 95.3896 106.559C95.4915 106.544 95.5879 106.526 95.6777 106.506C94.7305 106.18 93.788 105.854 92.8535 105.526ZM302.799 100.367C304.135 102.028 304.462 103.177 311.85 103.817C311.844 103.814 311.837 103.811 311.831 103.809C310.397 102.686 308.876 101.531 307.286 100.382C306.25 100.432 305.166 100.445 304.023 100.409C303.617 100.397 303.209 100.383 302.799 100.367ZM264.566 94.922C265.311 95.8147 267.014 96.5666 270.045 96.9249C270.607 96.9913 271.212 97.0425 271.861 97.0773C272.279 97.0975 272.817 96.9527 273.383 96.6906C270.455 96.1371 267.513 95.5484 264.566 94.922ZM17.4678 75.5079C19.4101 76.979 22.1915 79.0607 21.9248 79.5753C19.5902 84.0829 13.0103 75.3263 26.2578 87.9698C27.2475 88.9228 28.4415 90.0696 29.6992 91.3107C31.3972 89.5467 29.828 87.1436 28.54 84.924C27.2004 82.677 26.1273 80.6028 28.6279 79.3888C26.7763 78.3982 24.9069 77.5183 23.0107 76.8595C21.0121 76.167 19.2006 75.7671 17.4678 75.5079ZM323.421 71.8224C323.721 72.3052 323.896 72.474 323.995 72.5861C324.223 72.8142 324.157 72.6882 324.071 72.5724C323.927 72.379 323.687 72.1108 323.421 71.8224ZM186.724 70.0743C191.425 71.3766 196.124 72.2346 194.13 69.9933C187.442 67.7531 184.501 68.2825 180.538 67.8615C182.599 68.5953 184.659 69.3325 186.724 70.0743ZM57.623 47.2091C61.8557 52.2736 59.1437 51.9928 56.8545 51.923C64.392 57.3923 71.9066 62.8271 79.4082 68.2228C80.0183 65.3862 75.6013 57.5866 73.7295 55.7394C73.7358 55.7418 73.7437 55.7439 73.75 55.7462C70.8718 52.9847 67.8752 51.2446 64.4756 49.7843C62.3104 48.8609 60.1805 48.1065 57.623 47.2091ZM9.65918 55.8253C13.6394 58.5814 32.0803 64.4746 18.5244 61.8195C17.9319 61.6993 16.0809 61.0832 13.3145 60.0773C11.9379 59.577 10.3373 58.9811 8.6377 58.337C7.76644 58.0073 6.89506 57.674 6.01953 57.3409C5.59562 57.1795 5.15048 57.0124 4.82715 56.8907C4.66801 56.8305 4.5264 56.7787 4.5752 56.7892C4.60824 56.7962 4.68485 56.8202 4.99219 56.8995C5.11769 56.9315 5.36939 56.9934 5.62402 57.046C5.89716 57.1036 6.20519 57.1561 6.30957 57.171C5.90495 57.082 5.68222 57.0515 5.81543 57.0255C5.95527 56.9847 6.48186 57.004 7.78809 56.5841C8.01169 56.4596 8.64367 56.3464 9.65918 55.8253ZM229.064 24.1593C233.679 26.3507 237.136 28.0831 237.833 28.4288C243.834 31.4793 236.957 33.5928 242.356 35.2765C250.997 37.8964 248.593 28.828 255.27 40.1866C255.741 40.9769 256.262 41.8675 256.844 42.8654C262.747 40.6995 262.593 42.7508 268.764 44.8019C269.578 45.0661 269.481 42.7279 269.854 42.7716C279.643 43.7573 271.472 45.7974 271.438 46.0284C271.388 50.0004 282.088 51.0416 284.189 51.8868C285.208 52.3137 286.218 52.7321 287.219 53.1417C295.887 56.7686 303.677 59.2224 312.102 60.9005C309.985 58.9705 307.791 57.0139 305.517 55.0372C304.527 54.1808 303.084 53.048 301.387 51.7872C298.952 49.9769 296.787 48.4965 294.112 47.4034C291.332 46.2288 287.863 45.0634 284.899 43.9757C281.972 42.9104 279.47 41.9392 277.933 41.17C272.202 38.3079 276.293 36.934 273.611 34.5089C266.439 38.825 261.407 37.7214 251.614 29.2814C246.397 31.867 247.339 29.392 241.564 27.1798L241.339 27.0841C240.659 26.7975 239.947 26.5364 239.066 26.256C236.454 25.4306 232.859 24.9429 229.064 24.1593ZM31.8467 54.549C29.5664 54.3508 27.5589 54.1772 29.5322 58.2501C29.5396 58.2522 29.5483 58.2539 29.5557 58.256C29.6622 58.4762 29.7686 58.6841 29.875 58.8781C30.6395 57.4813 31.2955 56.019 31.8467 54.549ZM152.054 47.9572C150.969 48.7779 150.336 48.8788 149.935 49.2169C149.002 49.6723 148.572 49.7599 148.328 49.8009C148.235 49.8135 148.171 49.811 148.131 49.8038C147.761 50.633 148.002 51.6509 149.194 52.6603C155.463 57.9259 164.943 55.3317 155.785 49.1495C154.576 48.328 153.257 47.9749 152.054 47.9572ZM5.88184 55.132C6.11763 55.2049 6.44089 55.2812 6.54297 55.3156C6.53385 55.3185 6.52382 55.3215 6.51465 55.3243C5.94493 55.508 5.84712 55.5289 5.7959 55.3917C5.77564 55.3243 5.76893 55.2191 5.76562 55.0919C5.8029 55.1043 5.84167 55.1194 5.88184 55.132ZM5.70215 53.1056C5.717 53.2123 5.72539 54.0152 5.75586 54.6564C5.76288 54.8159 5.76236 54.9656 5.76562 55.0919C5.6023 55.0379 5.46898 54.9876 5.39355 54.9503C5.17962 54.8502 5.16167 54.7984 5.1543 54.7511C5.15814 54.6613 5.26283 54.5969 5.34668 54.5216C5.51467 54.3703 5.61957 54.1742 5.64062 53.9318C5.67252 53.6928 5.60668 53.4016 5.62305 53.129C5.62914 53.065 5.63919 53.0017 5.66699 52.9435C5.67343 52.9791 5.69013 53.0309 5.70215 53.1056ZM2.58203 40.924C4.34541 39.7016 6.65446 39.6991 8.45508 40.0665C10.5126 40.8026 12.1542 41.8716 13.4307 42.9122C12.2123 44.2594 10.9073 44.9893 9.75391 45.7736C9.28419 46.0804 8.8421 46.385 8.43262 46.6632C8.31116 46.9355 8.16819 47.2039 8.00195 47.463C7.93089 47.5762 7.86016 47.6853 7.79102 47.7902C7.77626 47.7895 7.76092 47.7875 7.74609 47.7872C7.52379 47.778 7.29999 47.8116 7.12012 47.9083C7.03678 47.9585 6.96037 48.026 6.98926 48.1339C7.0032 48.1874 7.05679 48.2548 7.14355 48.3292C7.1963 48.3735 7.26597 48.4222 7.31836 48.4659C7.14272 48.7071 6.97936 48.9235 6.82715 49.1163C7.01316 48.8956 7.20296 48.7067 7.3916 48.5509C7.38524 48.5251 7.35518 48.4967 7.31836 48.4659C7.46802 48.2604 7.62818 48.0372 7.79102 47.7902C8.18206 47.8071 8.54494 47.9684 8.78223 48.1993C8.90064 48.3083 9.00132 48.4363 9.08789 48.5773C8.82583 48.9838 8.64581 49.5242 8.60742 50.2531C8.59465 50.8018 8.69267 51.2953 8.87207 51.7335C7.5265 52.616 6.64212 52.6991 6.49609 52.7638C6.02392 52.8362 5.80957 52.8413 5.7207 52.8634C5.75126 52.8301 5.79166 52.7989 5.8457 52.7716C5.94213 52.7268 6.08846 52.693 6.2998 52.6691C6.50775 52.6454 6.80858 52.6275 6.8877 52.5675C6.41281 51.5409 5.94577 50.499 6.4248 49.6603C6.48622 49.5638 6.55041 49.4724 6.61426 49.3849C6.09685 50.0292 5.78233 50.4044 5.81738 50.7589C5.80432 50.9124 5.79183 51.0676 5.78027 51.2228C5.13765 50.5593 5.39547 49.6129 5.1709 48.712C5.00293 47.7983 4.65574 46.8554 4.20605 45.9952C3.91193 45.5318 3.97159 44.9943 4.03516 44.295C4.11226 43.59 3.89914 42.8894 3.50684 42.6281C3.12839 42.3379 2.68048 42.313 2.31934 42.1505C1.94305 42.0204 1.78445 41.5031 2.50879 40.9796C2.53255 40.9615 2.55701 40.9419 2.58203 40.924ZM33.7227 47.588C33.5014 48.916 33.1863 50.3268 32.7715 51.7638C32.7298 51.7464 32.6878 51.7284 32.6465 51.7111C32.8184 50.1458 33.0011 48.5886 33.1553 47.0206C33.3485 47.218 33.5379 47.4071 33.7227 47.588ZM151.59 47.9659C150.057 48.0554 148.771 48.6958 148.237 49.6017C148.402 49.497 148.665 49.3731 148.936 49.2609C149.749 48.9271 150.641 48.6359 151.081 48.4152C151.339 48.2928 151.499 48.1395 151.59 47.9659ZM17.6729 44.6681C18.8829 45.891 20.0977 47.1589 21.2051 48.3907C20.3999 48.1616 19.1213 47.5468 17.0635 46.3126C17.2382 45.6464 17.3698 44.9994 17.457 44.3966C17.5261 44.4845 17.5974 44.5767 17.6729 44.6681ZM20.8574 41.3732C24.4911 40.521 30.1385 46.1258 28.7061 48.1115C24.985 46.2722 23.6416 46.1793 23.0986 46.6281C20.7562 44.548 18.9674 41.663 20.8574 41.3732ZM151.208 17.6378C149.149 17.1589 146.778 16.9098 144.021 17.1075C141.143 17.4518 138.488 17.4897 133.224 20.5265C132.323 21.2452 130.86 21.5055 128.306 25.424C127.063 27.3886 126.416 30.797 126.743 32.9142C127.012 35.0898 127.556 36.1895 127.888 36.9249C127.946 37.0287 128.006 37.1343 128.066 37.2384C128.285 37.6062 128.299 37.3919 128.208 36.8009C128.082 36.342 127.858 35.7114 127.621 34.3937C127.401 33.1491 127.173 30.6701 128.138 28.0929C130.486 22.801 133.058 22.53 134.053 21.9513C138.839 20.4585 141.588 21.4537 139.882 22.5763C139.687 22.7354 138.062 22.9722 135.5 24.4337C134.808 24.9575 133.665 25.1838 131.953 27.9825C131.128 29.3997 130.847 31.6067 131.08 32.8986C131.282 34.2322 131.618 34.9134 131.841 35.3947C132.373 36.349 132.94 37.0385 133.386 37.3468C135.173 38.4557 136.101 35.8903 138.321 37.4386C139.507 38.1999 140.713 39.427 142.102 40.7013C143.772 42.0952 145.44 43.443 146.99 44.4532C146.495 44.8128 146.431 44.881 146.443 44.9601C146.466 45.034 146.583 45.0809 146.623 45.1691C147.035 45.9453 147.171 46.641 147.26 47.1935C147.314 47.4664 147.371 47.7057 147.579 47.8488C147.797 47.9805 148.146 48.0595 149.058 47.712C149.463 47.4031 150.099 47.3749 151.301 46.3986C151.263 46.3234 151.223 46.2463 151.183 46.17C151.323 46.1738 151.46 46.1693 151.594 46.1554C151.61 46.141 151.626 46.1252 151.643 46.1105C151.69 45.8794 151.122 44.7872 150.469 43.6398C150.499 43.5749 150.535 43.5102 150.581 43.4493C151.353 42.4682 152.438 41.6992 153.567 41.006C154.293 40.4072 155.085 39.9016 155.785 39.3517C155.985 39.3813 156.184 39.4111 156.384 39.4406C156.497 39.1407 156.605 38.8327 156.706 38.5197C157.333 37.8406 157.763 37.0294 157.796 35.9064C157.658 35.8756 157.522 35.8449 157.389 35.8185C157.492 35.2615 157.573 34.7078 157.625 34.1691C157.334 32.6664 156.743 31.6865 155.953 31.09C156.276 31.2428 156.924 31.578 157.673 31.9562C157.662 31.7981 157.651 31.6427 157.633 31.4923C157.529 30.285 157.366 29.3214 157.188 28.546C157.229 28.5463 157.268 28.5455 157.305 28.545C157.256 28.5027 157.207 28.4591 157.157 28.4161C157.063 28.0212 156.964 27.6765 156.868 27.3741C157.417 27.5434 157.943 27.7021 158.445 27.8517C158.501 27.7973 158.556 27.7426 158.608 27.6876C158.628 27.7622 158.647 27.8398 158.666 27.9181C166.209 30.1498 168.471 30.1359 166.965 28.7531C166.159 27.9812 164.283 26.8103 161.891 25.463C161.306 25.1335 160.689 24.7946 160.064 24.4532C160.073 21.6538 157.05 18.8569 151.208 17.6378ZM149.664 42.2628C149.922 42.6939 150.202 43.1718 150.469 43.6398C150.137 44.353 150.715 45.2915 151.183 46.17C149.977 46.1376 148.542 45.465 146.99 44.4532C147.027 44.4263 147.066 44.3966 147.108 44.3663C147.417 43.9916 148.199 43.9646 149.664 42.2628ZM326.578 34.6056C328.326 34.5593 330.064 34.504 331.882 34.5548C335.137 37.6985 338.306 40.7832 341.639 44.088C341.642 44.0909 341.645 44.0949 341.647 44.0978C341.64 44.0995 341.633 44.102 341.626 44.1036C340.71 44.3323 339.794 44.5746 338.888 44.8136C334.774 41.2905 330.772 37.9295 326.578 34.6056ZM17.5156 41.6779C17.6324 42.3315 17.6171 43.2898 17.457 44.3966C17.0739 43.9092 16.7952 43.4857 16.7031 43.2296C16.5838 42.9188 16.7748 42.9212 17.0312 43.1876C17.2919 43.4433 17.4826 43.8243 17.5137 43.6144C17.5525 43.4265 17.5206 42.7043 17.5156 41.6779ZM13.8984 42.045C13.9155 42.3653 13.9096 42.787 13.8652 43.2784C13.7254 43.1576 13.5805 43.0344 13.4307 42.9122C13.5656 42.7631 13.7006 42.6068 13.833 42.4415C13.8895 42.3707 13.9062 42.2372 13.8984 42.045ZM144.061 25.9894C143.442 27.4146 147.002 27.8159 150.584 28.0997C151.302 27.7384 151.709 27.4373 152.112 27.5148C151.729 27.7371 151.296 27.9433 150.805 28.1183C151.3 28.1569 151.795 28.1933 152.277 28.2306C152.352 28.2349 152.428 28.2398 152.502 28.2443C152.669 28.6494 152.857 29.2055 153.032 30.007C153.336 30.1027 153.673 30.2193 154.043 30.3527C153.738 30.3144 153.421 30.302 153.097 30.3116C153.133 30.4936 153.171 30.6879 153.205 30.8937C153.599 32.852 153.233 36.6826 151.85 39.1466C150.995 40.5683 150.27 41.5586 149.664 42.2628C149.164 41.4281 148.747 40.7637 148.674 40.671C147.385 39.2004 145.789 38.3742 144.55 37.7648C141.986 36.5067 139.304 35.3929 138.983 34.8771C138.5 34.1311 138.293 33.4592 138.259 32.9113C138.207 32.4674 138.381 32.0236 138.668 31.9503C138.944 31.8682 139.21 31.9931 139.442 32.1329C139.91 32.428 140.28 32.8697 140.601 33.1906C140.806 33.387 140.991 33.5431 141.17 33.6115C141.98 33.9442 143.09 33.6464 144.032 33.2736C144.127 32.8056 144.16 32.3415 144.141 31.9884C143.908 31.9963 143.677 31.9948 143.451 31.9825C143.496 29.9725 143.266 28.0638 144.061 25.9894ZM158.957 36.1964C158.74 37.378 158.431 38.574 158.04 39.6847C161.487 40.1868 164.934 40.6687 168.39 41.1495C168.494 40.758 168.592 40.3636 168.683 39.9679C165.633 38.5504 161.921 37.015 158.957 36.1964ZM154.725 39.1954C152.498 35.8252 154.209 35.1881 157.389 35.8185C157.22 36.7272 156.988 37.6449 156.706 38.5197C156.431 38.8172 156.118 39.0898 155.785 39.3517C155.432 39.2992 155.078 39.2484 154.725 39.1954ZM0 32.9025C4.64346 33.8833 6.66939 36.4657 8.61523 38.7911C8.62008 38.7966 8.62585 38.8023 8.63086 38.8077C8.62521 38.807 8.61877 38.8065 8.61328 38.8058C6.47617 38.5513 4.21152 38.4256 1.96094 39.1398C1.92876 39.1158 1.89453 39.0914 1.86133 39.0685C1.41443 38.7734 0.844277 38.4875 0 38.6144V32.9025ZM142.747 35.6075C142.498 35.7289 142.308 35.8454 142.21 35.9542C142.215 35.9666 142.281 35.9574 142.495 35.8097C142.558 35.762 142.644 35.6975 142.747 35.6075ZM326.578 34.6056C326.572 34.6058 326.565 34.6054 326.559 34.6056C326.557 34.6004 326.555 34.5941 326.553 34.589C326.561 34.5939 326.57 34.6006 326.578 34.6056ZM159.085 30.1368C159.132 30.4838 159.178 30.8545 159.216 31.2491C159.275 31.7117 159.302 32.215 159.301 32.7452C161.697 33.8423 163.662 34.3585 159.085 30.1368ZM154.043 30.3527C154.753 30.4419 155.401 30.673 155.953 31.09C155.896 31.063 155.85 31.0381 155.814 31.0236C155.161 30.7656 154.568 30.5422 154.043 30.3527ZM150.037 28.3536C150.097 28.5958 150.194 28.9357 150.314 29.4747C150.202 28.9136 150.12 28.5819 150.075 28.3429C150.063 28.3461 150.05 28.3504 150.037 28.3536ZM152.112 27.5148C155.017 25.8302 155.081 23.2049 156.343 25.9132C156.467 26.2576 156.661 26.7174 156.868 27.3741C156.4 27.2297 155.914 27.0792 155.411 26.92C156.048 27.4574 156.629 27.9567 157.157 28.4161C157.167 28.4587 157.178 28.5023 157.188 28.546C156.308 28.5403 154.507 28.3641 152.502 28.2443C152.373 27.9308 152.258 27.7055 152.173 27.5265C152.153 27.5208 152.132 27.5186 152.112 27.5148ZM156.876 22.9835C155.347 21.7431 156.956 22.8187 158.117 23.3976C158.76 23.7437 159.418 24.1 160.064 24.4532C160.061 25.5637 159.58 26.6744 158.608 27.6876C158.309 26.5532 157.995 25.8439 157.814 25.3439C157.233 23.5455 156.723 23.0406 156.876 22.9835Z" fill="#C9473C"/>
</svg>
