<svg width="393" height="104" viewBox="0 0 393 104" fill="none" xmlns="http://www.w3.org/2000/svg">
<path d="M199.452 0C199.418 5.63337 198.476 6.44045 201.451 13.5537C201.453 13.5533 201.455 13.5531 201.457 13.5527C198.423 16.8947 194.288 0.405999 193.585 0.941406C191.135 2.84436 196.571 13.9882 195.785 18.2666C198.901 13.6728 199.665 21.883 202.813 21.6621C203.516 21.6086 205.113 16.2178 204.811 13.168C204.551 10.5518 201.941 3.90995 200.212 0H262.717C263.461 5.85303 270.138 13.4891 270.938 10.2148C271.969 6.19674 270.151 2.4798 267.982 0H276.813C276.905 0.472947 276.994 0.897191 277.081 1.25488C277.947 4.80282 279.588 0.841393 279.959 1.36719C281.161 3.1008 279.374 4.62419 280.953 7.00977C281.469 7.77847 287.429 10.5648 287.609 10.1084C288.46 8.06909 286.656 2.66471 285.998 0H308.961C308.701 1.15836 309.117 2.22261 310.732 2.94531C311.161 3.10782 318.059 1.86485 318.642 0.654297C318.735 0.447568 318.801 0.228015 318.848 0H325.91C326.16 1.22017 326.765 2.24326 327.839 2.75977C328.704 3.21123 329.722 1.86975 330.473 0H338.986C338.907 0.186229 338.827 0.374934 338.744 0.5625C338.286 1.69473 337.723 2.81241 336.943 3.51367C336.845 3.65401 336.741 3.77997 336.63 3.88867C334.405 6.13541 331.583 0.591082 329.897 4.03027C329.726 4.49233 331.207 9.71689 331.283 9.93066C332.53 12.4902 334.604 9.39998 335.839 8C336.187 7.6019 336.496 7.36266 336.588 7.38574C337.151 7.52699 337.433 8.0675 337.307 8.58984C337.19 9.11949 336.727 9.6217 336.175 10.0508C335.056 10.9015 333.618 11.5996 333.017 11.7305C332.449 11.8503 332.148 11.8336 332.05 11.8848C331.95 11.9292 332.041 12.0256 332.197 12.1504C332.511 12.4003 333.087 12.7101 333.013 12.7646C330.997 14.4503 330.043 13.4544 329.44 12.7314C329.297 12.5915 329.173 12.5253 329.142 12.7578C329.113 12.976 329.201 13.6 329.67 14.4844C330.127 15.3712 330.952 16.2725 331.507 16.7939C332.072 17.3342 332.396 17.6497 332.505 17.9463C332.545 18.0461 332.58 18.1439 332.613 18.2393C334.635 17.5324 335.559 16.9154 335.862 16.335C336.653 14.7533 333.074 13.0466 334.426 11.6484C337.636 11.2188 340.766 10.7869 343.975 10.8115C340.989 10.8287 339.431 13.7705 339.205 15.6328C339.105 16.451 339.205 17.0281 339.468 17.0469C339.477 17.045 339.487 17.0429 339.496 17.041C345.924 17.4116 352.255 15.2183 355.624 12.1875C357.146 11.2737 358.227 10.6377 358.474 9.33691C358.571 8.62264 358.551 7.8213 357.826 5.53809C357.429 4.37612 356.871 2.73758 355.426 0.323242C355.364 0.216738 355.297 0.109442 355.229 0H385.524C385.772 1.59071 385.76 2.56882 385.967 3.35547C386.16 5.30039 386.066 5.63418 385.974 5.86816C385.871 6.0548 385.722 5.97725 385.565 5.90332C385.743 10.4052 385.725 14.7755 385.614 18.6387C383.747 17.0147 381.883 15.2189 380.073 13.3408C380.124 13.8109 380.145 14.3042 380.136 14.7979C377.655 12.1649 375.019 10.7155 373.765 10.4043C372.378 10.0262 371.988 10.3525 371.856 10.3994C370.948 11.3719 367.261 17.7734 367.985 17.6221C370.209 17.8024 374.485 3.2907 370.142 23.1494C370.455 22.7491 370.739 22.3971 370.995 22.0889C373.201 21.9176 374.79 22.5784 376.104 23.3887C376.075 23.4286 376.057 23.458 376.051 23.4756C374.97 26.7634 375.95 27.958 377.191 28.502C377.201 28.5109 377.212 28.5178 377.221 28.5273C383.214 35.439 386.951 40.3163 393 43.0664V94.4189C392.808 94.515 392.613 94.5848 392.411 94.6162C389.945 94.9753 388.104 88.3305 385.153 91.3076C379.838 96.3711 388.595 96.076 393 96.249V102.193C392.938 102.265 392.888 102.31 392.851 102.321C390.972 102.944 388.805 99.1834 387.307 99.2588C381.918 99.5487 377.614 103.903 372.251 103.956C366.844 103.99 361.946 103.751 357.598 103.513L352.523 101.915C342.612 99.6204 334.836 101.644 312.234 86.0781C306.823 81.8977 302.655 75.6688 300.396 70.2676C297.977 65.9444 296.743 63.0506 296.079 60.9434C294.843 62.6145 295.196 65.0381 292.962 65.0078C291.381 64.9897 290.487 60.8278 290.254 60.6934C288.215 59.5752 288.654 65.1166 287.27 65.5078C279.31 67.7665 270.833 65.5576 262.49 66.6221C261.883 66.6964 261.475 64.274 261.111 64.4717C259.561 65.3885 261.073 69.0352 259.403 69.6514C255.915 70.9557 252.093 71.0891 248.146 71.4297C247.757 71.4634 246.917 68.4125 246.045 68.5986C245.18 68.785 245.129 71.8583 243.735 71.9922C243.131 72.051 242.504 72.0269 241.86 71.9502C238.637 71.5547 235.043 69.7789 231.763 70.3643C231.114 70.4847 231.165 74.3768 230.198 74.5586C227.148 75.1335 221.845 72.8332 219.189 73.335C210.443 75.0093 202.902 79.0728 194.642 81.1211C192.702 81.5931 190.132 78.5957 189.103 78.7598C186.77 79.1451 189.286 81.957 186.976 82.5381C175.647 85.3609 164.13 87.6749 152.061 90.1094C143.96 91.7216 135.893 93.4059 126.378 95.2783C119.987 96.561 110.24 99.7207 101.751 100.666C99.2893 101.036 96.8706 101.218 94.582 101.026C91.246 100.735 90.4977 96.1499 88.1201 96.1748C83.844 96.2285 83.2061 102.154 78.3916 102.788C74.4974 103.277 69.9407 97.3552 65.3643 97.5234C60.9799 97.6527 58.4008 102.618 52.3027 103.096C52.0673 103.143 51.8265 103.172 51.5801 103.184C48.2173 103.332 43.8992 100.172 40.1445 100.104C36.4253 100.038 32.6883 99.9402 28.6104 99.7148C26.57 99.6003 24.4572 99.4578 22.0098 99.2119C19.3062 98.8715 17.6086 98.9232 10.9385 97.2949C9.05549 96.8961 6.63668 96.4215 2.11133 94.9277C1.44944 94.6924 0.763789 94.4561 0 94.1777V71.4141C3.14175 73.5998 4.95058 74.5465 6.5332 75.4697C7.12171 71.741 7.81814 68.0263 8.4082 64.2314C6.63184 64.2381 4.47952 63.9068 0.74707 61.5293C0.507464 61.3678 0.258314 61.196 0 61.0117V54.4688C1.06001 55.7008 2.01729 56.5816 2.62012 57.2627C5.07028 59.5542 6.5157 60.5255 7.6875 61.4561C9.96042 63.1953 11.1775 64.3055 12.3477 65.3975C14.5958 67.5069 16.4608 69.1759 18.9453 69.1621C19.6087 69.2651 20.2245 69.3127 20.7832 69.3105C20.8715 67.0611 20.7803 65.3091 20.4404 63.9092C20.4834 61.1798 19.7907 60.192 18.1797 59.8115C17.36 59.613 16.3216 59.5761 14.8037 59.4092C13.1531 59.0921 11.6563 59.4059 6.89062 56.7549C7.44465 53.7784 8.65837 51.2891 9.59766 48.3525C12.6297 52.1582 13.5196 52.8173 14.4766 53.9893C15.3459 54.9969 15.8957 55.6916 16.3291 56.2393C17.1821 57.3207 17.5375 57.7741 17.8955 57.8525C18.565 57.9845 19.3435 56.6281 22.2803 54.5947C22.4997 54.4395 22.8072 54.3787 23.1602 54.3545C26.2255 54.5342 29.716 55.0933 29.3545 48.4092C29.2702 46.5718 25.6836 45.9948 26.8135 43.292C27.0456 42.8355 31.2559 42.2652 31.4785 43.0312C34.4451 52.7687 25.3511 57.853 38.5176 56.4365C38.8729 56.3862 39.4361 53.2426 40.1455 52.7588C39.5212 52.0046 38.7884 51.1264 37.9229 50.123C40.085 52.3093 40.0759 51.6284 39.4727 50.6123C39.1371 49.9201 38.5517 49.2014 38.4912 48.4746C40.0802 49.378 39.9407 46.5461 40.6553 47.0264C42.5333 48.7773 43.4887 51.4529 43.8271 53.5029C44.93 52.1983 46.1444 51.1407 46.8467 54.4453C48.8175 63.5355 40.8381 67.5915 38.1416 62.5156C35.9549 70.871 48.6531 74.888 55.6562 75.9414C58.9333 76.4124 61.1178 76.3779 61.6055 76.1699C69.0994 72.6147 58.1144 73.9195 56.2471 71.1562C56.1701 70.9952 56.1251 70.8204 56.1162 70.6309C56.0543 69.2683 58.2646 52.3816 54.2725 63.0215C53.0866 66.1744 55.8158 70.8628 53.6445 72.4131C51.4718 73.9616 52.8621 69.0842 52.7656 68.7168C52.4339 67.4673 50.128 69.0496 49.9414 68.3105C47.1675 57.0777 49.5947 40.9504 52.0459 65.541C55.1012 60.4365 50.7343 51.1406 54.1387 47.8438C56.4674 45.5863 58.0007 47.1459 58.9824 49.0127C59.7542 50.4599 60.2406 52.0815 60.4365 52.2578C65.7643 56.8655 60.2083 45.0989 66.6416 49.126C70.3602 51.3062 60.4908 56.4179 69.3682 56.0381C76.7254 55.5566 72.7644 51.5193 73.4141 42.5645C73.5616 40.4658 77.2835 37.9273 72.2295 38.7988C72.0497 41.1334 71.7224 44.2088 71.3496 46.3574C70.3088 44.9655 69.0473 37.0791 68.3096 33.8232C67.7771 33.6668 67.1559 33.3523 66.4395 32.8555C66.1822 32.6752 65.9384 32.4892 65.7061 32.3008C64.8525 32.8655 64.4582 33.6567 63.9053 30.5244C63.8516 30.4602 63.7998 30.3953 63.748 30.3311C64.0132 36.5012 62.6123 32.2519 61.7979 33.7256C61.7564 33.7982 61.7164 33.8708 61.6768 33.9424C62.5103 34.8604 63.0792 35.9232 62.3174 37.0518C61.7545 36.4639 61.2672 36.0055 60.8438 35.6592C60.7231 35.9499 60.6189 36.2263 60.5293 36.4863C59.3811 39.4424 60.3565 40.3332 57.8037 36.4355C57.4901 37.519 57.2382 38.9108 56.5713 39.9082C56.7524 41.4977 56.9327 43.0878 57.1221 44.6885C56.2592 44.7081 55.3844 44.7295 54.5137 44.7471C54.4303 42.2437 53.9374 40.5492 53.4424 39.1865C53.5792 38.8712 53.7048 38.5964 53.8213 38.3809C53.9761 38.1643 54.1265 38.086 54.2773 38.2871C54.3295 37.0207 54.2942 35.764 54.1914 34.5283C53.4132 33.9221 53.1032 33.1826 53.0254 32.4043C53.212 31.99 53.4424 31.5449 53.7207 31.0615C53.6161 30.5071 53.4979 29.9596 53.3701 29.4199C53.4108 29.1919 53.4457 28.9724 53.4648 28.7637C53.3665 28.7146 53.2687 28.6681 53.1729 28.624C53.0353 28.0949 52.8867 27.5746 52.7305 27.0635C51.9367 26.6897 50.3855 26.7159 47.502 27.3711C48.6578 26.4517 49.9693 25.8278 51.0684 24.7754C49.0122 22.4477 45.7981 14.0982 44.3545 12.7441C40.5748 9.18891 39.8318 12.9506 37.8447 13.5225C36.9823 13.777 36.335 11.4102 36.2617 11.4277C35.068 11.7649 36.9605 14.7362 36.127 15.4355C35.0837 16.3071 30.0399 15.1394 29.6592 15.791C29.269 16.455 29.9519 17.6188 30.9141 18.8125C31.0756 18.6995 31.2557 18.6084 31.457 18.5391C32.0868 18.4144 32.8972 18.3477 34.9385 19.5449C34.6974 20.7393 34.5979 21.7264 34.5928 22.5732C34.4425 22.484 34.2954 22.4013 34.1523 22.3242C34.3525 22.5457 34.4779 22.7032 34.4922 22.7783C35.1799 26.221 32.0059 24.782 34.2119 28.583C34.5219 28.0507 34.9625 27.5356 35.4932 27.0557C36.0514 28.79 36.4612 30.6732 35.2812 34.7412C34.6665 36.7463 34.1748 37.6939 33.7539 38.0684C33.7519 38.1501 33.7489 38.2318 33.7451 38.3135C33.7138 38.2358 33.6796 38.1851 33.6436 38.1533C33.4825 38.2624 33.3323 38.2895 33.1885 38.2637C33.0324 38.3565 32.8523 38.4443 32.6533 38.4932C32.3669 38.1083 32.0821 37.7213 31.8008 37.3301C31.509 37.2584 31.1972 37.4243 30.832 38.1309C30.5685 38.0593 30.285 38.027 29.9844 38.1787C30.0485 37.6796 30.1163 37.1563 30.1865 36.5947C29.9572 36.8061 29.7422 36.9811 29.5449 37.125C29.2051 35.7841 28.5878 34.5141 27.9102 33.6846C27.7215 33.4475 27.5336 33.2396 27.3506 33.0566C27.4407 32.0765 27.5661 31.0951 27.6357 30.2871C27.5326 30.0418 27.5915 29.801 27.6807 29.5059C27.6867 29.2728 27.6855 29.0684 27.665 28.9004C27.5546 27.7386 26.88 26.6933 26.9766 26.3008C27.0144 26.2294 27.0894 26.1699 27.2783 26.2119C26.9384 25.5685 26.4299 24.8085 25.6826 23.9053C23.8199 21.6113 19.2308 16.9814 17.4033 13.7324C18.2984 16.2331 19.3417 19.0338 20.3877 21.5869C17.3183 24.6645 15.382 22.6323 9.4082 21.6885C11.1089 22.8564 18.7984 27.0605 14.1719 28.1807C13.8751 28.3594 11.6018 26.005 8.41895 28.0596C5.09093 30.3856 3.36238 34.1794 1.59082 34.6943C1.1382 34.8559 0.595349 34.8749 0 34.6787V21.4854C0.134326 21.5599 0.26724 21.6373 0.402344 21.7109C2.22778 19.7101 6.10906 17.1332 8.66309 15.8418C11.266 14.44 13.0753 13.386 12.6865 11.8584C11.3534 6.76831 7.11703 8.34732 3.02441 10.96C1.88353 11.6678 0.774664 12.4746 0 12.8525V0H199.452ZM35.875 64.3477C34.0113 58.6295 32.8545 68.1919 29.8516 63.2734C29.1608 70.3513 28.5745 77.2886 27.9971 84.3105C31.1188 83.7331 32.1234 81.1497 34.876 83.291C34.841 80.9831 34.8165 78.6622 34.7979 76.3418C34.2281 76.755 33.6316 77.2327 33.0762 77.5898C33.2574 71.17 38.0617 70.8923 35.8867 64.334C35.883 64.3383 35.8787 64.3433 35.875 64.3477ZM41.2646 79.1846C42.6271 75.5824 38.986 71.9382 37.5938 75.2607C35.3373 80.6449 39.191 84.6602 41.2646 79.1846ZM169.037 62.9658C166.809 62.7233 158.024 69.6743 162.729 75.0293C164.141 76.5876 166.395 66.7524 168.166 66.7217C169.303 66.705 169.263 71.8093 170.971 69.5205C170.358 67.4239 169.726 65.0875 169.034 62.9814C169.035 62.9764 169.036 62.9709 169.037 62.9658ZM166.054 34.041C164.137 35.4179 162.254 37.028 160.342 38.459C163.235 43.5589 165.446 39.2899 167.51 46.9541C167.066 47.682 166.638 48.4036 166.192 49.1318C165.329 47.5565 164.475 45.9767 163.624 44.3984C162.822 49.0313 164.42 50.8471 160.713 50.4668C165.607 61.6223 167.539 67.7805 170.522 54.5576C170.958 61.152 177.041 81.4974 176.69 65.9795C176.631 63.0976 173.639 61.8947 173.506 61.4658C171.792 56.1517 172.353 52.3553 170.684 47.3477C169.927 45.0831 168.404 45.4925 167.381 42.3418C166.895 40.8016 167.264 35.9784 166.054 34.041ZM216.681 50.7695C203.039 51.7227 214.193 55.7748 214.892 70.7451C216.578 70.3853 218.25 70.0284 219.931 69.6738C219.28 68.8786 218.634 68.0853 217.98 67.291C217.979 67.2915 217.977 67.2925 217.975 67.293C217.538 61.7867 217.11 56.2764 216.681 50.7695ZM151.778 47.6895C150.579 47.6466 152.351 51.9072 151.678 53.4521C151.009 55.008 146.708 52.0205 147.442 54.7588C148.19 57.504 156.141 63.1917 150.217 66.2354C150.797 67.7369 150.999 68.912 151.434 70.29C153.192 69.9183 154.946 69.5714 156.684 69.1982C154.656 64.9635 152.591 60.4914 150.642 56.3945C150.772 52.6085 152.387 57.04 152.44 57.0273C152.439 57.0228 152.438 57.0182 152.437 57.0137C154.155 56.2252 154.445 47.786 151.778 47.6895ZM182.857 69.0459C185.293 65.8548 178.696 59.6324 176.998 60.4375C177.144 63.8751 181.295 71.0993 182.857 69.0459ZM84.1055 34.0225C81.7193 29.8335 79.6537 29.9429 76.917 30.2344C79.4373 36.3913 77.8151 37.1123 76.9619 38.627C75.6634 40.9071 78.825 40.7078 78.8408 41.1191C78.8451 46.9806 76.7783 47.9248 81.4863 47.7207C80.3614 49.7823 79.2196 51.8556 78.0537 53.8926C81.7019 54.1272 82.6182 57.9276 85.0703 62.5498C82.5472 51.1812 85.698 58.2696 88.209 52.5098C89.4351 49.6275 85.294 36.1703 84.0977 34.0225C84.1002 34.0224 84.1029 34.0225 84.1055 34.0225ZM187.361 45.375C184.731 45.1531 183.713 39.6811 180.704 40.0576C175.206 40.7426 182.136 42.7532 184.344 45.7432C172.549 51.456 185.53 44.4854 189.473 55.2637C190.213 51.7394 191.301 43.829 187.669 42.668C186.16 42.1891 187.437 45.3548 187.361 45.375ZM51.3828 44.0664C51.7432 46.3426 51.2808 48.3288 49.751 49.4746C48.3374 50.5496 47.6129 50.312 46.9424 49.4717C46.9948 49.4418 47.0501 49.4128 47.1045 49.3799C47.9448 48.8535 49.1291 47.7959 50.4502 45.7109C50.7677 45.2608 51.0796 44.6912 51.3828 44.0664ZM44.6416 46.0576C45.7178 47.3358 46.3063 48.6745 46.9424 49.4717C45.34 50.3864 44.6824 49.9158 44.4561 49.0723C44.2946 48.4418 44.4311 47.4637 44.6416 46.0576ZM36.04 42.9912C37.0517 44.3704 38.0345 45.794 38.9404 47.3291C38.5723 47.7119 38.4596 48.0941 38.4912 48.4746C37.8301 48.0987 36.8679 47.0788 35.4229 44.9004C40.047 52.7692 35.4885 46.6307 34.7236 46.499C34.026 46.2267 34.4638 45.8091 35.1377 44.7549C35.4782 44.239 35.8125 43.6079 36.04 42.9912ZM270.427 44.4629C268.315 43.4692 268.239 38.6711 265.481 44.8018C265.484 44.8013 265.487 44.8003 265.489 44.7998C269.742 47.9642 274.828 50.5901 278.106 46.2637C274.917 41.7217 273.752 46.0162 270.427 44.4629ZM187.424 13.6064C182.659 22.1856 190.365 33.2001 196.158 39.5156C196.331 37.9049 196.518 36.2888 196.688 34.6934C196.448 44.2869 194.384 54.2078 201.89 44.083C196.226 43.2076 199.954 39.7447 199.866 39.2285C196.442 22.5437 190.635 32.0845 187.429 13.6055C187.427 13.6058 187.425 13.606 187.424 13.6064ZM152.902 10.2754C152.505 10.7033 152.139 11.1938 151.75 11.6338C159.627 26.2457 140.538 13.3987 150.149 24.668C150.029 32.2841 150.346 32.1097 153.755 38.0225C154.057 38.5531 153.239 40.8347 153.409 41.0596C156.01 44.1471 157.694 41.7689 159.255 48.1455C159.649 47.6901 160.037 47.2753 160.425 46.8213C156.98 41.2926 159.142 36.4887 159.138 31.1162C159.131 28.6842 157.681 28.2857 157.659 26.1611C157.659 25.3846 159.781 26.4181 159.346 24.2959C158.331 19.5005 155.659 13.3358 152.906 10.2891C152.905 10.2845 152.903 10.2799 152.902 10.2754ZM242.07 40.9336C240.023 29.707 240.096 42.7156 239.359 44.3252C238.593 45.9324 236.272 42.1192 237.858 46.7969C240.261 49.7352 242.295 42.1868 242.067 40.9199C242.068 40.9245 242.069 40.929 242.07 40.9336ZM38.9688 47.376C38.9595 47.3603 38.9497 47.3447 38.9404 47.3291C38.9412 47.3283 38.9425 47.327 38.9434 47.3262C38.9523 47.3422 38.9593 47.3598 38.9688 47.376ZM41.2832 44.5283C40.6367 45.5615 39.8808 46.4908 39.1445 47.1387C39.0703 47.201 39.0036 47.2638 38.9434 47.3262C37.9758 45.6047 39.7674 44.7843 41.2832 44.5283ZM39.6816 23.9131C39.8232 24.0906 39.9684 24.2841 40.1182 24.4893C44.6146 23.0721 48.9853 24.4252 43.8477 32.4521C43.8847 32.5918 43.92 32.7331 43.9551 32.875C44.6442 33.3706 45.2979 33.9191 45.9131 34.5029C45.5903 35.2061 45.0644 35.5349 44.4707 35.6367C44.5807 36.4939 44.6513 37.3827 44.667 38.2998C45.0725 37.3977 45.3518 41.3245 44.958 43.834C44.8506 44.6714 44.7385 45.4101 44.6416 46.0576C44.1874 45.5182 43.6469 44.9885 42.9775 44.5166C42.9435 44.4931 42.8844 44.4747 42.8057 44.4619C42.2715 45.5193 41.8736 45.3376 41.6074 44.4814C41.5017 44.4942 41.393 44.5098 41.2832 44.5283C41.3626 44.4014 41.4408 44.2724 41.5166 44.1426C41.0343 42.0522 41.1336 37.3725 41.8516 35.1016C41.2703 34.8329 40.8434 34.5519 40.6826 34.4336C40.0841 33.972 40.8279 32.5817 41.3262 31.2773C40.9929 30.4124 40.6155 29.6052 40.2129 28.8574C39.3452 28.7208 38.4088 28.4827 38.5 27.6738C38.5574 27.2234 38.6211 26.8125 38.6865 26.4385C38.42 26.0759 38.152 25.7354 37.8848 25.4199C38.2556 25.2256 38.6379 25.0466 39.0244 24.8867C39.1681 24.356 39.3152 23.947 39.4521 23.6299C39.5274 23.7224 39.6048 23.8163 39.6816 23.9131ZM27.958 38.4121C27.9655 38.4752 27.9709 38.5391 27.9795 38.6016C28.5102 38.5397 29.1669 38.8179 29.8428 39.2988C29.8663 39.1103 29.8914 38.9196 29.916 38.7266C30.1254 38.7609 30.3283 38.7959 30.5254 38.8291C30.4367 39.0575 30.3433 39.3163 30.248 39.6104C31.8881 40.9532 33.5215 43.316 33.6592 44.7646L33.6572 44.7656C32.4243 43.4429 31.1658 42.1485 29.8721 40.8955C29.7601 41.3092 29.641 41.7668 29.5195 42.2734C29.5668 41.7312 29.6193 41.2155 29.6758 40.7061C28.8748 39.9352 28.0604 39.1796 27.2285 38.4453C27.2303 38.3962 27.2344 38.3467 27.2373 38.2969C27.4835 38.336 27.7239 38.3749 27.958 38.4121ZM46.0537 34.1367C47.7308 28.7756 49.6072 26.9853 53.1729 28.624C53.2413 28.8872 53.3068 29.1528 53.3701 29.4199C53.205 30.3461 52.9257 31.4073 53.0254 32.4043C51.6776 35.3972 52.5651 36.7717 53.4424 39.1865C52.8843 40.4725 52.1647 42.4552 51.3828 44.0664C50.8897 40.9525 48.8566 37.2966 45.9131 34.5029C45.9647 34.3904 46.0131 34.2689 46.0537 34.1367ZM33.3057 39.3652C35.3044 39.8357 36.1373 40.3504 36.3057 41.3457C36.3828 41.802 36.2618 42.3901 36.04 42.9912C35.1394 41.7635 34.2169 40.5704 33.3057 39.3652ZM323.928 41.1143C323.854 41.6356 323.972 42.03 324.245 42.3096C324.648 42.7691 325.408 42.9567 326.133 42.9561C326.827 42.9436 327.648 42.8022 327.388 42.3232C326.486 42.0477 325.325 41.6878 323.928 41.1143ZM180.195 13.0078C180.019 15.1687 180.073 18.0212 179.987 20.4629C179.339 20.8519 178.685 21.2152 178.04 21.6035C177.521 19.858 176.996 18.0275 176.479 16.3535C175.427 16.0657 176.39 18.437 176.172 18.7354C176.17 18.7259 176.166 18.7155 176.164 18.7061C173.032 22.9299 171.331 22.9594 166.916 18.251C168.242 23.6644 169.569 29.0787 170.896 34.4922C171.465 33.8055 172.038 33.1299 172.605 32.458C172.26 29.4593 171.916 26.458 171.572 23.459C172.773 24.8651 173.945 26.2666 175.142 27.6738C175.528 26.4705 176.033 25.1806 176.336 24.0264C183.235 38.3754 173.457 29.8749 174.933 36.1719C175.877 40.22 183.148 38.2511 183.516 35.208C183.565 34.7579 179.23 23.8835 183.343 29.0986C183.988 29.9228 190.086 54.2643 188.151 33.8203C187.88 30.9187 182.75 16.1205 180.195 13.0078ZM303.129 23.1123C301.367 31.716 306.066 30.7812 306.632 31.2393C309.256 33.2213 309.564 42.3935 311.82 39.4922C311.29 36.5636 310.78 33.6192 310.248 30.6768C309.476 29.687 308.804 28.7011 308.271 27.7666C307.279 25.9511 306.568 24.4584 306.058 23.2285C305.395 24.4651 304.837 25.8778 303.129 23.1123ZM31.2148 38.251C31.6372 38.4102 32.0054 38.5376 32.3359 38.5332C32.4461 38.5343 32.5524 38.5179 32.6533 38.4932C32.8702 38.7846 33.0869 39.0759 33.3057 39.3652C32.5532 39.1881 31.6355 39.016 30.5254 38.8291C30.6325 38.5533 30.7333 38.3218 30.832 38.1309C30.9644 38.1668 31.0929 38.2119 31.2148 38.251ZM328.716 29.248C328.462 29.4634 328.184 29.6653 327.877 29.8496C327.427 30.0494 323.591 29.2873 327.706 35.582C326.615 36.7062 325.786 37.6847 325.186 38.5264C326.424 38.9393 327.435 39.1507 328.142 39.2637C328.449 38.5617 328.381 35.503 330.271 30.6104C329.922 30.2065 329.398 29.7927 328.716 29.248ZM29.5449 37.125C29.645 37.5197 29.7226 37.9206 29.7686 38.3184C29.8414 38.2604 29.9134 38.2146 29.9844 38.1787C29.9606 38.3642 29.9389 38.5467 29.916 38.7266C29.3156 38.6281 28.664 38.5242 27.958 38.4121C27.9202 38.094 27.8939 37.7685 27.8809 37.4365C27.905 37.4584 27.9302 37.4788 27.9561 37.498C28.224 37.7618 28.7554 37.7006 29.5449 37.125ZM25.3164 37.9883C25.3152 38.0991 25.3135 38.2117 25.3057 38.3252C25.2283 38.1254 25.15 38.0117 25.0703 37.9482C25.1529 37.9616 25.235 37.9751 25.3164 37.9883ZM23.9619 32.7109C24.0192 32.1013 24.4121 31.5523 25.6035 31.9043C26.0658 32.058 26.6823 32.3886 27.3506 33.0566C27.2219 34.456 27.17 35.853 27.4688 36.7432C27.347 37.2846 27.2658 37.8074 27.2373 38.2969C26.6344 38.2011 25.9947 38.098 25.3164 37.9883C25.333 36.5148 24.7938 35.2944 24.4541 34.6846C24.066 33.9907 23.8356 33.6966 23.7285 33.4688C23.5181 33.0442 23.697 32.9127 23.9619 32.7109ZM27.9473 35.0459C27.8816 35.8655 27.8508 36.668 27.8809 37.4365C27.6987 37.2717 27.5663 37.0339 27.4688 36.7432C27.5927 36.1918 27.7573 35.6209 27.9473 35.0459ZM280.18 36.8135C283.136 35.9319 282.354 13.4831 278.084 24.3154C277.453 25.9362 277.923 37.492 280.18 36.8135ZM56.1592 36.3379C56.1937 36.0549 56.2282 35.7717 56.2627 35.4883C56.1892 35.468 56.1182 35.4441 56.0479 35.4229C56.0844 35.7283 56.1233 36.0332 56.1592 36.3379ZM291.979 24.9111C290.821 26.4961 290.464 27.9963 289.874 28.6797C290.149 29.3685 290.466 30.1071 290.832 30.8975C291.204 30.0977 291.735 29.7011 292.695 30.2754C292.829 30.361 292.973 30.4678 293.124 30.5977C293.655 31.0658 293.515 37.5276 295.291 35.2314C294.281 31.918 293.177 28.2403 292.077 24.7744C292.044 24.8196 292.011 24.866 291.979 24.9111ZM167.764 32.6641C169.39 26.5736 161.479 23.905 160.062 26.541C160.979 28.6831 167.2 34.7617 167.764 32.6641ZM293.632 14.4346C291.356 17.5041 297.279 31.0774 297.73 30.9717C302.378 29.7362 294.136 18.8779 293.632 14.4346ZM314.981 30.2354C315.759 28.4838 315.798 21.0317 314.106 22.5303C313.923 22.7025 314.255 26.5478 313.686 27.3262C313.129 28.0958 311.734 25.4348 311.674 27.8018C311.672 27.8668 311.673 27.932 311.676 27.9961C312.311 28.9577 313.056 29.9438 313.919 30.9189C314.359 30.9567 314.755 30.7571 314.981 30.2354ZM378.887 28.9805C378.381 28.8667 377.759 28.7506 377.191 28.502C377.147 28.46 377.092 28.4228 377.024 28.3936L378.887 28.9805ZM286.86 28.29C286.881 28.1854 286.901 28.0803 286.922 27.9766C286.877 27.9427 286.83 27.9096 286.783 27.874C286.809 28.0123 286.834 28.1515 286.86 28.29ZM35.042 22.8516C35.8159 23.3154 36.8387 24.1848 37.8848 25.4199C36.9968 25.8852 36.1712 26.4425 35.4932 27.0557C35.0763 25.7607 34.5808 24.5479 34.5928 22.5732C34.739 22.6601 34.8888 22.7526 35.042 22.8516ZM192.636 19.6602C191.083 19.6852 191.022 11.3841 189.226 13.1982C186.925 15.5286 193.452 26.7618 195.655 26.0283C195.054 17.752 194.19 19.6294 192.636 19.6602ZM324.866 25.9766C324.916 25.953 324.966 25.9272 325.017 25.9023C324.543 25.4049 324.041 24.8516 323.518 24.2305C324.033 24.8986 324.48 25.477 324.866 25.9766ZM380.455 15.1396C383.779 19.9213 384.219 21.4248 384.885 22.6289C385.044 22.9509 385.179 23.2148 385.29 23.4355C385.007 23.2939 384.652 23.2302 384.222 23.3115C384.068 23.3309 384.329 23.9635 384.157 24.458C383.988 24.9693 383.379 25.3312 381.643 25.6572C379.587 26.3541 378.197 24.6805 376.104 23.3887C376.502 22.8268 378.926 20.1874 378.706 19.1387C379.676 18.3076 380.103 16.5459 380.136 14.7979C380.242 14.9103 380.35 15.0228 380.455 15.1396ZM224.518 14.2432C222.726 27.0099 228.156 26.6263 231.192 23.6455C232.883 22.0029 233.829 19.5771 232.494 18.0703C232.366 17.926 231.413 18.6081 230.177 19.0469C228.167 19.7638 225.42 19.8086 224.518 14.2432ZM385.29 23.4355C385.741 23.6615 386.008 24.0874 386.106 24.4482C386.175 24.707 386.154 24.9554 385.836 24.458C385.712 24.2597 385.566 23.9828 385.29 23.4355ZM249.44 2.78223C246.7 5.02702 246.957 8.18253 243.439 3.86426C245.926 12.4175 249.216 14.3421 244.664 19.6914C245.282 21.3492 245.903 22.9922 246.516 24.6514C247.377 24.3192 248.251 23.9874 249.132 23.6689C246.835 -2.53858 257.662 25.4319 250.832 7.86133C250.098 5.95035 248.32 8.58945 249.452 2.79395C249.448 2.78998 249.444 2.78621 249.44 2.78223ZM35.0225 19.1348C41.0025 24.2795 40.5193 21.1588 39.4521 23.6299C37.5035 21.2355 36.0796 20.2784 35.0391 19.6025C35.0057 19.5827 34.9712 19.5641 34.9385 19.5449C34.9655 19.4111 34.9918 19.2739 35.0225 19.1348ZM373.628 17.5234C374.774 18.6298 375.745 19.2478 376.559 19.498C376.157 20.5244 375.484 22.4656 375.271 22.3418C373.257 21.1054 374.128 18.3218 370.995 22.0889C370.913 22.0952 370.831 22.1036 370.747 22.1123C371.621 20.5899 372.735 19.0975 373.628 17.5234ZM156.958 7.25098C153.024 6.91966 158.992 20.4784 161.453 20.9072C159.426 18.5304 159.186 7.44288 156.958 7.25098ZM328.576 16.8398C327.82 17.8398 327.085 18.8517 326.365 19.8711C326.9 19.783 327.472 19.6706 328.088 19.5234C328.376 19.454 328.654 19.3832 328.923 19.3154C328.904 18.5619 328.796 17.7385 328.576 16.8398ZM376.849 18.8838C378.1 18.5512 378.617 18.7165 378.706 19.1387C378.166 19.6009 377.459 19.7749 376.559 19.498C376.698 19.1422 376.805 18.8954 376.849 18.8838ZM312.549 16.627C311.292 16.4827 310.299 16.6848 309.539 17.1348C309.132 17.421 308.762 17.7737 308.582 18.46C309.967 18.0997 311.624 17.3647 313.006 17.1377C312.805 16.7812 312.688 16.6605 312.549 16.627ZM352.341 0C352.866 1.32194 353.209 2.60876 353.25 3.58203C353.421 5.77155 352.906 6.88756 352.372 7.50488C351.817 8.10596 351.189 8.27875 350.498 7.75977C350.289 7.61578 350.351 6.50598 348.645 3.4541C348 2.33278 346.894 1.00197 345.693 0H352.341Z" fill="url(#paint0_linear_206_67)" fill-opacity="0.5"/>
<defs>
<linearGradient id="paint0_linear_206_67" x1="218.721" y1="-77.4932" x2="310.174" y2="36.0448" gradientUnits="userSpaceOnUse">
<stop stop-color="#C7A771"/>
<stop offset="1" stop-color="#DFD0B8"/>
</linearGradient>
</defs>
</svg>
