<svg width="393" height="110" viewBox="0 0 393 110" fill="none" xmlns="http://www.w3.org/2000/svg">
<path d="M152.23 0C152.75 0.555106 153.376 1.11873 154.127 1.68652C153.79 1.11573 153.553 0.550138 153.391 0H262.48C262.568 5.94531 270.47 14.7405 271.229 11.2305C272.306 6.55917 269.532 2.3574 266.859 0H276.705C276.873 0.839182 277.044 1.57903 277.202 2.14941C278.174 5.69344 279.731 1.69943 280.129 2.21875C281.389 3.93994 279.637 5.49095 281.296 7.86035C281.85 8.62133 287.962 11.33 288.139 10.8711C289.019 8.59321 286.497 2.2137 286.024 0H309.772C309.231 1.38455 309.506 2.69857 311.442 3.54688C311.873 3.70503 318.883 2.49326 319.464 1.29199C319.643 0.899336 319.73 0.461046 319.741 0H326.777C326.924 1.54316 327.557 2.90033 328.869 3.54492C329.876 4.08603 331.115 2.27454 331.908 0H385.228C386.114 3.54078 385.893 4.96345 386.156 6.17969C386.292 7.96541 386.205 8.38177 386.117 8.69727C386.021 8.97237 385.889 9.015 385.751 9.05469C385.871 13.8283 385.787 18.4752 385.625 22.665C383.778 20.9227 381.941 19.0388 380.163 17.0859C380.252 18.0563 380.221 19.1242 380.047 20.0986C378.253 18.2871 376.385 17.0414 375.262 16.5645C373.894 15.9606 373.314 16.0372 373.145 16.0352C372.205 16.1555 371.187 18.0806 370.105 19.6768C369.072 21.3061 368.076 22.7015 368.367 22.6094C368.996 22.5179 371.099 19.1836 371.859 18.0605C372.736 16.9909 372.04 18.0532 369.776 27.9551C370.708 26.8121 371.37 26.0742 371.858 25.6348C372.505 25.673 373.094 25.7875 373.636 25.957C373.888 26.3948 374.212 26.9146 374.797 27.3047C374.88 27.358 375.043 27.0825 375.236 26.668C375.647 26.9045 376.03 27.166 376.392 27.4375C375.94 27.972 375.576 28.3763 375.542 28.4658C373.434 34.5139 378.551 33.5782 379.227 34.5098C379.4 34.7541 379.576 34.999 379.753 35.2422L376.987 34.2861C383.086 41.3808 386.726 46.3073 393 48.959V99.9102C392.709 100.088 392.409 100.211 392.095 100.254C389.49 100.587 387.493 93.8954 384.41 96.8076C378.717 101.853 388.445 101.656 393 101.912V107.601C392.843 107.82 392.719 107.959 392.643 107.979C390.651 108.585 388.309 104.781 386.725 104.826C381.021 105.004 376.51 109.219 371.023 109.099C366.012 108.973 361.493 108.634 357.451 108.31L351.993 106.425C341.687 103.365 332.915 106.532 307.632 85.3193C303.558 81.3788 300.533 76.5297 298.728 72.209C297.251 69.4872 296.314 67.4143 295.688 65.7578C295.516 65.8 295.324 65.8234 295.107 65.8232C293.511 65.8265 292.484 61.6733 292.249 61.5361C290.156 60.4425 290.773 65.9878 289.383 66.4023C281.447 68.7751 272.838 66.7003 264.457 67.9219C263.842 68.0075 263.354 65.587 262.994 65.792C261.465 66.739 263.102 70.367 261.443 71.0156C257.97 72.389 254.113 72.599 250.143 73.0215C249.751 73.0611 248.801 70.0232 247.925 70.2266C247.058 70.4315 247.112 73.5145 245.709 73.6787C245.097 73.7509 244.459 73.7399 243.802 73.6758C240.536 73.3453 236.846 71.6485 233.553 72.3086C232.901 72.4461 233.088 76.3453 232.117 76.5498C229.053 77.1957 223.606 75.0113 220.935 75.5771C212.142 77.4613 204.646 81.7182 196.351 83.9727C194.403 84.4927 191.692 81.5485 190.656 81.7393C188.305 82.1834 190.954 84.9426 188.635 85.5811C177.397 88.6487 165.95 91.2274 153.924 93.9209C145.59 95.7604 137.352 97.6694 127.335 99.791C121.062 101.145 111.398 104.252 102.95 105.287C100.161 105.754 97.4086 106.012 94.8057 105.807C91.3945 105.524 90.522 100.93 88.0869 100.959C83.6986 101.017 83.1475 106.959 78.1504 107.582C74.0959 108.058 69.2488 102.1 64.3613 102.187C60.359 102.237 57.6977 105.823 52.8135 107.013C52.1187 107.358 51.3963 107.585 50.5811 107.608C47.1543 107.706 42.714 104.47 38.8564 104.334C35.3769 104.211 31.868 104.057 27.9893 103.765C26.0392 103.615 24.0179 103.437 21.6348 103.142C18.9874 102.743 17.261 102.749 10.6465 100.944C8.71438 100.48 6.18484 99.9256 1.33398 98.1406C0.904303 97.9701 0.4641 97.7975 0 97.6152V59.2822C1.69381 61.5279 3.0505 62.8418 4.15918 63.9639C6.79946 66.5301 8.35359 67.845 9.82031 69.0498C12.6469 71.3349 14.9293 72.5994 17.6602 72.4453C18.5668 66.7991 18.317 64.4617 16.5938 63.3252C15.6935 62.7285 14.4961 62.503 12.2461 61.8252C11.0775 61.4331 9.70324 61.0575 7.26172 59.5635C6.03564 58.7652 4.47786 57.7346 2.4082 55.3135C1.68539 54.4677 0.8158 53.2718 0 51.7695V41.1592C1.7936 40.9698 3.59019 40.7856 5.41895 40.5186C5.16208 41.1458 4.94436 41.6035 4.73047 41.8184C4.43582 46.9563 6.54816 50.4497 7.65234 52.2354C8.87357 54.1095 9.73678 55.0762 10.4062 55.8896C11.7404 57.4545 12.4362 58.2348 13.002 58.8848C14.086 60.1229 14.4977 60.5468 14.9541 60.6514C15.7773 60.7986 16.9009 59.6516 20.0957 57.9443C20.7511 57.5886 22.0506 57.9191 23.252 57.8438C25.9935 58.0103 27.5828 56.8953 27.4004 52.1826C27.3438 51.2467 26.4354 50.6266 25.5996 49.8184C24.9105 49.0448 24.3456 48.1672 24.9561 46.8496C25.0462 46.6595 25.7436 46.535 26.5723 46.4912C27.8851 46.4163 29.5437 46.4 29.6777 46.8955C32.6199 56.743 23.3146 61.6073 36.8594 60.5254C37.2219 60.4833 37.8036 57.1971 38.5498 56.8428C39.9461 56.1821 39.4526 60.0168 40.7188 59.3057C41.342 58.9562 42.1919 57.6003 43.0273 56.8916C42.0479 55.9478 40.7314 54.5345 38.9531 52.5781C39.0919 52.7529 39.2207 52.9129 39.3379 53.0586C38.6754 52.3299 38.0279 51.6182 38.6367 51.5273C39.2027 51.4032 39.8794 51.0739 40.502 50.5244C41.8173 50.7824 41.7889 48.3268 42.4541 48.7598C42.9236 49.1628 43.3416 49.6213 43.71 50.1133C43.0553 53.9613 42.3409 57.1834 45.8301 55.2139C45.9795 56.1127 46.0004 56.9061 45.9062 57.4707C45.7774 58.0408 45.5893 58.3634 45.2578 58.3936C45.2809 58.4857 45.3069 58.5817 45.3291 58.6816C47.4078 67.8252 39.3201 71.7607 36.5029 66.6094C34.1981 75.5354 49.186 79.7584 55.875 80.5674C58.2629 80.8721 59.8322 80.86 60.2314 80.7021C66.7162 77.8954 60.1336 78.2116 56.3242 76.6846C55.5148 76.2881 54.9377 75.7758 54.8955 75.0479C54.8202 73.6783 56.9096 56.7897 52.9502 67.3936C51.7722 70.536 54.5923 75.2769 52.3965 76.7979C50.2015 78.3158 51.5703 73.4511 51.4697 73.0791C51.1217 71.8229 48.7867 73.3716 48.5918 72.6279C45.6704 61.3245 48.0112 45.2026 50.71 69.8857C53.7699 64.816 49.2559 55.433 52.6826 52.1797C56.1973 48.8398 57.9791 54.0729 58.7148 56.0303C58.8564 56.3904 58.9635 56.6398 59.0332 56.7041C64.5003 61.466 58.821 49.5462 65.3721 53.7109C69.1806 55.9534 59.1122 60.9235 68.2041 60.6758C75.7256 60.2642 71.6172 56.1759 72.1738 47.2109C72.3009 45.1092 76.0106 42.5908 70.9355 43.4287C70.7803 45.7663 70.4837 48.8457 70.1289 50.9951C68.79 49.2498 67.0706 37.4481 66.5352 37C65.6231 36.2996 64.9737 36.4839 64.4775 36.7861C64.4583 37.0839 64.3618 37.3925 64.167 37.709C64.0131 37.5623 63.8629 37.4249 63.7197 37.2949C63.4472 37.4234 63.2289 37.3407 63.0127 36.6836C62.8383 36.5415 62.6737 36.413 62.5176 36.2998C62.4665 39.8567 61.5193 37.4787 60.8125 37.9111C60.7117 37.9577 60.6143 38.042 60.5225 38.1738C56.9739 43.2692 59.89 46.0673 55.7412 39.9658C55.645 38.1702 55.4025 36.4132 55.0537 34.7246C54.5993 34.0563 54.4958 33.2843 54.5264 32.5039C54.0878 30.8717 53.5594 29.3204 52.9824 27.8799C52.0612 27.8548 50.7125 28.0658 48.7588 28.5938C49.8513 27.6507 51.1021 26.9805 52.1455 25.9336C52.0771 25.7852 52.0086 25.6375 51.9395 25.4922C50.8449 24.175 49.458 21.6375 48.165 19.2656C45.5726 15.7663 43.5439 13.9615 42.0537 12.6123C40.4457 12.6577 39.7488 14.6122 38.3818 15.0645C37.5254 15.3526 36.7671 13.008 36.6924 13.0225C35.5035 13.4089 37.5456 16.3185 36.7383 17.0557C35.7259 17.9742 30.5884 16.9973 30.2334 17.6641C29.3293 19.3654 35.2892 23.9655 35.4131 24.5039C35.4433 24.627 35.4662 24.7451 35.4863 24.8564C34.9187 24.4097 34.3147 23.8408 33.7646 23.1221C31.6741 31.1965 36.0542 30.1994 33.5645 38.708C33.5569 38.7314 33.5476 38.7552 33.54 38.7783C33.6508 39.2163 33.7468 39.6763 33.8213 40.1582C33.6467 39.9357 33.4736 39.7111 33.3008 39.4863C32.7461 41.0496 32.3076 41.7814 31.9365 42.0557C32.4743 42.513 32.9933 43.0615 33.4424 43.6426C33.1321 44.1299 32.7447 44.3955 32.3438 44.4316C31.3613 43.4867 30.363 42.5597 29.3486 41.6543C29.2608 41.7793 29.1681 41.9335 29.0723 42.1201C28.8681 41.9833 28.6458 41.8694 28.4131 41.8594C28.4674 41.5748 28.5236 41.2815 28.583 40.9785C28.5003 40.9062 28.417 40.8328 28.334 40.7607C28.2916 40.8004 28.2525 40.8404 28.2148 40.877C27.9466 41.0223 27.7032 41.1279 27.4844 41.1982C27.107 39.7812 26.362 38.6951 25.7031 38.0547C25.8986 36.02 26.5418 33.6021 26.626 32.6094C26.7278 31.8323 26.6171 31.0852 27.2773 30.9639C27.5583 30.9517 27.9631 30.9786 28.7725 31.5195C29.0159 30.6261 29.5229 29.2496 26.5908 25.9189C24.6372 23.6633 19.8953 19.1035 17.9561 15.8789C18.9443 18.3651 20.0901 21.1488 21.2217 23.6885C18.3209 26.7404 16.276 24.8075 10.6758 23.3555C12.2983 24.6308 19.7716 29.269 15.4004 29.9248C15.1363 30.0044 12.9151 27.7462 10.0889 28.8115C5.60976 30.7928 2.87509 34.1511 0 29.5V19.8418C0.842548 20.4973 1.69311 21.1475 2.55957 21.7832C5.91054 18.8995 14.3064 16.8399 13.252 14.0234C11.72 8.95429 7.63286 10.6148 4.08301 12.7148C2.34183 13.7179 0.818837 14.766 0.554688 13.873C0.255493 13.0884 1.29621 10.2665 3.52441 5.92285C3.19563 6.06733 2.86717 6.21566 2.54004 6.36426C1.59242 6.79704 0.760381 7.23505 0 7.67871V0H152.23ZM34.1885 68.3965C32.2351 62.6162 31.1025 72.1869 27.8877 67.1348C27.1576 74.2091 26.5817 81.1539 26.0107 88.1816C29.3941 87.7246 30.3875 85.1513 33.2803 87.3682C33.238 85.0552 33.1728 82.7229 33.1475 80.3975C32.5708 80.7999 31.9355 81.2608 31.3662 81.6055C31.5286 75.1762 36.4777 75.009 34.1992 68.3838C34.1957 68.3878 34.192 68.3925 34.1885 68.3965ZM39.8311 83.3818C41.1955 79.7962 37.4331 76.076 36.0254 79.377C33.7372 84.7271 37.7525 88.8343 39.8311 83.3818ZM169.77 66.3887C167.501 66.201 158.841 73.3827 163.792 78.6406C165.267 80.1726 167.225 70.2497 169.021 70.1758C170.17 70.1314 170.31 75.2519 171.957 72.916C171.264 70.8285 170.541 68.5005 169.768 66.4053C169.768 66.4003 169.769 66.3937 169.77 66.3887ZM165.74 37.4512C163.841 38.88 161.998 40.5385 160.104 42.0215C163.219 47.064 165.308 42.7314 167.665 50.3682C167.242 51.1084 166.835 51.8418 166.404 52.584C165.476 51.0248 164.555 49.4609 163.639 47.8984C162.988 52.5639 164.671 54.3464 160.896 54.0557C166.252 65.1225 168.419 71.2536 170.981 57.9209C171.653 64.5247 178.532 84.7772 177.633 69.2246C177.47 66.3374 174.4 65.2028 174.249 64.7754C172.328 59.4875 172.76 55.6662 170.895 50.6846C170.051 48.4319 168.516 48.8804 167.371 45.7461C166.823 44.2138 167.036 39.3644 165.74 37.4512ZM151.743 51.4844C150.531 51.4686 152.471 55.7002 151.846 57.2646C151.207 58.844 146.753 55.948 147.593 58.6748C148.43 61.4142 156.705 66.9265 150.796 70.1201C151.434 71.6126 151.678 72.7874 152.165 74.1592C153.949 73.7415 155.715 73.3528 157.456 72.9395C155.265 68.7381 152.996 64.3069 150.892 60.2412C150.883 56.4462 152.694 60.8413 152.742 60.833C152.741 60.8285 152.739 60.8229 152.737 60.8184C154.436 59.991 154.467 51.5124 151.743 51.4844ZM217.61 53.0078C203.829 54.2856 215.265 58.0851 216.494 73.0801C218.189 72.6795 219.868 72.2837 221.558 71.8887C220.871 71.1067 220.19 70.3258 219.501 69.5449C219.499 69.5454 219.496 69.5464 219.494 69.5469C218.861 64.0357 218.237 58.5197 217.61 53.0078ZM183.988 72.1494C186.346 68.8888 179.444 62.8103 177.75 63.6592C178.017 67.1036 182.481 74.2452 183.988 72.1494ZM82.8369 38.6816C80.3434 34.4845 78.2764 34.5922 75.5273 34.874C78.1521 41.0528 76.5439 41.7704 75.6982 43.2852C74.4291 45.5638 77.6097 45.3769 77.6396 45.7881C77.7361 51.6607 75.6575 52.6047 80.4297 52.4082C79.3258 54.4726 78.1965 56.5486 77.0439 58.5859C80.7579 58.8313 81.7621 62.6371 84.3428 67.2686C81.5541 55.8772 84.9155 62.9799 87.3408 57.2041C88.5287 54.3133 84.0705 40.8336 82.8281 38.6816C82.8309 38.6816 82.8341 38.6817 82.8369 38.6816ZM187.724 48.2998C185.051 48.141 183.826 42.6798 180.793 43.1299C175.245 43.951 182.337 45.7986 184.68 48.7432C172.929 54.7596 185.84 47.4531 190.209 58.167C190.837 54.6141 191.66 46.6554 187.94 45.5791C186.394 45.1347 187.803 48.2833 187.724 48.2998ZM44.1934 46.0088C44.5415 45.9796 44.7986 45.9929 44.8916 46.0488C48.3816 48.2726 48.6886 52.0496 50.7139 51.4893C48.5438 53.3844 46.9646 54.5734 45.8301 55.2139C45.5649 53.6192 44.8905 51.6906 43.71 50.1133C43.9408 48.7562 44.1649 47.3208 44.1934 46.0088ZM39.3379 53.0586C39.5333 53.2735 39.7304 53.4909 39.8965 53.6934C40.6115 54.4742 40.8507 54.9391 39.3379 53.0586ZM151.586 13.9365C151.199 14.3751 150.85 14.8742 150.466 15.3262C158.96 29.7895 139.166 17.3642 149.302 28.4336C149.432 36.0773 149.757 35.8935 153.418 41.7412C153.74 42.2672 152.999 44.5709 153.171 44.7959C155.911 47.8304 157.54 45.4044 159.34 51.7617C159.724 51.2953 160.093 50.8721 160.482 50.4043C156.788 44.9459 158.827 40.0719 158.626 34.6865C158.539 32.2468 157.051 31.8831 156.956 29.7529C156.932 28.9744 159.118 29.9583 158.601 27.8408C157.405 23.0561 154.484 16.9385 151.59 13.9492C151.589 13.9452 151.587 13.9406 151.586 13.9365ZM50.752 39.457C52.8874 42.4628 53.9904 45.7712 53.4727 48.2324C53.9049 47.2757 54.3071 46.2159 54.6309 45.1826C54.7808 44.727 54.9134 44.2714 55.0342 43.873C55.2477 45.5985 55.46 47.324 55.6826 49.0615C54.867 49.0681 54.0416 49.0744 53.2178 49.0791C52.953 49.7276 52.5466 50.2938 51.9844 50.749C51.489 51.1553 51.0735 51.3896 50.7139 51.4893C51.345 50.9381 52.0279 50.3278 52.7627 49.6533C52.8654 49.471 52.9662 49.2776 53.0674 49.0791C53.057 49.0792 53.0465 49.08 53.0361 49.0801C52.8098 43.755 50.7618 42.0517 50.752 39.457ZM186.675 16.4385C182.146 25.1581 190.341 36.0181 196.431 42.2119C196.549 40.5924 196.682 38.9655 196.799 37.3613C196.89 46.9883 195.148 56.9883 202.396 46.6543C196.632 45.913 200.281 42.3532 200.178 41.835C196.127 25.1844 190.575 34.892 186.681 16.4375C186.679 16.4379 186.676 16.438 186.675 16.4385ZM33.8213 40.1582C35.803 42.6834 37.8847 45.0836 39.7549 47.8086C39.9486 48.9227 40.2644 49.5619 40.6973 49.2412L40.6982 49.2402C40.9435 49.0572 41.228 48.5662 41.5469 47.6787C41.5978 47.5345 41.6593 47.1478 41.7295 46.6172C41.9368 46.5215 42.1568 46.4385 42.3809 46.3682C42.3455 47.0796 42.2071 47.7352 42.0049 48.291C41.6568 49.2547 41.1042 49.9928 40.502 50.5244C39.7955 50.3857 38.7009 49.4645 36.9043 46.8916C41.6069 54.8319 36.8262 48.7658 35.8291 48.8271C34.8267 48.8098 34.7485 48.8606 34.9453 48.6162C35.1387 48.3865 35.536 47.9079 35.377 47.376C35.3148 47.143 35.1586 46.9108 34.8799 46.6553C34.7816 45.7447 34.2159 44.6438 33.4424 43.6426C33.4822 43.58 33.5235 43.5142 33.5605 43.4443C33.8231 43.0097 33.9542 42.3074 33.998 42.1328C33.9771 41.4377 33.9172 40.7792 33.8213 40.1582ZM271.759 45.5693C269.589 44.6105 269.362 39.8005 266.77 45.9941C266.772 45.9936 266.776 45.9927 266.778 45.9922C271.185 49.0862 276.384 51.6362 279.566 47.249C276.21 42.7468 275.162 47.0702 271.759 45.5693ZM37.6426 27.8867C42.4947 24.2541 51.6043 23.2622 45.1455 34.1055C45.401 34.2663 45.6529 34.4348 45.9004 34.6084C45.355 35.5533 44.8629 36.7886 44.3887 38.3145C44.1377 39.1145 43.6809 39.5359 43.1279 39.7139C43.2736 40.5952 43.3764 41.5288 43.4199 42.5098C44.0383 43.3851 44.2231 44.6294 44.1934 46.0088C43.9096 46.0326 43.5645 46.0848 43.1982 46.165C42.9297 46.2151 42.6521 46.283 42.3809 46.3682C42.4078 45.8247 42.3752 45.2469 42.2617 44.6553C42.2087 44.3845 42.1318 44.0978 42.0352 43.8213C41.9369 44.8639 41.8269 45.8808 41.7295 46.6172C40.6619 47.1101 39.9285 47.9469 40.6807 49.2129C40.3798 48.734 40.0693 48.2668 39.7549 47.8086C39.4288 45.9319 39.4502 42.7086 39.8486 40.458C39.7375 39.9054 39.6015 39.3595 39.4453 38.8271C39.2184 38.6924 39.0483 38.5796 38.9688 38.5156C38.6614 38.2727 38.7068 37.7906 38.8916 37.2041C38.1313 35.2457 37.1255 33.5489 36.1172 32.3945C35.824 31.4887 35.6029 30.7885 35.4443 30.2344C35.8234 29.5678 36.3955 28.9208 37.0889 28.3291C37.1888 28.3975 37.2939 28.4729 37.4023 28.5576C37.4818 28.3021 37.5637 28.0798 37.6426 27.8867ZM242.972 42.5762C240.525 31.3633 241.032 44.4028 240.343 46.0332C239.623 47.6601 237.145 43.8889 238.908 48.5439C241.438 51.4369 243.24 43.8269 242.968 42.5605C242.969 42.5652 242.971 42.5716 242.972 42.5762ZM33.8887 45.9443C34.3199 46.2069 34.6442 46.4393 34.8799 46.6553C34.8908 46.757 34.8986 46.8575 34.8975 46.9541L34.8945 46.9551C34.5613 46.6161 34.2252 46.2795 33.8887 45.9443ZM28.5781 43.292C28.3246 43.9842 28.0407 44.8839 27.7256 46.042C27.861 45.0138 28.0094 44.0823 28.1826 43.1084C28.3166 43.1703 28.4487 43.232 28.5781 43.292ZM29.2393 42.2383C29.6856 42.5912 30.0494 43.0071 30.3809 43.332C31.0405 43.9878 31.5945 44.373 32.1289 44.4297C32.2006 44.4378 32.2724 44.4381 32.3438 44.4316C32.8625 44.9306 33.378 45.4357 33.8887 45.9443C32.8407 45.3062 31.1598 44.4885 28.5781 43.292C28.7564 42.8053 28.9186 42.4195 29.0723 42.1201C29.1291 42.1582 29.1853 42.1983 29.2393 42.2383ZM179.331 16.0146C179.229 18.1858 179.38 21.0467 179.38 23.4971C178.737 23.9029 178.088 24.2818 177.446 24.6875C176.859 22.9496 176.263 21.1253 175.681 19.459C174.606 19.1962 175.664 21.5511 175.454 21.8564C175.451 21.8472 175.449 21.8364 175.446 21.8271C172.419 26.1398 170.699 26.209 166.059 21.5947C167.592 26.9915 169.126 32.3903 170.659 37.7871C171.209 37.0855 171.772 36.3919 172.321 35.7051C171.866 32.7064 171.412 29.7041 170.958 26.7051C172.221 28.0867 173.464 29.4629 174.724 30.8457C175.071 29.6302 175.541 28.3226 175.807 27.1582C183.297 41.3803 173.098 33.0936 174.809 39.373C175.911 43.4086 183.207 41.2584 183.472 38.1982C183.506 37.7432 178.734 26.9455 183.084 32.0742C183.768 32.8907 190.794 57.1469 188.12 36.6934C187.744 33.7896 182.027 19.0753 179.331 16.0146ZM54.2656 37.8486C54.8388 38.6478 55.3244 39.3529 55.7412 39.9658C55.79 40.8778 55.8033 41.801 55.7715 42.7295C55.5395 42.3066 55.3193 42.9324 55.0342 43.873C54.7868 41.8738 54.5374 39.8722 54.2656 37.8486ZM324.908 42.4531C324.935 42.6276 324.991 42.783 325.077 42.917C325.356 43.4161 325.935 43.6656 326.49 43.7295C327.011 43.7798 327.659 43.7096 327.216 43.252C326.573 43.0477 325.796 42.7911 324.908 42.4531ZM26.0352 40.8877C26.3179 41.2795 26.7768 41.4255 27.4844 41.1982C27.5712 41.5244 27.6403 41.8687 27.6826 42.2285C27.9323 41.9456 28.1786 41.8494 28.4131 41.8594C28.331 42.2898 28.2547 42.7032 28.1826 43.1084C27.5318 42.8076 26.8266 42.4826 26.0635 42.1328C26.0903 41.693 26.0777 41.2768 26.0352 40.8877ZM26.0635 42.1328C26.0622 42.1545 26.063 42.1774 26.0615 42.1992C26.0491 42.1692 26.0337 42.1412 26.0215 42.1143C26.0353 42.1206 26.0497 42.1265 26.0635 42.1328ZM24.9951 41.6426C25.1323 41.6714 25.2702 41.6634 25.3994 41.6475C25.6122 41.6337 25.7949 41.6133 26.0215 42.1143C25.6903 41.9625 25.3484 41.8044 24.9951 41.6426ZM25.6465 39.1846C25.8173 39.6747 25.965 40.2459 26.0352 40.8877C25.7632 40.5104 25.6532 39.9053 25.6465 39.1846ZM304.136 23.7656C302.552 32.3924 307.26 31.4392 307.82 31.8994C310.489 33.8822 310.963 43.0721 313.145 40.1689C312.714 37.9505 312.284 35.7234 311.849 33.4951C309.273 30.5965 307.373 27.4415 306.328 25.1162C305.859 25.5839 305.237 25.4857 304.136 23.7656ZM45.9004 34.6084C47.5235 31.7967 49.6196 31.5458 53.1162 33.7793C51.3325 36.4013 50.7469 38.0591 50.752 39.457C49.4659 37.647 47.8069 35.9458 45.9004 34.6084ZM24.8584 37.4482C25.0854 37.5359 25.3835 37.7441 25.7031 38.0547C25.6652 38.4498 25.6432 38.8315 25.6465 39.1846C25.3638 38.3737 25.0183 37.7809 24.8584 37.4482ZM326.816 31.4111C326.46 32.1055 327.091 33.5259 328.346 36.3896C327.621 37.2398 327.018 38.0077 326.528 38.6943C327.314 38.7948 327.928 38.7912 328.343 38.752C328.672 37.78 328.965 36.2242 329.491 34.1592C328.965 33.4348 328.18 32.7005 326.816 31.4111ZM281.374 37.7461C284.35 36.8148 282.889 14.3298 278.886 25.252C278.301 26.8882 279.13 38.4566 281.374 37.7461ZM167.421 36.0303C168.853 29.8836 160.752 27.3972 159.404 30.0752C160.407 32.2016 166.927 38.145 167.421 36.0303ZM293.048 25.5156C292.871 25.7683 292.713 26.0204 292.573 26.2676C291.346 28.3211 291.276 30.0478 289.947 29.833C290.175 30.4484 290.427 31.1028 290.709 31.7949C290.917 32.3479 291.164 32.9311 291.445 33.5371C291.798 31.9728 292.14 30.5029 293.315 30.791C293.582 30.8633 293.894 31.0396 294.258 31.3418C294.804 31.8117 294.832 38.2787 296.559 35.9629C295.44 32.6542 294.25 28.977 293.048 25.5156ZM62.4512 33.7773C62.4565 33.7817 62.4625 33.7866 62.4678 33.791C62.4603 33.7355 62.4519 33.6782 62.4443 33.6211C62.4471 33.6734 62.4486 33.7262 62.4512 33.7773ZM294.345 15.1367C292.133 18.2345 298.459 31.7791 298.893 31.6748C303.535 30.4023 294.982 19.5809 294.345 15.1367ZM316.143 30.9053C316.871 29.1533 316.846 21.6891 315.152 23.1807C314.97 23.3533 315.355 27.2061 314.807 27.9844C314.262 28.7525 312.836 26.0838 312.805 28.4551C312.811 30.8355 315.398 32.6338 316.143 30.9053ZM35.4863 24.8564C36.2132 25.4284 36.8826 25.8009 37.3086 26.0312C38.1296 26.4499 38.4338 26.4604 38.4492 26.543C38.4581 26.6391 38.0722 26.8353 37.6426 27.8867C37.4511 28.0301 37.2658 28.1781 37.0889 28.3291C36.7775 28.1162 36.5069 27.9766 36.2764 27.8809C35.5806 27.6344 35.2076 27.838 35.1436 28.4512C35.1022 28.8463 35.1942 29.3601 35.4443 30.2344C35.4221 30.2734 35.3988 30.3124 35.3779 30.3516C33.0721 26.7501 36.026 27.8508 35.4863 24.8564ZM380.047 20.0986C380.365 20.4199 380.683 20.7574 380.992 21.1133C383.355 24.8203 384.115 26.4656 384.605 27.5195C384.479 27.5092 384.344 27.5127 384.201 27.5332C384.049 27.552 384.308 28.2579 384.148 28.8623C383.989 29.4746 383.409 29.9824 381.655 30.1641C379.662 30.5766 378.308 28.8749 376.392 27.4375C377.732 25.8528 379.846 23.1074 376.435 23.9023C376.315 23.9304 375.693 25.6878 375.236 26.668C374.748 26.3863 374.218 26.1393 373.636 25.957C373.181 25.167 372.96 24.6442 371.858 25.6348C371.503 25.6138 371.131 25.6157 370.739 25.6445C371.628 24.1152 372.759 22.6376 373.671 21.0742C377.638 25.1786 379.515 23.0686 380.047 20.0986ZM384.605 27.5195C385.553 27.597 386.041 28.4812 386.165 29.292C386.226 29.7204 386.193 30.1667 385.9 29.8906C385.743 29.7291 385.536 29.4077 385.049 28.4199C384.899 28.1489 384.766 27.8657 384.605 27.5195ZM192.169 22.3838C190.596 22.4467 190.245 14.1239 188.488 15.9873C186.239 18.3811 193.243 29.4846 195.45 28.6973C194.553 20.4121 193.743 22.3154 192.169 22.3838ZM308.177 22.6973C308.702 24.054 309.481 25.6465 310.619 27.3623C310.377 26.1975 310.129 25.0328 309.873 23.8721C309.129 22.9304 308.593 22.6348 308.177 22.6973ZM224.293 16.1982C222.913 29.0267 228.388 28.533 231.365 25.4863C233.029 23.8016 233.913 21.3417 232.506 19.8574C232.368 19.7177 231.422 20.4258 230.18 20.8926C228.169 21.6519 225.394 21.7474 224.293 16.1982ZM249.191 4.17285C246.485 6.47764 246.841 9.63713 243.139 5.37891C245.936 13.9038 249.333 15.7664 244.895 21.2227C245.575 22.872 246.257 24.5072 246.932 26.1582C247.798 25.8066 248.668 25.456 249.549 25.1191C246.375 -1.10934 258.253 26.7182 250.767 9.2373C249.958 7.33649 248.244 10.0165 249.204 4.18457C249.2 4.18063 249.195 4.17679 249.191 4.17285ZM155.588 10.8047C151.588 10.5697 158.112 24.0203 160.618 24.3916C158.484 22.0552 157.848 10.9423 155.588 10.8047ZM198.32 0.803711C198.765 8.05278 197.326 8.33291 200.89 16.0479C200.892 16.0474 200.895 16.0473 200.896 16.0469C197.936 19.4718 193.172 3.03032 192.479 3.58887C190.063 5.55786 195.957 16.6008 195.311 20.9102C198.308 16.2283 199.369 24.445 202.553 24.1475C203.261 24.0751 204.694 18.6314 204.281 15.5811C203.868 12.5278 200.026 4.05631 198.32 0.803711ZM329.562 17.6699C328.567 18.9668 327.61 20.2868 326.687 21.624C327.154 21.559 327.651 21.4767 328.179 21.3691C328.772 21.2479 329.324 21.1247 329.837 21.0068C329.914 20.0344 329.84 18.9269 329.562 17.6699ZM355.161 2.9082C354.638 2.07372 354.912 3.31882 354.987 4.8623C355.074 6.42516 354.833 7.95153 354.379 8.91504C353.456 10.824 352.035 11.5514 350.831 11.0176C350.699 10.9258 350.651 10.2801 350.167 8.82617C349.793 7.52652 348.177 4.32803 346.4 3.41406C344.754 2.56529 343.783 3.58569 342.716 4.34961C341.656 5.1721 340.431 5.68029 338.939 5.64258C338.04 5.63647 337.296 5.61022 336.657 5.53223C334.696 5.43703 332.377 2.06639 330.973 4.87207C330.796 5.32698 332.277 10.6046 332.328 10.8281C333.145 12.5287 334.24 11.8365 335.338 10.8066C335.737 10.2678 336.238 9.69535 336.797 9.40234C337.347 9.101 337.875 9.06718 337.963 9.15527C339.561 11.4282 333.992 12.0776 332.991 12.5889C330.861 13.329 333.288 14.5706 333.146 14.7109C331.133 16.4263 330.196 15.5304 329.555 14.3154C329.246 13.7554 328.972 13.1537 328.819 13.4395C328.606 13.6461 329.033 15.2808 329.228 16.1816C329.797 18.1448 330.126 19.6439 330.355 20.8867C335.245 19.7133 336.304 18.7027 336.089 17.7168C335.792 16.3882 333.413 14.8812 334.564 13.4863C337.792 13.3248 340.925 13.0599 344.117 13.1514C341.483 13.0341 339.944 15.2734 339.478 17.126C339.184 18.3057 339.242 19.2693 339.576 19.3037C339.586 19.3021 339.596 19.2995 339.605 19.2979C346.654 19.9975 353.624 17.5175 356.704 14.1201C357.833 13.3168 358.562 12.6393 358.651 11.6104C358.691 11.0721 358.582 10.4648 358.194 9.3457C357.745 8.20774 357.317 6.60407 355.161 2.9082ZM318.556 18.0332C318.511 18.9481 318.558 19.8184 318.604 20.5566C318.703 20.6096 318.803 20.6624 318.901 20.7148C318.974 20.7382 319.047 20.7609 319.119 20.7842C318.755 19.7541 318.546 18.8024 318.556 18.0332ZM314.497 18.8066C312.691 15.4007 312.891 16.0667 312.37 16.0869C310.903 16.3721 309.689 16.479 308.754 16.5742C307.842 16.7333 307.108 16.7409 307.154 18.5801C307.165 18.9089 307.236 19.4778 307.41 20.2344C309.318 20.3447 312.57 18.3139 314.497 18.8066ZM22.2686 0.787109C21.6074 0.857118 20.9483 0.937132 20.292 1.02637C21.2747 2.38664 22.2563 3.74223 23.2432 5.07715C23.2415 5.07809 23.2389 5.07915 23.2373 5.08008C24.9508 4.39033 23.7396 2.67903 22.2686 0.787109Z" fill="#DFD0B8"/>
</svg>
