<svg width="1440" height="675" viewBox="0 0 1440 675" fill="none" xmlns="http://www.w3.org/2000/svg">
<mask id="mask0_121_39" style="mask-type:alpha" maskUnits="userSpaceOnUse" x="0" y="0" width="1441" height="675">
<rect width="1441" height="675" fill="#D9D9D9"/>
</mask>
<g mask="url(#mask0_121_39)">
<path fill-rule="evenodd" clip-rule="evenodd" d="M1322.5 48.1182C1319.37 47.5717 1329.88 43.7424 1338.65 45.8115C1339.47 45.9946 1340.12 46.174 1340.55 46.3164C1351.66 49.8509 1360.73 58.8721 1364.85 65.9131C1369.23 73.1146 1370.61 78.7205 1372.17 82.4941C1372.64 83.6388 1373.05 84.7296 1373.44 85.7744C1377.37 97.6569 1377.93 103.023 1379.31 108.448C1380.51 113.639 1381.58 117.88 1382.45 121.809C1383.13 128.637 1382.67 135.908 1381.12 142.696C1378.82 151.659 1376.05 158.856 1373.16 164.927C1382.1 158.284 1390.94 151.901 1399.36 146.293C1401.39 144.935 1403.24 143.731 1405.2 142.472C1415.55 135.871 1419.81 138.163 1426.96 133.313C1432.07 129.84 1434.93 126.839 1437.45 123.81C1438.69 122.305 1439.84 120.798 1441.08 119.261C1441.73 118.472 1442.38 117.69 1443.16 116.838C1443.96 115.986 1444.92 114.992 1447.37 113.2C1450.56 110.701 1454.74 107.839 1461.04 104.929C1476.76 97.4596 1495.11 98.0692 1504.43 99.2363C1508.84 99.3199 1514.82 99.0766 1525.1 102.737C1535.41 105.674 1548.88 118.974 1551.53 125.319C1563.03 147.131 1557.13 163.397 1555.18 170.239C1550.37 182.925 1549.46 181.683 1548.68 183.411C1547.93 184.535 1547.49 185.154 1547.03 185.848C1538.46 198.391 1539.52 205.853 1530.68 219.03C1524.63 228.017 1514.97 238.46 1507.2 248.522C1505.72 250.433 1504.27 252.391 1502.92 254.342C1494.58 266.405 1486.24 278.437 1477.88 290.439C1480.43 288.051 1482.83 285.5 1490.89 280.161C1497.22 276.199 1503.9 273.142 1510.78 270.924C1513.09 270.181 1515.43 269.527 1517.82 268.965C1520.48 268.496 1526.2 266.704 1536.81 268.573C1547.62 270.575 1555.68 276.825 1558.87 279.879C1570.39 291.225 1572.26 299.613 1574.41 305.623C1576.24 311.729 1576.98 316.316 1577.58 320.456C1579.87 350.153 1570.08 362.177 1565.96 373.062C1563.66 377.591 1561.45 381.74 1559.32 385.613C1559.77 385.36 1560.26 385.091 1560.78 384.797C1561.39 384.459 1562.1 384.045 1562.95 383.551C1563.93 382.986 1564.63 382.51 1567.38 380.992L1568.25 380.494C1569.34 380.135 1570.08 380 1570.7 379.926C1577.09 379.561 1580.75 392.268 1578.58 397.514C1578.26 397.494 1577.93 397.481 1577.59 397.481L1577.33 397.63C1570.43 399.496 1567.07 399.399 1562 400.502C1570.15 415.471 1567.68 411.634 1554.31 424.769C1551.17 427.886 1550.92 429.444 1551.63 430.523L1551.52 430.658C1551.94 431.225 1552.64 431.637 1553.33 432.081L1553.38 432.021C1553.85 432.345 1554.31 432.686 1554.65 433.102C1555.3 433.815 1555.61 434.763 1555.05 436.306C1552.16 443.977 1536.73 478.314 1532.33 466.272C1532.46 469.209 1532.64 471.971 1532.77 474.841C1529.61 479.717 1526.5 484.604 1523.37 489.496C1520.48 493.952 1517.77 498.453 1513.79 503.28C1509.68 508.233 1504.75 512.031 1500.76 515.305C1497.49 517.951 1494.23 520.568 1490.98 523.176C1491 522.886 1490.99 522.4 1490.86 521.36C1490.84 521.7 1490.82 522.055 1490.79 522.426C1490.79 522.778 1490.82 523.086 1490.84 523.286C1486.1 527.09 1481.38 530.872 1476.63 534.676C1473.05 537.537 1474.64 540.501 1470.9 543.44C1469.58 544.48 1468.26 545.444 1466.92 546.349C1464.92 547.707 1462.95 548.913 1460.75 550.138C1459.63 550.753 1458.51 551.354 1456.95 552.113C1456.14 552.501 1455.28 552.929 1453.65 553.56C1452.82 553.871 1451.72 554.266 1450.17 554.627C1448.64 554.999 1446.54 555.202 1445.59 555.206C1444.26 555.165 1442.41 555.234 1439.3 554.924C1436.5 554.211 1430.24 555.187 1422.2 545.841C1420.3 543.205 1419.87 541.924 1419.35 540.725C1418.89 539.569 1418.61 538.649 1418.37 537.823C1417.91 536.178 1417.65 534.843 1417.44 533.566C1417.02 531.049 1416.83 528.824 1416.69 526.63C1416.38 520.784 1415.18 518.236 1414.47 514.286C1414 512.094 1413.73 509.371 1414.53 505.064C1416.93 494.016 1421.61 495.627 1421.32 479.788C1417.41 482.59 1418.29 477.498 1421.63 470.097C1426.02 460.207 1435.31 445.951 1439.31 438.75C1439.87 437.727 1441.19 431.536 1443.52 425.049C1443.81 424.246 1444.11 423.443 1444.42 422.649C1439.81 424.601 1434.91 426.786 1430.43 430.776C1428.28 432.698 1429.8 435.534 1426.12 439.088C1422.43 442.631 1404.73 455.288 1416.29 452.782C1403.49 458.416 1403.7 462.277 1393.21 473.039C1391.21 475.095 1386.71 475.683 1382.75 478.848C1381.46 479.883 1380.24 481.167 1379.18 482.855C1377.69 485.234 1381.28 488.395 1378.51 491.454C1372.26 498.386 1362.62 501.624 1354.56 510.444C1339.38 526.973 1327.1 547.308 1310.32 565.114C1309.23 566.26 1308.21 566.923 1307.26 567.295C1304.21 568.527 1301.61 567.301 1296.58 572.805C1295.66 573.858 1290.64 585.513 1285.15 590.322C1283.03 592.242 1273.87 599.142 1266.37 603.76C1263.15 605.726 1260.25 607.497 1258.97 608.352C1252.37 612.692 1253.38 617.766 1246.19 620.265C1244.16 620.922 1242.14 621.384 1240.25 621.639C1231.6 620.973 1238.21 614.527 1225.57 626.034C1222.23 623.99 1218.14 623.545 1212.85 622.231C1210.17 621.538 1207.09 620.668 1203.45 618.581C1199.87 616.641 1195.38 612.252 1194.42 607.97C1193.55 607.251 1192.72 606.379 1192 605.405C1184.53 602.662 1187.33 595.697 1182.89 583.827C1181.98 580.278 1179.69 576.533 1181.02 567.944C1181.46 555.957 1180.56 549.859 1190.66 554.244C1191.28 551.575 1194.16 545.394 1197.03 540.146C1196.8 536.923 1196.61 533.738 1196.29 530.433C1195.74 524.703 1196.72 520.873 1197.51 517.774C1201.07 506.695 1198.23 504.8 1203.34 495.649C1204.61 493.486 1205.82 492.113 1206.97 490.988C1211.28 486.462 1214.26 484.209 1220.15 471.942C1215.15 473.261 1218.57 468.462 1223.11 464.164C1230 457.645 1240.64 449.323 1246.93 443.073C1247.75 442.27 1248.49 441.508 1249.14 440.81C1250.44 439.429 1256.88 423.919 1263.02 418.302C1268.45 413.353 1278.01 407.514 1284.69 398.649C1285.6 397.441 1286.44 396.192 1287.23 394.866C1290.27 389.689 1288.88 383.923 1292.56 378.921C1295.13 375.413 1301.7 373.878 1305.07 369.602C1305.92 368.518 1306.82 366.964 1307.65 365.252C1310.55 359.594 1309.01 357.819 1309.42 356.808C1309.73 355.896 1310.11 355.251 1310.42 355.104C1310.75 354.933 1311.04 355.173 1311.33 355.471C1311.9 356.032 1312.41 356.969 1313.17 355.025C1313.48 354.211 1313.81 353.305 1314.15 352.34C1316.44 345.736 1318.91 337.978 1321.06 330.352C1306.73 341.331 1291.72 352.903 1274.95 365.865C1273.22 367.217 1268.48 371.036 1262.62 375.616C1254.15 382.2 1243.37 390.531 1235.64 395.121C1230.98 399.251 1227.85 402.948 1234.79 401.407C1221.25 407.393 1221.41 411.491 1209.73 422.819C1207.87 424.607 1204.3 425.292 1200.61 427.31C1198.71 429.115 1196.46 431.177 1193.8 433.571C1192.96 435.79 1195.2 438.705 1193.18 441.413C1193.02 441.631 1192.82 441.847 1192.6 442.062C1185.17 449.223 1174.63 451.982 1164.95 460.478C1148.14 475.223 1132.39 493.143 1114.63 507.853C1113.46 508.827 1112.34 509.738 1111.17 510.667C1102.51 519.101 1093.87 527.627 1085.24 536.222C1061.94 558.773 1048.93 575.533 1015.68 606.358C1010.58 610.539 1005.41 614.717 999.134 619.34C995.955 621.659 992.565 624.094 987.746 627.053C985.246 628.561 982.518 630.179 978.14 632.226C973.476 634.067 968.639 637.338 953.172 638.6C949.64 638.759 945.521 638.957 939.862 638.791C933.838 638.255 927.891 639.254 911.512 633.118C908.717 631.889 902.87 629.587 895.326 623.224C887.735 616.963 881.525 607.105 879.061 600.555C874.139 587.122 874.999 582.824 874.584 579.062C873.471 570.432 876.063 543.43 882.922 530.066C878.504 533.259 874.211 536.184 870.536 538.368C862.841 542.968 857.648 544.546 859.26 538.948C859.51 538.089 862.431 534.651 864.736 531.206C867.661 526.835 869.595 522.437 863.769 523.264C863.977 524.836 864.033 526.55 863.087 527.671C863.062 527.7 863.037 527.73 863.012 527.76C860.568 530.628 857.713 533.189 854.643 535.597C853.737 536.889 852.983 537.871 852.817 538.162C838.137 563.552 852.425 555.348 818.385 583.034C816.504 584.552 814.609 586.074 812.697 587.606C808.252 603.136 802.276 617.068 776.802 614.538C768.771 619.872 759.907 625.119 750.241 629.646C731.54 638.16 715.384 645.666 686.834 650.642C679.995 651.612 673.047 652.136 665.154 651.912C661.172 651.782 656.995 651.492 651.854 650.671C646.27 649.438 641.954 649.81 627.644 642.59C620.87 638.75 615.523 634.32 611.286 629.749C609.814 631.198 608.262 632.692 606.589 634.25C601.875 637.999 599.188 643.074 581.339 651.512C578.946 652.502 575.912 653.859 570.563 655.569C565.355 657.276 557.12 658.957 550.013 659.089C546.491 659.154 542.917 659.332 536.609 659.176C533.332 659.034 529.431 658.986 522.456 657.644C516.003 656.276 503.04 653.083 490.82 640.896C489.281 639.219 487.901 637.623 486.657 636.099C480.667 639.73 474.413 642.838 467.733 645.406C463.457 647.043 459.023 648.442 454.528 649.491C452.287 650.011 449.977 650.494 447.812 650.749C446.732 650.873 445.662 650.969 444.832 650.807C444.434 650.705 444.064 650.582 444.062 650.036C444.075 649.742 444.179 649.357 444.634 648.475C444.852 648.041 445.196 647.43 445.622 646.628C446.016 645.884 446.555 644.782 446.572 644.552L451.048 625.141C449.064 628.257 446.894 631.36 444.525 634.449C441.992 637.749 428.52 636.883 424.605 635.243C427.211 633.334 430.335 631.524 433.287 629.512C427.306 629.065 423.999 628.793 422.267 628.244C423.115 627.785 424.143 627.2 425.242 626.476C429.615 623.546 421.639 621.298 422.273 617.873C423.041 613.47 429.895 595.765 435.059 606.107C434.565 603.942 433.954 601.995 433.451 599.894C437.858 594.515 441.947 588.988 445.902 583.292C449.001 578.811 451.999 574.241 454.984 569.578C455.927 568.086 454.543 566.038 454.716 564.31C453.948 564.325 453.147 564.33 452.307 564.322C449.9 564.283 447.202 564.168 443.465 563.604C441.774 563.271 440.011 563.035 437.77 562.479C436.956 562.813 436.005 563.244 434.935 563.985C434.36 564.387 437.073 566.847 436.898 567.118C432.33 574.31 432.889 565.169 432.624 564.905C428.143 560.564 423.211 568.08 421.432 568.724C413.261 571.727 405.948 574.406 398.98 577.216C386.483 586.494 373.091 595.128 358.295 602.742C343.67 609.948 328.246 616.997 305.812 619.864C295.018 620.977 279.885 621.184 264.952 613.529C249.783 605.955 241.33 591.324 239.135 581.367C239.031 580.872 238.96 580.4 238.913 579.952C230.223 579.962 219.344 578.405 203.901 572.827C199.514 570.629 193.807 568.024 186.69 563.859C170.151 576.722 149.149 592.13 126.484 608.145C108.402 620.894 92.7024 632.221 70.8291 647.056C53.6425 659.183 23.3663 664.337 10.4551 664.617C6.14632 664.718 0.526741 665.114 -9.43945 662.084C-19.2267 659.916 -34.3167 647.139 -37.7666 639.991C-51.4108 617.173 -45.0766 597.981 -42.8711 590.648C-38.0746 578.436 -36.5224 578.468 -35.7617 576.854C-34.951 575.676 -34.3897 574.896 -33.9404 574.263C-32.9962 572.94 -32.1998 571.842 -31.4512 570.81C-29.9189 568.702 -28.5177 566.79 -27.1289 564.897C-24.2979 561.046 -21.6678 557.48 -19.041 553.928C-13.7774 546.813 -8.95879 540.314 -4.45703 534.256C3.74407 523.217 10.624 513.985 15.4541 507.486C9.90249 502.76 5.67557 498.484 1.74023 494.323C-1.4257 490.989 -5.25975 485.646 -8.3125 479.811C-11.5521 480.387 -16.8992 481.162 -25.4297 479.793C-36.2525 478.032 -45.3062 471.759 -48.9189 468.417C-61.4582 456.752 -63.9959 447.01 -66.2334 440.261C-68.2004 433.342 -68.8137 428.146 -69.2607 423.485C-71.0814 406.475 -65.8558 392.575 -62.2012 384.521C-64.6787 393.092 -68.414 407.112 -65.4287 423.018C-64.6104 426.471 -63.6486 430.227 -62.1543 434.659C-63.1978 430.296 -63.7161 426.357 -64.002 422.844C-65.5959 405.185 -59.5473 393.816 -57.7979 391.497C-56.7279 390.155 -56.2147 390.475 -56.4502 393.204C-56.5339 396.04 -58.1619 401.039 -58.0615 412.918C-56.2602 400.413 -51.6433 393.31 -47.7275 386.95C-49.6108 385.082 -47.7811 377.822 -45.2188 371.104C-41.232 361.299 -36.5577 353.332 -37.1826 350.976C-38.3134 346.756 -47.24 361.128 -47.501 361.249C-49.2626 357.795 -27.7988 331.345 -14.7324 317.295C-9.22364 311.173 -5.05941 306.815 -4.16504 305.885C4.0061 297.474 3.11476 309.734 8.8418 301.741C15.5816 292.21 8.95534 289.482 13.9014 286.562C13.793 284.406 14.229 282.139 14.8936 280.435C19.6033 278.918 24.3013 277.792 29.1875 276.575C29.5501 274.905 30.1158 273.736 30.9219 272.636C31.7942 271.436 32.9541 270.318 34.3789 268.721C33.9281 265.174 34.0623 262.855 35.1875 260.814C35.5222 260.206 35.9501 259.623 36.4824 259.042C38.8738 253.932 39.9177 254.212 40.3994 255.84C43.2041 253.946 47.1517 251.716 52.625 248.574C53.9258 246.086 54.9647 243.953 55.6016 243.044C57.7617 240.152 59.8364 237.278 61.8164 234.442C69.3296 223.897 73.973 214.943 76.8945 202.956C77.0997 202.212 77.2879 201.47 77.46 200.738C76.7904 201.052 76.1153 201.37 75.4385 201.691C64.248 207.023 52.5347 213.071 40.0791 219.97C37.5529 221.375 33.8121 223.72 29.584 226.513C24.8806 229.627 20.3256 232.758 17.0957 236.297C13.6595 239.955 9.97942 244.882 6.85254 248.739C4.74596 251.359 2.87503 253.588 1.44141 255.073C-6.08007 262.891 -5.84029 255.666 -10.9883 258.806C-8.51587 272.363 -12.9716 279.934 -31.2041 291.59C-30.3147 300.839 -33.2348 298.689 -39.3945 305.811L-39.7227 306.185C-40.7658 307.288 -41.8695 308.584 -43.0859 310.206C-46.2393 314.401 -49.4975 320.752 -53.5703 327.033C-55.6274 330.192 -57.8559 333.303 -60.4834 336.175C-61.8061 337.617 -63.1961 338.971 -64.8096 340.292C-65.6099 340.945 -66.4666 341.594 -67.4707 342.275C-67.9934 342.632 -68.5219 342.972 -69.1953 343.385C-69.8936 343.8 -70.5299 344.21 -72.1846 345.057L-72.7139 345.341C-75.8562 346.363 -77.4213 346.203 -79.7061 346.068C-77.4703 345.069 -76.0569 344.435 -73.8174 343.191L-73.3623 342.948C-71.5199 341.844 -71.0448 341.356 -70.3779 340.808C-69.7633 340.275 -69.3269 339.844 -68.8955 339.401C-68.0697 338.543 -67.4601 337.79 -66.8975 337.038C-65.7963 335.552 -64.9737 334.143 -64.0859 332.59C-62.3241 329.487 -60.2656 325.798 -55.8984 319.922C-54.6478 318.256 -48.7743 311.834 -42.1826 303.932L-41.9463 303.662C-30.311 288.462 -16.8212 268.326 -22.5273 267.464C-27.1166 266.772 -36.5918 284.518 -37.6768 284.637C-43.8395 285.347 -41.0478 273.468 -33.5068 267.002C-34.3422 269.451 -35.4814 272.295 -36.4375 274.883C-18.4823 261.119 -44.2033 259.948 -19.5605 258.209C-16.5313 257.985 -15.2038 260.055 -11.2275 258.864C-11.5583 257.703 -16.0621 259.462 -14.1641 256.374C-12.2351 253.24 -4.28894 250.676 -6.68555 247.448C-10.1349 242.689 -17.8566 255.963 -18.8193 256.649C-18.8003 256.68 -18.7798 256.711 -18.7607 256.742C-27.3882 262.771 -14.5592 246.071 -14.3252 244.932C-13.0714 238.038 -17.389 239.244 -14.5635 231.393C-14.3838 230.911 -14.1835 230.402 -13.9609 229.868C-12.7627 227.107 -9.77091 223.064 -5.76855 218.717C-1.80883 214.302 3.75247 210.066 6.13477 208.154C11.0012 204.17 1.36637 207.517 4.59082 204.601C7.04521 202.401 10.4586 201.472 13.3311 200.031C14.3104 199.542 15.2658 198.967 16.1006 198.26C17.4956 197.069 15.8567 194.573 16.5576 194.026C23.9465 188.243 21.9102 196.703 28.9199 192.086C33.4394 189.09 46.2298 174.903 34.5225 179.761C39.4291 176.184 44.2958 172.837 49.3008 169.411C45.5543 170.544 41.8445 172 38.124 172.962C45.8242 169.678 48.901 165.063 52.4668 161.261C53.7582 159.881 55.1236 158.604 56.8359 157.532C58.5505 156.466 60.408 155.825 62.8633 155.123C64.1304 154.762 65.4309 154.409 67.7715 153.721C68.9639 153.383 70.4853 152.896 73.0547 152.303C75.4672 151.684 80.1668 151.156 82.0879 151.294C83.6404 151.733 85.9293 151.94 90.085 152.338C92.2222 152.581 94.8509 152.785 99.0674 153.902C103.083 155.081 110.106 157.261 116.99 165.098C119.382 167.96 120.37 169.68 121.296 171.198C123.619 175.227 124.263 176.859 125.028 178.406C125.72 179.86 126.187 180.828 126.571 181.52C127.33 182.904 127.75 183.193 127.987 182.749C128.211 182.286 128.257 181.067 127.858 178.76C127.645 177.587 127.339 176.154 126.628 174.025C126.252 172.926 125.802 171.698 125 169.987C124.136 168.256 123.259 166.237 120.277 162.426C107.907 148.276 96.7125 148.435 91.9668 147.513C86.6581 146.993 83.7269 147.244 81.9287 147.272C80.2501 147.295 76.1876 147.75 73.5781 148.447C70.8634 149.128 69.1615 149.782 67.8691 150.286C65.3511 151.301 64.1469 151.927 62.9951 152.496C60.8061 153.604 59.3608 154.414 57.9346 155.202C55.1532 156.75 52.9216 158.025 51.1582 158.956C49.9032 159.619 48.9095 160.099 48.3369 160.277C47.2058 160.631 48.1408 158.157 49.3789 155.824C50.2864 154.087 51.3921 152.415 51.8379 152.097C53.6005 150.844 55.7856 150.037 58.5918 149.152C60.0551 148.689 61.5138 148.249 64.1875 147.365C65.5933 146.915 67.2381 146.322 70.4131 145.479C73.2885 144.627 79.4404 143.81 81.7959 143.93C82.8845 144.139 84.5358 144.22 86.5137 144.188C89.0236 144.184 92.1631 144.076 97.6396 145.054C102.717 146.208 112.9 148.011 123.277 159.987C127.909 165.85 128.727 168.384 129.899 170.731C130.915 172.985 131.517 174.629 132.038 176.117C133.054 179.074 133.638 181.234 134.157 183.268C135.16 187.268 135.758 190.446 136.258 193.492C136.51 195.065 136.727 196.585 136.913 198.066C138.04 197.394 139.18 196.733 140.346 196.077C149.597 194.963 158.593 194.325 167.98 194.271C170.164 194.284 172.858 195.2 174.621 196.54C174.753 196.637 174.882 196.736 175.006 196.834C193.367 178.41 211.958 160.67 230.923 140.274C232.837 138.244 234.369 139.967 235.516 138.55C236.607 137.182 237.233 136.1 237.558 135.225C238.751 132.126 236.554 131.193 240.928 126.299C252.64 113.339 266.469 100.181 284.608 87.2949C284.707 87.226 284.806 87.1566 284.904 87.0879C286.412 86.0376 288.721 87.977 292.373 85.3506C296.381 82.6092 296.687 78.4675 307.271 72.6826C311.172 70.6803 316.04 68.334 323.478 66.3408C329.899 64.9224 336.499 63.8162 344.914 63.0273C349.219 62.6666 353.768 62.2775 360.894 62.5127C364.6 62.7106 368.784 62.8381 376.065 64.626C382.327 66.7268 398.061 69.4512 410.479 91.4414C412.739 96.3641 414.545 100.781 416.495 106.009C418.007 110.462 423.55 114.022 425.352 126.182C425.661 132.181 428.015 139.264 421.675 157.249C421.216 158.263 420.765 159.223 420.326 160.135C420.639 159.991 420.952 159.849 421.262 159.705C425.055 158 428.709 156.4 430.654 155.919C445.435 152.461 450.359 155.565 457.329 156.947C462.23 157.164 468.799 159.109 473.66 162.61C478.586 166.065 481.441 170.066 483.145 173.065C486.418 179.147 486.743 182.47 487.29 185.202C488.101 190.488 488.118 193.552 488.483 196.849C488.832 200.262 490.095 198.7 491.25 197.105C492.396 195.407 493.439 193.765 493.384 197.76C493.345 199.639 493.222 201.199 493.061 202.585C492.167 215.271 489.128 219.494 486.76 224.467C485.839 226.171 484.905 227.763 483.966 229.29C489.928 224.724 495.912 220.251 501.915 215.913C505.598 213.257 503.925 221.736 514.01 211.143C517.945 206.988 521.82 200.057 528.755 191.801C531.282 188.8 534.143 185.68 537.571 182.415C561.198 160.589 577.532 142.415 611.126 114.904C617.193 110.508 623.35 106.135 630.46 101.513C634.046 99.1998 637.82 96.8191 642.759 94.1221C645.296 92.7554 648.027 91.3248 652.03 89.6455C652.597 89.4382 653.169 89.2127 653.764 88.9775C654.119 88.6458 654.494 88.3005 654.893 87.9414C657.597 85.9668 660.234 81.7834 674.855 76.1064C680.968 73.5308 696.722 71.2026 707.972 74.5185C711.391 75.4026 716.116 76.7251 722.361 79.9248C730.442 84.0068 737.925 91.2301 742.126 98.2715C743.353 102.252 743.825 105.995 746.451 110.984C753.09 125.124 758.851 126.629 761.321 140.08C761.425 140.795 761.491 141.497 761.526 142.223C761.596 146.274 758.747 150.995 757.916 155.764C758.581 156.518 759.171 157.27 759.694 158.009C760.928 156.506 762.174 154.955 763.433 153.373C770.558 144.497 777.271 135.303 787.212 127.063C790.301 124.538 793.35 123.56 796.542 122.573C799.827 121.626 802.841 120.426 810.173 116.797C811.26 116.277 812.285 115.819 812.943 115.519C819.103 112.898 822.838 105.025 841.894 102.484C842.533 102.312 843.233 102.18 844.032 102.097C847.21 101.801 850.755 102.844 857.061 104.354C860.295 105.171 864.228 105.957 870.757 107.916C871.768 108.231 872.912 108.603 874.162 109.044C876.734 107.727 879.125 106.58 881.283 105.645C889.754 101.947 893.798 101.656 889.148 107.137C888.703 107.676 886.876 109.116 884.541 110.994C883.909 111.503 883.24 112.043 882.551 112.606C884.313 113.499 886.14 114.527 887.994 115.713C892.114 111.737 897.916 107.504 898.817 106.76C913.513 94.328 922.248 88.1081 928.03 83.8125C931.671 81.1705 934.863 79.0472 940.181 76.6328C942.855 75.4328 946.039 74.1582 950.528 72.7666C952.797 72.0718 955.364 71.345 958.793 70.5957C960.531 70.2219 962.47 69.8376 965.104 69.4639C966.435 69.2791 967.928 69.0919 969.981 68.9394C972.161 68.8234 974.275 68.5587 979.995 68.9863C987.875 69.6966 1007.08 72.7426 1021.78 92.1982C1031.96 106.838 1033.3 118.997 1033.11 127.319C1041.62 121.989 1050.4 116.931 1058.04 113.45C1067.04 109.198 1074.12 106.295 1076 105.556C1086.95 101.284 1089.23 102.933 1089.99 104.522C1090.45 105.32 1090.76 106.111 1092.31 106.197C1093.94 106.311 1096.26 105.627 1103.18 103.898C1109.12 102.372 1116.51 101.917 1118.87 101.604C1123.46 101.453 1129.84 102.337 1135.64 105.112C1141.42 107.774 1145.48 111.767 1146.25 112.192C1159.99 126.132 1160.57 130.586 1162.28 139.568C1163.08 148.443 1160.75 159.934 1148.48 175.605C1147.64 177.137 1146.8 178.351 1145.98 179.395C1145.74 180.252 1145.51 181.058 1145.29 181.818C1148.14 181.187 1151.07 180.575 1154.21 180.035C1162.43 179.103 1170.89 176.462 1190.36 183.085C1191.38 183.326 1192.62 183.675 1194.02 184.143C1197.24 179.335 1203.26 170.825 1209.18 162.615C1217.74 150.545 1226.71 139.313 1222.33 137.923C1217.76 136.488 1207.38 153.047 1206.5 153.173C1200.38 153.661 1203.37 141.814 1211.58 136.129C1210.52 138.47 1209.17 141.182 1208.08 143.667C1226.76 132.029 1201.93 127.527 1226.33 129.404C1229.31 129.712 1230.31 131.936 1234.29 131.575C1234.14 130.391 1229.55 131.215 1231.83 128.61C1233.05 127.232 1235.82 126.345 1237.95 125.358C1239.93 124.437 1241.36 123.412 1240.57 121.649C1239.58 119.412 1237.24 120.002 1234.79 121.558C1231.37 123.706 1227.88 127.725 1227.28 128.017C1227.29 128.05 1227.31 128.083 1227.32 128.116C1219.49 131.851 1228.85 122.338 1232.51 118.816C1233.18 118.145 1233.63 117.674 1233.7 117.508C1236.55 110.707 1231.27 111.309 1237.52 102.937C1241.09 98.1097 1253.8 90.9084 1258.22 87.8144C1258.26 87.7924 1258.29 87.7708 1258.32 87.749C1261.37 85.4997 1258.03 85.7791 1256.76 85.3457C1256.42 85.2215 1256.23 85.0391 1256.39 84.7285C1256.48 84.5724 1256.65 84.3832 1256.93 84.1543C1259.78 81.8007 1264.75 81.3258 1268.29 78.7295C1269.82 77.6045 1268.37 74.9956 1269.15 74.4814C1277.64 69.0619 1274.34 77.4509 1282.44 73.4619C1286.84 70.7098 1307.79 59.171 1291.85 61.7568C1294.17 60.8385 1296.62 59.9872 1299.25 59.2353C1304.56 57.7245 1310.09 56.6912 1316.18 56.3183C1310.43 55.4758 1304.76 55.5691 1299.38 55.6289C1314.41 54.4431 1319.68 49.6286 1336.41 52.7471C1338.83 53.3983 1341.26 54.3115 1343.61 55.4863C1362.21 65.8118 1363.09 80.2223 1365.71 88.3213C1366.82 92.1904 1367.63 95.3235 1368.85 98.2187C1371.23 104.013 1372.12 104.555 1372.61 102.674C1372.92 100.571 1373.24 96.2337 1370.45 86.7598C1368.9 81.9284 1366.57 75.7627 1361.31 68.6611C1356.3 61.6198 1346.51 53.9346 1336.95 51.0898C1327.54 48.3367 1324.62 48.6302 1322.5 48.1182ZM503.881 623.758C502.985 624.501 502.081 625.233 501.171 625.955C501.861 626.746 502.6 627.56 503.394 628.396C515.717 639.853 525.967 639.768 530.688 640.415C535.883 640.75 538.963 640.418 541.791 640.127C538.752 639.504 535.538 639.111 530.459 638.188C525.818 637.059 516.253 636.208 505.808 625.995C505.12 625.228 504.48 624.482 503.881 623.758ZM-1.37109 598.305C-1.36028 597.934 -1.53566 597.873 -2.0127 598.304C-2.23654 598.5 -2.55648 598.843 -2.98047 599.371C-3.19287 599.638 -3.43095 599.946 -3.75977 600.419C-3.91943 600.651 -4.11259 600.934 -4.37988 601.387C-4.45087 601.508 -4.52387 601.635 -4.59668 601.77C-4.68172 601.926 -4.77724 602.113 -4.86523 602.297C-5.05243 602.679 -5.27246 603.235 -5.375 603.542C-5.91993 605.81 -8.00159 609.528 -5.33887 616.84C-4.23544 617.057 -2.92267 617.321 -1.57617 617.45C0.156036 617.605 2.2879 617.832 3.80957 617.339C5.07769 618.487 6.78145 619.473 8.60254 620.449C13.703 623.965 20.5514 630.118 23.2129 630.053C39.639 629.216 37.518 623.385 48.6943 625.392C48.707 625.361 48.7199 625.329 48.7324 625.298C42.8934 622.923 46.4948 621.825 50.1963 620.268C50.5367 618.406 50.9054 615.748 50.8887 611.884C50.9052 609.488 50.585 606.365 49.8008 602.972C48.0759 603.344 46.6184 603.523 45.5684 603.61C44.6171 603.698 43.9696 603.732 43.6562 603.839C33.5331 606.945 34.8546 607.523 35.6748 609.23C36.4964 610.506 36.8885 613.556 23.2627 614.283C8.67465 614.19 43.2904 604.866 11.1582 609.025C10.169 609.099 9.22601 609.168 8.32227 609.235C8.17542 608.763 8.00666 608.346 7.75586 608.057C7.05273 608.163 6.49329 607.58 5.66113 607.337C3.57001 607.236 0.501366 608.949 -2.61523 607.287C-3.01335 607.052 -3.1945 605.742 -3.1582 604.304C-2.38058 601.539 -2.06415 601.084 -1.80664 600.142C-1.55585 599.325 -1.388 598.684 -1.37109 598.305ZM420.657 627.028C420.846 627.565 421.323 627.945 422.267 628.244C421.164 628.841 420.365 629.224 420.107 629.414L420.657 627.028ZM578.214 604.492C576.51 606.49 574.608 608.788 572.488 611.417C571.163 612.832 568.726 615.36 566.836 617.34C564.403 621.333 563.188 626.392 569.22 625.773C569.515 625.384 569.979 624.776 570.853 623.447C571.85 621.712 573.621 619.753 576.433 611.686C577.068 609.789 577.72 607.308 578.214 604.492ZM593.559 600.48C585.42 609.325 577.506 617.309 570.939 624.069C570.347 624.683 569.758 625.309 569.338 625.761C569.654 625.725 569.989 625.674 570.345 625.607C573.179 624.9 578.189 622.14 580.867 619.919C589.27 612.85 592.637 605.707 593.559 600.48ZM1231.71 609.721C1227.14 608.443 1222.99 610.003 1220.25 612.14C1217.52 614.258 1216.39 617.177 1220.48 618.565C1226.61 620.504 1233.04 610.041 1231.71 609.721ZM723.896 587.703C709.205 597.865 710.841 588.657 698.389 592.379C695.667 593.255 685.389 600.791 683.811 603.923C682.367 607.195 690.909 614.538 695.447 616.861C700.695 608.435 706.483 606.546 698.44 600.665C698.432 600.668 698.423 600.67 698.415 600.673C712.97 593.445 719.419 608.05 722.778 606.424C733.956 600.369 718.456 594.258 723.896 587.703ZM8.51562 609.91C8.60188 609.981 8.68698 610.056 8.76367 610.136C9.0672 610.44 9.21526 610.731 9.18652 610.746C9.18984 610.94 9.05207 611.061 8.90332 610.866C8.755 610.687 8.63016 610.316 8.52637 609.948C8.52299 609.936 8.519 609.923 8.51562 609.91ZM8.51562 609.91C8.26317 609.703 7.98981 609.54 7.8125 609.456C7.30743 609.235 7.54632 609.327 8.13184 609.249C8.19498 609.244 8.25874 609.24 8.32227 609.235C8.38925 609.451 8.45236 609.678 8.51562 609.91ZM65.0693 601.277C63.9229 603.52 63.0618 605.617 62.2129 607.735C64.9234 606.887 69.2302 605.554 76.0625 603.238C72.2911 602.629 68.695 601.949 65.0693 601.277ZM549.757 586.359C552.409 581.696 551.402 580.17 548.421 580.607C547.51 580.89 546.571 581.173 545.604 581.449C544.058 590.632 541.819 587.912 534.292 592.724C531.728 595.774 529.131 598.772 526.495 601.704C526.968 602.518 527.511 603.237 528.111 603.822C529.509 605.153 531.231 605.406 532.398 605.3C537.412 604.546 538.466 602.584 537.379 601.104C537.001 600.54 536.318 599.975 535.592 599.383C535.795 599.221 536.022 599.038 536.248 598.857C537.544 597.801 539.056 596.554 540.481 595.355C545.051 591.531 548.88 587.916 549.757 586.359ZM161.692 533.647C157.763 536.822 150.383 542.243 149.239 542.377C129.08 545.169 153.625 522.435 112.515 552.378C111.365 553.22 112.604 556.125 110.548 557.948C106.746 561.295 104.813 558.549 101.535 561.27C99.7656 563.577 98.0039 565.84 96.2549 568.048C93.9297 570.984 91.8691 573.518 89.5889 576.25C81.3486 586.083 76.5711 585.199 70.9258 592.292C69.9801 593.484 69.145 594.616 68.4004 595.698C68.9406 595.326 69.4799 594.953 70.0195 594.582C78.5388 598.078 93.8083 587.195 83.582 602.725C102.036 593.501 108.015 587.762 108.717 580.363C108.721 580.322 108.727 580.278 108.735 580.235C108.931 578.87 111.278 576.874 114.155 574.92C112.701 573.891 109.248 570.052 109.38 569.224C110.702 561.871 122.481 565.628 122.147 570.136C124.437 568.884 126.143 568.037 126.808 567.718C130.899 565.778 125.249 573.263 128.909 572.264C130.133 571.919 140.41 564.515 141.306 565.52C147.216 571.861 126.334 577.966 164.221 559.536C160.904 552.435 145.441 564.396 145.189 554.745C144.913 544.389 160.468 548.522 156.619 538.052C158.322 539.081 159.458 540.124 161.199 541.424C162.224 540.261 163.199 539.259 164.127 538.398C163.354 537.056 162.541 535.492 161.692 533.647ZM535.592 599.383C535.229 599.672 534.938 599.891 534.826 599.868C534.76 599.808 534.807 599.72 535.049 598.932C535.231 599.083 535.411 599.236 535.592 599.383ZM535.205 593.142C535.205 592.979 535.52 593.82 535.587 595.118C535.66 596.405 535.425 597.636 535.239 598.313C535.168 598.558 535.101 598.761 535.049 598.932C534.942 598.843 534.832 598.756 534.727 598.665C534.241 598.239 533.797 597.773 533.741 597.392C533.657 597.007 534.165 596.785 534.902 597.071C535.339 596.578 534.953 594.669 535.205 593.142ZM20.1914 563.545C19.8358 563.704 19.5199 563.859 19.2539 564.01C19.2618 564 19.2692 563.99 19.2764 563.98C16.3891 565.63 13.871 567.458 11.5508 569.483C9.17559 569.319 7.64437 569.516 6.4668 569.58C8.10163 569.767 9.63824 569.897 11.0254 569.949C6.21445 574.268 2.21925 579.481 -2.53418 585.831C8.66955 580.875 4.77257 586.915 3.67383 590.609C1.91885 596.299 10.0233 585.663 10.3711 585.858C14.5226 589.438 9.9192 596.654 21.7969 581.356C20.3245 586.306 18.9363 591.175 17.4688 596.112C19.332 593.821 21.0253 591.969 22.6113 590.432C22.5896 591.633 30.0212 589.599 35.7441 586.713C36.3472 586.522 37.6568 585.878 38.6006 585.527C39.5804 585.152 40.3183 584.987 40.6992 585.125C41.0548 585.265 41.8237 586.201 42.832 587.312C41.5641 585.548 39.5972 583.464 37.2773 581.387C36.0586 582.155 34.9249 582.872 33.8945 583.532C29.4919 586.099 27.2261 586.95 26.623 587.385C25.853 587.819 25.2081 588.211 24.6748 588.555C28.927 584.945 32.5881 583.43 37.1953 581.315C31.9237 576.611 24.8687 571.948 20.0664 571.088C17.9677 570.498 16.182 570.109 14.6504 569.854C14.8085 569.835 14.9624 569.814 15.1113 569.79C20.3818 568.702 18.5266 566.5 20.1914 563.545ZM293.6 564.547C292.312 565.343 290.895 566.188 289.326 567.084C288.164 567.64 285.919 568.892 282.542 570.584C278.724 572.235 275.67 574.74 262.726 577.498C260.765 577.644 258.84 577.885 256.891 578.16C257.146 582.329 258.114 587.032 260.944 591.981C269.35 588.12 271.442 585.755 274.971 586.353C278.346 586.675 283.56 589.949 294.542 588.437C307.483 585.839 295.614 582.05 300.871 578.252C301.565 577.87 302.418 577.282 303.394 576.541C303.015 575.827 302.506 575.051 301.8 574.222C300.017 571.901 296.378 569.412 293.6 564.547ZM24.6748 588.555C24.0037 589.124 23.3179 589.747 22.6113 590.432C22.6188 590.088 23.2361 589.483 24.6748 588.555ZM745.789 576.054C741.029 574.812 732.848 575.443 728.254 577.672C727.891 579.844 727.785 581.338 727.941 582.316C728.041 582.941 728.248 583.356 728.549 583.604C729.856 584.681 732.984 582.611 736.717 580.825C741.448 578.486 740.215 585.003 743.468 584.671C742.766 581.327 742.909 577.525 747.788 582.11C747.816 582.083 747.841 582.054 747.868 582.027C746.906 580.858 745.966 579.721 745.015 578.557C745.301 577.741 745.557 576.905 745.789 576.054ZM570.253 568.482C564.653 577.838 568.771 582.482 571.839 583.254C573.176 583.575 574.977 582.269 576.84 580.364C576.327 578.787 575.687 577.211 574.785 575.425C573.748 573.521 572.745 571.504 570.253 568.482ZM40.2109 579.549C39.4243 580.039 38.6632 580.515 37.9316 580.975C38.8885 580.531 39.8881 580.056 40.9424 579.528C40.69 579.538 40.4462 579.543 40.2109 579.549ZM335.293 529.807C329.849 534.691 324.4 539.545 318.807 544.439C315.455 547.37 312.129 550.256 308.398 553.396C305.775 555.415 303.517 557.775 298.729 561.164C299.365 562.346 300.079 563.589 300.862 564.958C301.385 566.085 303.249 570.194 306.084 574.384C313.21 568.458 323.882 558.358 329.851 556.229C328.57 553.943 327.601 551.821 327.267 550.514C329.85 551.738 332.629 553.364 335.432 554.857C335.479 554.676 335.526 554.494 335.573 554.312C327.787 540.76 330.132 544.249 336.604 541.317C340.689 539.476 333.634 535.779 334.323 532.753C334.479 532.057 334.818 531.005 335.293 529.807ZM732.652 552.225C731.138 553.325 729.637 554.422 728.151 555.519C727.413 556.065 726.25 555.625 724.865 555.607C723.275 556.777 721.407 558.251 719.224 560.065C718.748 560.982 718.284 561.942 717.708 562.865C718.034 562.765 718.345 562.669 718.644 562.581C727.567 559.867 722.977 563.899 720.296 566.089C719.489 566.735 718.895 567.209 718.911 567.315C719.818 570.3 721.419 572.033 723.526 572.943C729.85 575.972 739.742 570.576 746.761 571.658C747.222 569.041 747.527 566.306 747.762 563.493C747.82 562.739 746.161 561.195 745.562 560.119C741.003 560.339 736.053 560.921 731.621 561.372C730.565 563.7 729.394 566.04 728.193 568.317C730.577 561.368 734.174 553.862 732.652 552.225ZM11.5508 569.483C12.453 569.546 13.4777 569.658 14.6504 569.854C13.6185 569.977 12.394 570.001 11.0254 569.949C11.1994 569.793 11.3745 569.637 11.5508 569.483ZM682.261 550.371C678.213 553.496 675.359 555.631 673.793 557.38C673.152 558.103 672.544 558.797 671.968 559.464C671.294 562.101 670.473 564.719 669.511 567.299C671.432 567.398 673.359 567.319 675.077 567.146C703.799 560.897 683.725 561.052 682.261 550.371ZM127.951 525.403C123.859 531.041 119.742 536.729 115.643 542.341C124.23 540.348 120.359 533.967 133.242 530.215C131.489 528.587 129.722 526.989 127.951 525.403ZM752.841 538.264C752.754 539.323 752.85 540.224 753.21 540.857C753.352 540.717 753.47 540.577 753.553 540.435C753.615 540.329 753.242 539.402 752.841 538.264ZM157.876 522.757C151.754 527.309 142.552 533.906 150.199 535.466C151.756 535.769 157.067 532.699 160.668 531.321C160.169 530.14 159.657 528.862 159.136 527.474C158.671 525.956 158.252 524.381 157.876 522.757ZM707.875 527.884C707.096 528.667 706.328 529.428 705.572 530.169C705.176 531.062 704.825 532.146 704.501 533.292C704.593 533.245 704.685 533.198 704.776 533.15C706.662 532.193 708.533 531.139 710.416 529.99C709.43 528.551 708.595 527.926 707.875 527.884ZM344.443 521.56C345.028 522.151 345.596 523.058 346.128 524.351C345.885 523.109 345.624 521.915 345.365 520.725C345.058 521.003 344.751 521.282 344.443 521.56ZM1490.98 523.329C1490.94 523.633 1490.88 523.563 1490.84 523.286C1490.89 523.249 1490.94 523.213 1490.98 523.176C1490.98 523.234 1490.98 523.284 1490.98 523.329ZM488.684 518.149C487.009 518.566 485.328 518.966 483.63 519.509C483.858 519.834 484.031 520.176 484.157 520.529C485.754 519.868 487.257 519.048 488.684 518.149ZM155.919 506.44C153.884 507.793 151.74 509.369 149.458 511.241C151.926 512.835 154.141 513.597 156.351 513.624C156.107 511.304 155.959 508.907 155.919 506.44ZM223.322 502.804C223.41 505.591 224.854 508.166 224.78 506.325C224.282 504.845 223.785 503.672 223.316 502.728C223.318 502.753 223.32 502.779 223.322 502.804ZM241.596 467.76C241.225 468.815 240.897 469.668 240.589 470.452C239.937 472.104 239.334 473.524 238.725 474.926C233.816 485.894 230.601 481.338 223.965 496.022C223.92 496.119 223.876 496.219 223.832 496.317C223.639 496.759 223.347 498.449 223.279 500.419C225.604 501.868 228.816 503.712 232.675 505.609C231.169 505.552 233.398 506.423 235.951 506.748C236.107 506.661 236.265 506.574 236.423 506.486C242.033 503.368 247.779 508.107 248.214 497.554C252.103 504.713 264.329 490.878 266.862 489.941C267.339 488.913 267.868 487.756 268.459 486.456C263.338 489.796 258.577 493.384 258.857 494.851C255.947 488.906 246.248 488.501 246.747 479.977C246.829 478.723 255.113 473.517 249.227 470.965C247.504 470.21 244.256 469.162 241.596 467.76ZM278.038 488.187C271.113 490.945 266.807 506.137 268.493 505.474C275.378 502.808 280.396 496.912 282.077 492.619C281.499 493.247 281.079 493.669 280.902 493.538C279.154 492.222 278.295 490.074 278.268 488.099C278.192 488.127 278.115 488.156 278.038 488.187ZM239.938 489.226C237.211 492.149 234.442 495.076 231.665 498.002C239.931 493.61 246.314 495.453 238.773 502.634C238.767 502.638 238.76 502.643 238.754 502.647C235.478 501.47 232.167 500.328 228.8 499.239C232.498 495.934 236.253 492.562 239.938 489.226ZM219.332 497.534C218.875 497.329 219.291 497.731 220.43 498.54C219.772 497.829 219.479 497.629 219.332 497.534ZM258.857 494.851C258.911 494.961 258.985 495.063 259.034 495.177C258.938 495.085 258.881 494.973 258.857 494.851ZM283.831 479.256C282.986 479.145 281.883 479.187 280.392 479.493C279.82 479.626 275.242 482.161 270.453 485.178C274.952 484.175 279.496 481.383 283.831 479.256ZM806.735 472.58C804.877 472.473 803.135 473.217 801.836 475.222C803.458 474.382 805.095 473.501 806.735 472.58ZM859 467.618C858.147 467.915 857.339 468.087 856.576 468.066C856.808 468.321 857.054 468.555 857.33 468.751C857.81 469.093 858.409 469.185 859 469.089V467.618ZM314.902 431.507C316.073 422.709 305.643 433.563 303.455 433.604C302.951 433.613 302.558 431.618 302.379 429.926C301.287 430.78 300.192 431.589 299.084 432.306C296.049 434.276 296.564 431.154 296.311 431.317C292.148 433.996 294.935 436.033 291.517 438.729C287.222 442.128 272.447 448.642 270.562 450.392C265.668 454.948 278.416 453.926 278.176 454.681C276.516 459.679 267.909 462.509 270.627 465.609C278.473 458.498 295.327 446.76 304.921 441.659C304.094 441.711 303.26 441.744 302.375 441.664C306.567 440.615 305.129 435.196 307 433.446C308.883 431.69 314.338 435.651 314.902 431.507ZM823.095 461.74C822.257 461.782 821.104 462.466 819.192 464.683C820.515 463.73 821.819 462.75 823.095 461.74ZM296.774 456.506C297.469 456.362 298.138 456.243 298.779 456.148C298.653 455.814 298.477 455.439 298.302 455.084C297.807 455.546 297.299 456.021 296.774 456.506ZM305.525 448.082C303.995 449.644 302.165 451.437 300.006 453.482C301.238 454.535 302.46 456.631 303.904 455.372C304.895 454.505 306.153 450.443 305.525 448.082ZM-15.5654 438.122C-16.8748 439.977 -18.7219 441.378 -18.874 442.915C-19.1161 444.097 -17.7237 445.378 -15.9229 446.358C-15.9025 443.27 -15.769 440.561 -15.5654 438.122ZM82.9297 416.955C77.4702 416.816 76.6419 411.594 69.4971 415.707C69.732 418.128 68.173 424.501 66.1621 432.384C66.7537 433.433 66.729 434.78 65.5674 436.637C65.3603 436.812 65.1517 436.986 64.9443 437.161C64.5824 438.581 64.2149 440.03 63.8486 441.497C63.7335 441.947 63.6255 442.398 63.5244 442.841C70.1903 433.911 76.6055 425.345 82.9297 416.955ZM294.8 440.899C294.795 440.897 294.788 440.896 294.783 440.894C294.787 440.888 294.791 440.882 294.795 440.877C294.796 440.884 294.798 440.892 294.8 440.899ZM302.696 435.537C300.038 437.27 297.372 438.991 294.795 440.877C294.415 438.876 294.018 436.881 293.708 434.881C296.258 433.87 298.789 432.854 301.336 431.832C301.784 433.064 302.249 434.304 302.696 435.537ZM847.468 421.822C848.733 412.8 842.836 405.272 834.194 422.622C833.235 424.532 833.65 429.006 835.424 431.578C839.453 428.327 843.468 425.078 847.468 421.822ZM-11.2891 413.115C-13.5917 417.593 -18.8988 420.506 -17.1699 425.742C-16.4812 427.776 -15.5965 429.206 -14.5752 430.153C-14.29 428.381 -13.9897 426.717 -13.7051 425.079C-12.8984 420.868 -12.1027 416.924 -11.2891 413.115ZM311.255 422.961C309.451 424.18 307.698 425.595 305.961 427.021C307.016 427.121 307.993 427.202 308.466 426.796C309.726 425.7 310.571 424.374 311.255 422.961ZM-7.23047 395.831C-11.8263 400.39 -15.266 403.848 -13.543 403.075C-13.684 403.252 -13.8008 403.41 -13.8887 403.547C-15.1365 405.337 -11.2879 407.369 -10.5068 409.52C-9.4813 404.9 -8.40985 400.42 -7.23047 395.831ZM-20.3994 386.521C-23.2623 386.764 -24.8736 387.279 -25.6279 387.397C-24.44 387.714 -23.0996 387.736 -22.3867 387.759C-22.2209 387.713 -23.0776 388.282 -23.3965 388.558C-23.7656 388.859 -23.8413 388.974 -23.7607 388.96C-23.5836 388.925 -22.9294 388.495 -22.2666 388.021C-21.6328 387.551 -21.0106 387.047 -20.3994 386.521ZM120.289 357.65C122.045 352.335 106.943 356.039 102.592 363.152C102.103 363.942 101.069 373.035 103.535 372.195C103.526 372.203 103.517 372.213 103.508 372.221C105.952 371.411 119.433 360.207 120.289 357.65ZM1397.51 347.385C1396.36 348.524 1394.21 350.666 1391.77 353.22C1390.8 357.627 1389.79 361.99 1388.68 366.502C1396.08 358.498 1403.31 348.224 1393.46 368.965C1398.52 364.277 1403.58 359.602 1408.63 354.937C1404.88 352.478 1401.4 349.709 1397.51 347.385ZM98.2295 358.359C96.5338 360.291 94.8383 362.292 93.1406 364.387C92.2597 365.491 91.5111 366.517 90.8594 367.486C91.7707 366.614 94.9982 362.703 98.2295 358.359ZM1417.03 327.013C1415.41 333.728 1409.47 341.14 1413.32 343.093C1410.81 345.1 1408.27 347.156 1405.76 349.157C1406.81 349.892 1407.87 350.606 1408.91 351.333C1415.1 344.266 1421.27 337.227 1427.47 330.164C1424.02 329.083 1420.61 327.924 1417.03 327.013ZM1521.82 187.079C1533.28 164.606 1510.69 199.461 1507.1 199.315C1506.45 199.315 1503.85 197.589 1501.21 196.664C1501.08 196.813 1500.66 197.118 1499.97 197.632C1498.32 198.867 1496.64 200.122 1494.93 201.393C1494.95 202.164 1495.02 203.038 1495.17 204.024C1495.81 208.321 1506.68 200.314 1503.5 207.5C1500.34 214.666 1498.33 209.48 1497.75 209.726C1495.71 210.618 1492.31 218.19 1491.13 218.679C1473.35 225.893 1461.98 215.646 1492.89 211.524C1493.46 207.265 1490.67 206.776 1487.4 206.953C1475.31 215.84 1463.16 224.589 1456.2 229.665C1455.43 230.222 1454.69 230.761 1453.98 231.277C1452.1 232.644 1450.25 233.998 1448.42 235.334C1449.47 235.944 1450.29 236.53 1450.36 236.859C1451.69 243.031 1442.91 244.276 1439.53 241.821C1428.28 250.046 1417.85 257.705 1408 264.977C1413.45 263.691 1420.07 255.233 1423.08 262.112C1427.18 271.513 1411.4 272.911 1418.82 281.183C1416.88 280.805 1415.45 280.224 1413.38 279.607C1407.6 295.478 1400.16 290.296 1395.62 293.091C1395.3 293.294 1394.94 293.54 1394.57 293.823C1400.97 317.136 1396.56 325.404 1395.66 334.234C1395.46 335.24 1395.27 336.233 1395.08 337.214C1400.25 333.465 1401.86 334.449 1403.19 343.946C1413.01 322.586 1423.44 324.073 1435.21 303.468C1423.83 300.872 1421.01 309.178 1409.89 327.791C1407.28 327.037 1404.99 325.899 1402.34 325.154C1424.03 305.404 1415.15 316.496 1420.63 300.304C1421.95 296.362 1435.66 279.995 1425.63 281.46C1423.27 281.808 1415.6 292.58 1414.35 289.762C1414.1 289.24 1422.58 275.51 1423.98 274.775C1441.37 265.499 1427.36 294.645 1453.83 253.32C1454.55 252.18 1452.32 249.948 1453.51 247.601C1455.83 243.068 1458.74 245.201 1460.69 241.14C1462.67 237.029 1462.34 229.259 1469.91 226.522C1483.71 221.537 1470.48 247.538 1459.46 255.229C1461.88 259.878 1473.76 248.212 1486.47 233.325C1502.68 214.331 1520.35 189.969 1521.82 187.079ZM475.795 332.935C475.55 333.898 475.296 334.788 474.996 335.555C475.495 335.75 475.96 335.95 476.377 336.16C476.799 335.771 477.217 335.385 477.626 335.002C477.206 334.303 476.568 333.606 475.795 332.935ZM1333.96 320.493C1334.49 320.417 1334.95 320.339 1335.36 320.265C1336.63 320.019 1337.5 319.811 1338.14 319.642C1338.11 319.619 1338.09 319.595 1338.07 319.569C1337.74 319.214 1337.56 318.604 1337.19 318.036C1336.12 318.854 1335.04 319.672 1333.96 320.493ZM214.975 308.974C213.68 308.982 212.295 309.138 210.857 309.45C208.987 312.177 207.105 314.737 204.628 316.98C204.568 317.035 204.507 317.09 204.447 317.145C204.895 317.193 205.266 317.288 205.566 317.423C208.67 314.611 211.809 311.793 214.975 308.974ZM220.91 296.743C218.879 298.665 217.206 300.6 215.721 302.527C215.089 303.349 214.494 304.169 213.923 304.979C215.498 305.362 217.543 305.295 219.645 304.828C221.252 303.406 222.865 301.983 224.482 300.56C223.167 299.762 222.052 298.143 220.91 296.743ZM199.581 258.698C196.221 257.278 192.328 266.07 191.111 266.523C187.17 267.97 192.051 261.439 186.853 263.221C186.261 263.438 183.838 265.079 180.773 267.266C176.593 270.245 171.318 274.109 168.398 276.408C167.562 277.491 166.708 278.545 165.853 279.562C165.425 283.895 175.047 283.784 174.536 285.418C172.706 291.265 164.627 293.443 166.355 297.501C170.02 306.192 173.481 290.035 175.004 288.329C179.712 283.166 182.729 287.141 187.16 284.186C189.546 282.593 191.031 280.772 192.406 279.004C193.601 277.477 194.736 275.968 196.333 274.602C196.795 274.205 197.307 274.478 197.79 274.928C200.065 273.076 201.933 271.96 203.174 271.903C206.992 265.018 202.329 259.882 199.581 258.698ZM1248.77 283.963C1245.83 285.266 1243.35 286.449 1241.47 287.942C1241.08 288.253 1240.7 288.558 1240.33 288.858C1240.02 289.75 1239.71 290.626 1239.41 291.486C1241.83 289.595 1244.29 287.719 1246.76 285.862C1247.35 285.279 1248.02 284.648 1248.77 283.963ZM1464.84 272.563C1458.36 271.328 1468.11 256.533 1456.6 262.459C1456.6 262.471 1456.6 262.483 1456.59 262.495C1446.56 267.662 1454.34 272.24 1443.12 280.609C1449.43 283.199 1455.73 285.567 1462.03 288.066C1467.31 279.226 1466.62 275.904 1474.5 267.904C1472.02 267.685 1469.51 267.491 1467.02 267.257C1466.3 269.017 1465.58 270.875 1464.84 272.563ZM23.873 282.657C24.094 279.873 23.7337 278.354 23.6895 279.748C23.6609 280.483 23.4865 281.928 23.1543 283.437C23.3694 283.383 23.5883 283.327 23.8115 283.271C23.8358 283.067 23.8569 282.862 23.873 282.657ZM288.545 233.527C283.899 238.551 279.193 243.614 274.448 248.67C273.621 249.847 272.787 251.032 271.968 252.21C271.777 252.113 271.588 252.011 271.397 251.912C268.472 255.016 265.533 258.115 262.585 261.194C257.5 269.606 253.171 274.011 245.408 278.789C244.522 279.676 243.636 280.56 242.75 281.439C243.379 281.942 244.008 282.446 244.637 282.948C248.071 279.959 251.498 276.973 254.909 273.997C254.896 273.965 254.883 273.932 254.87 273.9C254.99 273.839 255.11 273.778 255.229 273.717C259.045 270.389 262.839 267.071 266.593 263.769C266.998 262.594 267.37 261.47 267.649 260.481C268.216 260.445 268.743 260.426 269.233 260.421C269.646 260.409 270.033 260.407 270.396 260.416C272.829 258.265 275.246 256.124 277.637 253.988C279.157 252.622 280.644 251.281 282.104 249.961C282.334 249.244 283.163 248.401 284.913 247.408C289.133 243.555 293.123 239.811 296.964 235.939C294.774 234.93 291.727 234.023 288.545 233.527ZM1483.6 247.712C1482.75 242.952 1471.15 253.827 1471.72 258.559C1472.63 266.218 1484.89 254.952 1483.6 247.712ZM694.113 253.297C694.802 253.459 695.583 253.526 696.393 253.515C697.463 252.501 698.527 251.491 699.586 250.484C698.652 249.932 697.716 249.38 696.771 248.836C695.888 250.324 695.002 251.811 694.113 253.297ZM158.89 253.444C158.866 253.429 158.842 253.414 158.818 253.398C158.716 253.391 158.613 253.382 158.51 253.374C158.636 253.399 158.764 253.42 158.89 253.444ZM588.8 248.52C587.403 248.183 585.938 247.999 584.6 249.161C584.259 249.459 584.157 250.814 584.289 252.456C585.798 251.156 587.303 249.834 588.8 248.52ZM191.504 236.337C192.791 233.294 190.219 224.488 185.315 226.477C185.636 228.341 185.947 230.196 186.258 232.049C186.675 239.184 185.301 243.35 183.8 246.903C185.942 246.133 188.607 243.039 191.504 236.337ZM703.303 240.386C704.022 242.691 703.325 244.718 703.85 246.421C705.173 245.156 706.489 243.892 707.803 242.63C707.543 242.416 707.283 242.206 707.023 242.004C705.788 241.456 704.549 240.911 703.303 240.386ZM600.447 239.199C596.96 237.616 592.291 237.025 591.032 238.555C593.131 241.815 594.275 242.965 595.089 243.116C596.156 242.234 597.22 241.381 598.281 240.567C599.224 239.844 599.926 239.418 600.447 239.199ZM601.928 239.978C601.938 240.393 601.867 240.764 601.998 240.664C602.152 240.546 602.3 240.427 602.443 240.313C602.279 240.199 602.106 240.087 601.928 239.978ZM598.371 229.447C596.271 231.57 594.145 233.669 591.989 235.731C595.344 235.428 598.575 234.774 603.642 239.303C604.745 238.3 605.422 237.45 605.896 236.674C604.786 233.184 601.919 230.912 598.371 229.447ZM239.39 218.881C233.371 217.662 217.008 226.392 215.482 231.665C213.254 239.473 220.131 237.926 227.334 234.12C228.398 232.725 229.567 231.215 230.852 229.575C232.274 227.764 233.811 225.831 235.458 223.774C236.767 222.148 238.076 220.515 239.39 218.881ZM616.486 213.315C617.657 214.805 618.829 216.294 620 217.782C617.974 217.694 615.946 217.621 613.917 217.529C614.055 218.964 614.091 220.596 614.28 221.926C611.668 220.844 610.005 219.892 609.006 219.038C608.272 219.594 607.543 220.144 606.821 220.687C606.34 221.195 605.857 221.702 605.374 222.21C606.789 223.454 607.216 224.492 603.865 224.157C603.815 224.153 603.732 224.114 603.618 224.052C602.42 225.302 601.214 226.549 600.001 227.789C602.234 229.387 605.101 231.206 607.813 232.677C608.371 231.755 609.207 230.728 610.687 229.462C611.022 229.175 611.396 228.871 611.801 228.549C612.342 227.617 612.921 226.675 613.466 225.731C613.805 225.984 614.147 226.243 614.49 226.501C615.44 225.804 616.475 225.065 617.57 224.299C619.075 219.469 621.216 218.08 627.174 217.843C627.297 217.762 627.42 217.682 627.543 217.602C624.903 215.361 622.262 213.12 619.621 210.879C618.576 211.694 617.53 212.508 616.486 213.315ZM311.08 215.469C308.234 217.115 305.434 218.323 302.78 218.09C299.71 221.424 296.602 224.798 293.466 228.198C294.684 230.816 297.871 231.319 302.008 230.569C303.101 228.422 296.865 230.722 297.3 230.188C303.967 222.778 308.26 218.209 311.08 215.469ZM907 213.757C900.368 215.119 896.025 217.305 893.187 218.994C891.354 220.481 889.693 221.936 888.388 223.498C886.699 225.516 885.044 227.513 883.43 229.486C883.553 229.541 883.683 229.594 883.815 229.645C885.931 228.134 888.856 225.183 892.219 222.275C897.423 217.777 897.253 222.46 899.413 223.06C897.7 221.927 899.788 219.21 907 217.029V213.757ZM452 229.229C452.678 229.292 453.34 229.332 453.979 229.346C453.214 229.282 452.605 229.241 452 229.229ZM719.076 222.137C718.099 222.361 716.936 222.67 715.628 223.051C715.612 223.098 715.594 223.147 715.579 223.196C717.174 223.959 718.766 224.721 720.359 225.479C720.425 223.992 720.065 222.79 719.076 222.137ZM727.315 220.402C727.667 220.541 728.019 220.683 728.373 220.823C728.742 220.319 729.238 219.8 729.912 219.252C729.528 219.136 729.143 219.017 728.759 218.899C728.277 219.401 727.794 219.901 727.315 220.402ZM870.289 210.039C868.414 211.656 866.631 213.241 864.996 214.758C865.037 214.836 865.079 214.912 865.122 214.986C867.797 212.886 869.764 211.439 871.167 210.506C870.906 210.297 870.61 210.142 870.289 210.039ZM328.463 208.464C324.776 207.32 320.775 209.407 316.738 211.931C317.577 212.618 317.758 214.613 322.146 212.475C322.989 212.08 324.169 211.367 325.647 210.389C326.496 209.824 327.437 209.178 328.463 208.464ZM318.058 201.658C316.622 203.156 315.182 204.674 313.741 206.206C311.609 208.511 309.455 210.848 307.28 213.207C311.712 212.154 317.046 209.401 319.752 205.996C319.186 203.806 318.631 202.426 318.058 201.658ZM637.532 210.059C635.507 209.507 633.647 209.402 632.741 210.03C633.764 210.047 634.976 210.895 636.245 212.025C636.413 211.919 636.579 211.814 636.743 211.71C637.011 211.16 637.274 210.608 637.532 210.059ZM224.785 176.079C211.708 185.131 196.066 197.335 186.953 211.908C197.46 207.651 200.103 199.341 210.25 191.242C216.706 186.072 217.715 191.546 224.81 176.052C224.802 176.061 224.793 176.07 224.785 176.079ZM625.117 206.561C624.098 207.367 623.071 208.176 622.042 208.984C625.392 210.337 631.334 206.522 631.565 203.676C631.118 203.471 630.308 203.347 629.315 203.301C627.929 204.374 626.526 205.462 625.117 206.561ZM642.463 193.261C639.531 195.463 636.339 197.891 633.01 200.45C633.55 200.638 634.058 200.916 634.458 201.605C634.836 202.296 631.947 203.5 633.476 204.935C634.808 206.155 636.51 207.31 638.362 208.266C639.072 206.696 639.732 205.146 640.327 203.648C637.107 204.078 633.705 204.869 633.936 204.481C635.691 201.275 639.592 198.278 642.982 195.689C643.072 195.322 643.154 194.967 643.225 194.624C642.954 194.128 642.701 193.675 642.463 193.261ZM832.648 190.881C830.847 191.989 831.032 186.757 829.062 187.187C828.729 187.26 827.711 188.525 826.646 189.648C826.676 189.687 826.709 189.724 826.74 189.763C827.608 189.42 828.544 189.047 829.548 188.635C829.036 189.654 828.574 190.588 828.164 191.441C828.402 191.709 828.652 191.986 828.915 192.27C831.39 194.747 833.815 196.689 836.096 198.223C836.598 198.116 837.121 198.006 837.662 197.894C839.015 196.618 840.364 195.34 841.712 194.066C839.312 193.584 835.715 191.415 834.603 189.465C833.699 190.18 832.931 190.707 832.648 190.881ZM84.9775 197.736C85.4365 197.913 85.809 198.013 86.0615 198.074C86.9942 198.267 87.1414 198.143 87.0332 198.068C86.821 197.927 86.0444 197.815 84.9775 197.736ZM86.3623 197.029C86.4999 196.911 86.1227 197.003 85.7178 197.141C85.3758 197.257 84.9886 197.405 84.5742 197.57H84.5752C84.8741 197.52 85.2177 197.453 85.4766 197.375C86.0283 197.219 86.2858 197.087 86.3623 197.029ZM1321.81 98.0605C1319.99 96.8817 1313.05 96.2857 1307.58 97.2119C1302.32 97.9998 1296.28 99.9266 1290.15 102.479C1286.38 104.033 1279.74 107.719 1272.75 112.3C1262.33 118.981 1251.86 127.506 1246.87 130.832C1245.69 131.601 1244.72 132.134 1243.88 132.49C1238.85 134.673 1239.15 129.908 1234.53 131.566C1235.01 145.129 1230.41 150.522 1212.81 160.264C1213.09 162.818 1213.09 164.435 1212.78 165.614C1211.86 169.212 1208.06 168.712 1202.68 177.508C1201.31 179.765 1200 182.688 1198.68 185.882C1198.72 185.897 1198.75 185.913 1198.79 185.929C1202.44 187.459 1206.57 189.375 1212.24 192.754C1214.12 193.898 1216.14 195.15 1218.59 196.907C1222.48 194.447 1225.24 192.732 1225.96 192.274C1235.15 186.668 1232.2 197.268 1238.61 192.188C1238.77 192.055 1238.95 191.911 1239.13 191.757C1251.41 181.188 1234.33 176.855 1262.87 177.975C1265.82 167.847 1268.39 169.855 1276.84 163.377C1277.95 162.521 1274.87 160.535 1275.28 160.068C1285.41 147.994 1280.64 160.658 1280.89 160.904C1286.04 164.532 1296.61 151.409 1298.1 150.141C1299.5 149.12 1300.67 148.24 1301.8 147.265C1312.28 136.652 1319.74 127.896 1320.94 123.025C1321.86 114.851 1322.58 106.382 1322.19 102.657C1321.91 100.906 1321.48 99.47 1321.25 98.7549C1321.14 98.393 1321.12 98.2206 1321.23 98.1611C1321.34 98.1003 1321.61 98.1223 1321.81 98.0605ZM868.452 151.072C865.167 151.567 861.449 152.522 857.45 153.996C857.448 153.992 857.445 153.988 857.442 153.984C856.32 154.895 855.221 155.808 854.126 156.722C854.211 157.775 854.215 158.922 854.048 160.166C854.04 160.209 854.027 160.253 854.015 160.297C854.855 160.361 855.456 160.519 855.843 160.761C855.852 160.73 855.863 160.732 855.865 160.775C856.087 160.919 856.235 161.092 856.315 161.291C856.679 159.667 857.148 157.995 857.679 156.712C858.477 157.481 859.271 160.028 858.736 162.525C858.588 163.403 858.208 164.212 857.698 164.904C859.1 166.721 859.73 166.346 854.156 167.692C854.26 167.58 854.34 167.42 854.404 167.202C854.292 167.227 854.181 167.246 854.072 167.259C853.673 167.487 853.363 167.648 853.178 167.728C853.285 167.789 853.385 167.83 853.478 167.855C853.436 167.866 853.394 167.875 853.352 167.886C853.174 167.929 852.989 167.976 852.799 168.024C852.97 168.079 853.214 168.121 853.424 168.174C853.932 168.293 854.26 168.555 852.802 169.283C852.619 169.382 852.264 169.089 851.865 168.267C851.208 168.44 850.485 168.635 849.698 168.856C852.22 169.697 854.663 170.576 857.119 171.437C858.3 171.834 859.466 172.247 860.66 172.633C860.335 173.043 860.021 173.439 859.685 173.856C859.04 174.66 858.379 175.471 857.714 176.282C851.633 173.146 847.087 177.362 845.54 172.326C846.366 172.285 847.21 172.22 848.072 172.149C847.654 171.644 847.295 171.176 846.988 170.743C846.475 171.111 845.949 171.483 845.413 171.859C845.453 172.023 845.495 172.179 845.54 172.326C845.259 172.34 844.98 172.349 844.702 172.357C842.342 174 839.8 175.706 837.255 177.402C837.113 179.107 837.63 180.902 838.713 182.907C839.288 183.986 838.678 185.307 837.65 186.568C839.109 187.509 843.223 190.833 843.524 191.462C843.634 191.692 843.721 191.907 843.789 192.104C849.417 186.785 855.008 181.487 860.576 176.208C860.744 175.849 860.931 175.521 861.134 175.223C861.947 174.038 863.055 173.263 864.235 172.738C867.026 170.092 869.812 167.452 872.595 164.814C871.35 164.95 870.345 164.911 871.061 163.449C871.101 163.366 871.188 163.262 871.312 163.143C870.831 163.326 870.318 163.569 869.817 163.667C868.262 163.944 867.64 163.383 866.009 158.174C864.546 155.035 866.908 155.24 869.271 156.09C870.398 156.47 871.391 156.888 871.741 156.501C872.009 156.107 872.06 154.922 869.434 151.988C869.142 151.677 868.811 151.37 868.452 151.072ZM737.797 171.999C736.564 175.864 735.116 179.415 733.445 182.318C733.257 182.7 733.064 183.079 732.875 183.46C732.894 183.706 732.905 183.981 732.903 184.284C732.833 185.372 732.617 186.398 732.337 187.238C732.023 188.32 731.264 188.429 730.481 188.226C729.926 189.322 729.367 190.414 728.807 191.505C731.244 188.949 733.686 186.382 736.125 183.8C737.938 177.379 737.547 174.872 737.795 172.174C737.796 172.115 737.796 172.056 737.797 171.999ZM1511 140.315C1508.8 139.701 1507.35 139.797 1506.15 139.876C1489.99 141.981 1499.14 144.593 1499.86 150.766C1499.44 150.759 1499 150.826 1498.59 150.926C1497.71 151.106 1496.99 151.416 1496.69 151.724C1489.8 158.908 1491 162.362 1487.44 164.597C1485.76 163.769 1485.09 163.096 1485.22 162.227C1485.37 160.976 1487.05 159.691 1488.16 158.583C1491.66 155.085 1481.57 158.961 1481.37 158.972C1479.21 154.675 1484.46 150.241 1474.05 156.032C1472.86 156.76 1471.51 157.713 1469.9 158.835C1470.89 157.313 1471.83 155.778 1472.95 154.253C1474.82 151.659 1476.91 149.117 1479.38 146.718C1475.84 148.215 1473.08 149.536 1470.64 150.55C1468.06 151.722 1465.88 152.431 1463.8 152.905C1463.83 158.115 1465.16 165.944 1469.35 173.095C1469.59 173.702 1469.98 174.416 1470.51 175.205C1475.2 173.87 1479.67 171.591 1482.69 169.898C1484.06 169.172 1485.35 168.468 1486.65 167.815C1486.37 169.453 1482.58 172.187 1482.08 174.536C1479.98 184.4 1485.48 180.692 1479.89 185.09C1482.15 186.974 1484.57 188.726 1486.94 190.097C1491.76 185.459 1496.69 183.584 1497.49 182.831C1513.24 167.831 1490.18 181.517 1508.29 162.367C1513.02 157.232 1511.75 161.856 1511.02 165.246C1510.66 166.933 1510.44 168.316 1511.22 168.029C1511.63 167.851 1512.24 167.322 1513.25 166.133C1513.76 165.537 1514.34 164.806 1515.04 163.871C1515.37 163.431 1515.77 162.876 1516.19 162.279C1516.3 162.107 1516.41 161.945 1516.52 161.78C1516.66 161.572 1516.76 161.429 1516.92 161.171C1517.06 160.944 1517.22 160.686 1517.44 160.273C1517.5 160.165 1517.55 160.061 1517.62 159.936C1517.69 159.793 1517.76 159.642 1517.82 159.489C1517.97 159.157 1518.12 158.73 1518.2 158.488C1518.74 156.629 1519.47 154.235 1519.08 150.601C1518.86 148.773 1518.23 146.848 1517.26 145.242C1516.32 143.327 1513.15 140.757 1511 140.315ZM21.6357 177.219C21.6265 177.219 21.6167 177.219 21.6074 177.22C21.6202 177.21 21.6336 177.199 21.6465 177.188C21.643 177.198 21.6393 177.209 21.6357 177.219ZM45.1855 159.129C45.0106 160.645 44.8633 162.164 44.7031 163.674C36.9282 168.101 29.2796 172.514 21.6465 177.188C22.6384 174.497 23.6106 171.816 24.79 169.066C31.5733 165.725 38.3098 162.434 45.1855 159.129ZM283.982 144.643C281.281 147.488 278.718 150.273 276.044 153.212C279.041 161.474 277.549 166.604 274.831 169.951C269.203 176.902 258.191 175.99 273.041 177.07C273.056 177.071 273.072 177.072 273.087 177.072C277.675 171.437 282.308 165.786 286.991 160.132C282.517 159.614 280.799 158.528 289.871 145.731C287.923 145.34 285.952 144.998 283.982 144.643ZM854.156 167.692C854.111 167.741 854.064 167.783 854.009 167.813C853.868 167.884 853.692 167.913 853.478 167.855C853.713 167.798 853.94 167.745 854.156 167.692ZM1487.44 164.597C1488.27 165.007 1489.36 165.456 1490.72 165.985C1489.32 166.518 1487.99 167.139 1486.65 167.815C1486.8 166.894 1485.85 166.32 1482.56 166.356C1484.86 165.835 1486.37 165.271 1487.44 164.597ZM336.674 158.969C337.362 159.415 338.024 159.818 338.653 160.178C340.674 161.339 342.47 162.23 344.072 162.933C344.046 162.731 344.008 162.548 343.957 162.388C343.414 160.71 340.226 159.601 336.674 158.969ZM1500.01 150.771C1500.23 150.801 1500.46 150.831 1500.58 151.067C1500.65 151.179 1500.67 151.362 1500.63 151.704C1500.62 151.998 1500.49 152.664 1500.55 152.881C1502.28 152.568 1504.36 152.601 1505.92 151.962C1505.44 153.284 1505.07 154.636 1504.83 155.792C1486 158.355 1499.42 154.633 1499.81 152.623C1499.92 151.97 1499.93 151.352 1499.86 150.766C1499.91 150.766 1499.96 150.768 1500.01 150.771ZM1455.31 154.114C1454.13 154.249 1452.87 154.404 1451.51 154.612C1452.64 154.943 1453.58 155.253 1454.34 155.55C1454.67 155.071 1454.99 154.592 1455.31 154.114ZM1507.31 148.641C1507.78 148.853 1508.23 149.3 1508.22 149.781C1508.22 150.294 1507.67 150.524 1507.3 151.029C1506.92 151.446 1506.45 151.743 1505.92 151.962C1506.12 151.396 1506.34 150.834 1506.59 150.297C1506.78 149.697 1507.02 149.132 1507.31 148.641ZM1075.74 147.415C1075.9 146.44 1075.99 145.605 1075.87 145.808C1075.84 145.941 1075.72 146.334 1075.74 147.415ZM1077.17 145.607C1077.36 145.265 1077.42 145.091 1077.19 145.448C1077.05 145.684 1076.82 146.029 1076.43 146.834C1076.75 146.331 1077.01 145.909 1077.17 145.607ZM1470.48 131.356C1470.5 131.299 1470.49 131.266 1470.09 131.877C1469.89 132.19 1469.62 132.587 1469.05 133.615C1469.29 133.252 1469.52 132.902 1469.73 132.568C1470.07 132.048 1470.39 131.531 1470.48 131.356ZM359.441 106.191C353.012 105.109 343.026 107.896 336.102 111.125C328.151 115.072 325.852 119.845 329.701 119.041C330.091 119.038 332.915 116.663 337.243 115.174C345.702 112.189 358.358 110.591 357.324 116.479C361.312 113.124 363.573 111.317 364.093 109.724C364.623 108.153 362.623 106.684 359.441 106.191ZM324.434 115.157C324.424 115.175 324.413 115.196 324.402 115.216C324.424 115.182 324.446 115.149 324.464 115.119C324.605 114.893 324.633 114.812 324.434 115.157ZM320.926 92.8037C310.072 95.3351 303.233 105.723 301.211 109.784C300.707 110.75 300.467 111.421 300.576 111.612C300.574 111.609 300.57 111.606 300.567 111.603C302.046 114.318 303.324 114.854 304.451 114.174C307.051 112.626 308.872 103.482 311.716 100.481C315.181 96.341 326.44 95.1678 320.926 92.8037ZM1277.52 57.6387C1277.5 57.6383 1277.49 57.6381 1277.48 57.6377C1277.5 57.6281 1277.52 57.618 1277.54 57.6084C1277.53 57.6182 1277.52 57.6288 1277.52 57.6387ZM1296.48 46.5937C1303.52 45.4094 1310.77 44.8607 1318.8 45.375C1317.17 46.5646 1315.72 47.8168 1314.3 49.0869C1308.36 49.247 1302.82 49.9856 1297.48 51.1426C1289.7 52.8623 1283.45 55.1293 1277.54 57.6084C1279.35 54.914 1281.3 52.2211 1283.79 49.4961C1287.67 48.4089 1291.79 47.4011 1296.48 46.5937Z" fill="#C9473C"/>
</g>
</svg>
